SplineFontDB: 3.2
FontName: PPLXSansBetav0VF
FullName: PPLX Sans Beta v0 VF
FamilyName: PPLX Sans Beta v0 VF
Weight: Black
Copyright: 
Version: 0.001;Glyphs 3.5 (3513)
ItalicAngle: 0
UnderlinePosition: -125
UnderlineWidth: 50
Ascent: 800
Descent: 200
InvalidEm: 0
sfntRevision: 0x00000042
LayerCount: 2
Layer: 0 1 "Back" 1
Layer: 1 1 "Fore" 0
XUID: [1021 382 509860542 9553310]
StyleMap: 0x0040
FSType: 8
OS2Version: 4
OS2_WeightWidthSlopeOnly: 0
OS2_UseTypoMetrics: 1
CreationTime: 1769419704
ModificationTime: 1772994574
PfmFamily: 81
TTFWeight: 900
TTFWidth: 5
LineGap: 0
VLineGap: 0
Panose: 0 0 0 0 0 0 0 0 0 0
OS2TypoAscent: 970
OS2TypoAOffset: 0
OS2TypoDescent: -190
OS2TypoDOffset: 0
OS2TypoLinegap: 0
OS2WinAscent: 970
OS2WinAOffset: 0
OS2WinDescent: 190
OS2WinDOffset: 0
HheadAscent: 970
HheadAOffset: 0
HheadDescent: -190
HheadDOffset: 0
OS2SubXSize: 650
OS2SubYSize: 600
OS2SubXOff: 0
OS2SubYOff: 75
OS2SupXSize: 650
OS2SupYSize: 600
OS2SupXOff: 0
OS2SupYOff: 350
OS2StrikeYSize: 50
OS2StrikeYPos: 255
OS2CapHeight: 705
OS2XHeight: 515
OS2Vendor: 'UKWN'
OS2CodePages: 20000093.00000000
OS2UnicodeRanges: a000007f.4000a47b.00000000.00000000
Lookup: 1 0 0 "'aalt' Access All Alternates in Latin lookup 0" { "'aalt' Access All Alternates in Latin lookup 0 subtable"  } ['aalt' ('DFLT' <'dflt' > 'latn' <'AZE ' 'CAT ' 'CRT ' 'DEU ' 'KAZ ' 'MOL ' 'NLD ' 'ROM ' 'TAT ' 'TRK ' 'dflt' > ) ]
Lookup: 3 0 0 "'aalt' Access All Alternates in Latin lookup 1" { "'aalt' Access All Alternates in Latin lookup 1 subtable"  } ['aalt' ('DFLT' <'dflt' > 'latn' <'AZE ' 'CAT ' 'CRT ' 'DEU ' 'KAZ ' 'MOL ' 'NLD ' 'ROM ' 'TAT ' 'TRK ' 'dflt' > ) ]
Lookup: 6 16 0 "'ccmp' Glyph Composition/Decomposition in Latin lookup 2" { "'ccmp' Glyph Composition/Decomposition in Latin lookup 2 contextual 0"  "'ccmp' Glyph Composition/Decomposition in Latin lookup 2 contextual 1"  } ['ccmp' ('DFLT' <'dflt' > 'latn' <'AZE ' 'CAT ' 'CRT ' 'DEU ' 'KAZ ' 'MOL ' 'NLD ' 'ROM ' 'TAT ' 'TRK ' 'dflt' > ) ]

StartChar: .notdef
Encoding: 65536 -1 0
Width: 600
GlyphClass: 1
Flags: W
LayerCount: 2
Fore
SplineSet
0 705 m 1,0,-1
 600 705 l 1,1,-1
 600 -165 l 1,2,-1
 0 -165 l 1,3,-1
 0 705 l 1,0,-1
560 -125 m 1,4,-1
 560 665 l 1,5,-1
 40 665 l 1,6,-1
 40 -125 l 1,7,-1
 560 -125 l 1,4,-1
276 270 m 1,8,-1
 18 673 l 1,9,-1
 66 673 l 1,10,-1
 300 307 l 1,11,-1
 534 673 l 1,12,-1
 582 673 l 1,13,-1
 324 270 l 1,14,-1
 582 -133 l 1,15,-1
 534 -133 l 1,16,-1
 300 233 l 1,17,-1
 66 -133 l 1,18,-1
 18 -133 l 1,19,-1
 276 270 l 1,8,-1
EndSplineSet
EndChar

StartChar: A
Encoding: 65 65 3
Width: 792
GlyphClass: 2
Flags: W
AnchorPoint: "Anchor-4" 667 0 basechar 0
AnchorPoint: "Anchor-3" 401 705 basechar 0
AnchorPoint: "Anchor-2" 401 0 basechar 0
LayerCount: 2
Fore
SplineSet
284 705 m 1,0,-1
 508 705 l 1,1,-1
 768 0 l 1,2,-1
 566 0 l 1,3,-1
 465 335 l 2,4,5
 432 442 432 442 401 550 c 1,6,-1
 391 550 l 1,7,8
 360 442 360 442 327 335 c 2,9,-1
 226 0 l 1,10,-1
 24 0 l 1,11,-1
 284 705 l 1,0,-1
216 273 m 1,12,-1
 576 273 l 1,13,-1
 576 133 l 1,14,-1
 216 133 l 1,15,-1
 216 273 l 1,12,-1
EndSplineSet
Substitution2: "Single Substitution lookup 37 subtable" ordfeminine
Substitution2: "'aalt' Access All Alternates in Latin lookup 0 subtable" ordfeminine
EndChar

StartChar: B
Encoding: 66 66 4
Width: 737
GlyphClass: 2
Flags: W
AnchorPoint: "Anchor-3" 354 705 basechar 0
AnchorPoint: "Anchor-2" 354 0 basechar 0
LayerCount: 2
Fore
SplineSet
100 705 m 1,0,-1
 421 705 l 2,1,2
 494 705 494 705 546 684.5 c 128,-1,3
 598 664 598 664 625.5 625 c 128,-1,4
 653 586 653 586 653 531 c 0,5,6
 653 470 653 470 615 427.5 c 128,-1,7
 577 385 577 385 509 370 c 1,8,-1
 509 360 l 1,9,10
 586 351 586 351 629 307 c 128,-1,11
 672 263 672 263 672 192 c 0,12,13
 672 135 672 135 643 91.5 c 128,-1,14
 614 48 614 48 561 24 c 128,-1,15
 508 0 508 0 438 0 c 2,16,-1
 100 0 l 1,17,-1
 100 705 l 1,0,-1
455.5 151.5 m 128,-1,19
 476 173 476 173 476 211 c 2,20,-1
 476 212 l 2,21,22
 476 251 476 251 455.5 272.5 c 128,-1,23
 435 294 435 294 398 294 c 2,24,-1
 289 294 l 1,25,-1
 289 130 l 1,26,-1
 398 130 l 2,27,18
 435 130 435 130 455.5 151.5 c 128,-1,19
437.5 439.5 m 128,-1,29
 457 460 457 460 457 496 c 0,30,31
 457 533 457 533 437 554 c 128,-1,32
 417 575 417 575 383 575 c 2,33,-1
 289 575 l 1,34,-1
 289 419 l 1,35,-1
 383 419 l 2,36,28
 418 419 418 419 437.5 439.5 c 128,-1,29
EndSplineSet
EndChar

StartChar: C
Encoding: 67 67 5
Width: 780
GlyphClass: 2
Flags: W
AnchorPoint: "Anchor-3" 405 705 basechar 0
AnchorPoint: "Anchor-2" 405 0 basechar 0
LayerCount: 2
Fore
SplineSet
229.5 31.5 m 128,-1,1
 150 78 150 78 105 161.5 c 128,-1,2
 60 245 60 245 60 352 c 256,3,4
 60 459 60 459 105 543 c 128,-1,5
 150 627 150 627 229.5 673.5 c 128,-1,6
 309 720 309 720 410 720 c 0,7,8
 490 720 490 720 557.5 691.5 c 128,-1,9
 625 663 625 663 669 611.5 c 128,-1,10
 713 560 713 560 725 495 c 1,11,-1
 527 495 l 1,12,13
 515 535 515 535 484 557.5 c 128,-1,14
 453 580 453 580 410 580 c 0,15,16
 363 580 363 580 328 553 c 128,-1,17
 293 526 293 526 274.5 474.5 c 128,-1,18
 256 423 256 423 256 352 c 0,19,20
 256 282 256 282 275 230.5 c 128,-1,21
 294 179 294 179 328.5 152 c 128,-1,22
 363 125 363 125 410 125 c 0,23,24
 453 125 453 125 484 147.5 c 128,-1,25
 515 170 515 170 527 210 c 1,26,-1
 725 210 l 1,27,28
 713 145 713 145 669 93.5 c 128,-1,29
 625 42 625 42 557.5 13.5 c 128,-1,30
 490 -15 490 -15 410 -15 c 0,31,0
 309 -15 309 -15 229.5 31.5 c 128,-1,1
EndSplineSet
EndChar

StartChar: D
Encoding: 68 68 6
Width: 785
GlyphClass: 2
Flags: W
AnchorPoint: "Anchor-3" 339 705 basechar 0
AnchorPoint: "Anchor-2" 389 0 basechar 0
LayerCount: 2
Fore
SplineSet
100 705 m 1,0,-1
 389 705 l 2,1,2
 479 705 479 705 556.5 659 c 128,-1,3
 634 613 634 613 679.5 532 c 128,-1,4
 725 451 725 451 725 352 c 256,5,6
 725 253 725 253 679.5 172.5 c 128,-1,7
 634 92 634 92 556.5 46 c 128,-1,8
 479 0 479 0 389 0 c 2,9,-1
 100 0 l 1,10,-1
 100 705 l 1,0,-1
445.5 173.5 m 128,-1,12
 483 197 483 197 506.5 242.5 c 128,-1,13
 530 288 530 288 530 352 c 256,14,15
 530 416 530 416 506.5 462 c 128,-1,16
 483 508 483 508 445.5 531.5 c 128,-1,17
 408 555 408 555 366 555 c 2,18,-1
 290 555 l 1,19,-1
 290 150 l 1,20,-1
 366 150 l 2,21,11
 408 150 408 150 445.5 173.5 c 128,-1,12
EndSplineSet
EndChar

StartChar: E
Encoding: 69 69 7
Width: 652
GlyphClass: 2
Flags: W
AnchorPoint: "Anchor-4" 522 0 basechar 0
AnchorPoint: "Anchor-3" 341 705 basechar 0
AnchorPoint: "Anchor-2" 341 0 basechar 0
LayerCount: 2
Fore
SplineSet
100 705 m 1,0,-1
 290 705 l 1,1,-1
 290 0 l 1,2,-1
 100 0 l 1,3,-1
 100 705 l 1,0,-1
195 140 m 1,4,-1
 582 140 l 1,5,-1
 582 0 l 1,6,-1
 290 0 l 1,7,-1
 195 140 l 1,4,-1
175 430 m 1,8,-1
 559 430 l 1,9,-1
 559 290 l 1,10,-1
 175 290 l 1,11,-1
 175 430 l 1,8,-1
290 705 m 1,12,-1
 582 705 l 1,13,-1
 582 565 l 1,14,-1
 195 565 l 1,15,-1
 290 705 l 1,12,-1
EndSplineSet
EndChar

StartChar: F
Encoding: 70 70 8
Width: 627
GlyphClass: 2
Flags: W
AnchorPoint: "Anchor-3" 314 705 basechar 0
AnchorPoint: "Anchor-2" 314 0 basechar 0
LayerCount: 2
Fore
SplineSet
100 705 m 1,0,-1
 290 705 l 1,1,-1
 290 0 l 1,2,-1
 100 0 l 1,3,-1
 100 705 l 1,0,-1
209 412 m 1,4,-1
 549 412 l 1,5,-1
 549 262 l 1,6,-1
 209 262 l 1,7,-1
 209 412 l 1,4,-1
290 705 m 1,8,-1
 572 705 l 1,9,-1
 572 555 l 1,10,-1
 237 555 l 1,11,-1
 290 705 l 1,8,-1
EndSplineSet
EndChar

StartChar: G
Encoding: 71 71 9
Width: 808
GlyphClass: 2
Flags: W
AnchorPoint: "Anchor-3" 396 705 basechar 0
AnchorPoint: "Anchor-2" 396 0 basechar 0
LayerCount: 2
Fore
SplineSet
203.5 32 m 128,-1,1
 135 79 135 79 97.5 162.5 c 128,-1,2
 60 246 60 246 60 353 c 0,3,4
 60 458 60 458 104.5 541.5 c 128,-1,5
 149 625 149 625 227.5 672.5 c 128,-1,6
 306 720 306 720 405 720 c 0,7,8
 489 720 489 720 554.5 693.5 c 128,-1,9
 620 667 620 667 660.5 621.5 c 128,-1,10
 701 576 701 576 714 520 c 1,11,-1
 512 520 l 1,12,13
 502 546 502 546 475 563 c 128,-1,14
 448 580 448 580 411 580 c 0,15,16
 367 580 367 580 332 556 c 128,-1,17
 297 532 297 532 276 481 c 128,-1,18
 255 430 255 430 255 353 c 0,19,20
 255 275 255 275 276.5 224 c 128,-1,21
 298 173 298 173 334.5 149 c 128,-1,22
 371 125 371 125 417 125 c 0,23,24
 470 125 470 125 513 158 c 128,-1,25
 556 191 556 191 562 255 c 1,26,-1
 375 255 l 1,27,-1
 375 390 l 1,28,-1
 723 390 l 1,29,-1
 723 0 l 1,30,-1
 563 0 l 1,31,-1
 563 97 l 1,32,-1
 558 97 l 1,33,34
 532 43 532 43 482.5 14 c 128,-1,35
 433 -15 433 -15 363 -15 c 0,36,0
 272 -15 272 -15 203.5 32 c 128,-1,1
EndSplineSet
EndChar

StartChar: H
Encoding: 72 72 10
Width: 819
GlyphClass: 2
Flags: W
AnchorPoint: "Anchor-3" 410 705 basechar 0
AnchorPoint: "Anchor-2" 410 0 basechar 0
LayerCount: 2
Fore
SplineSet
100 705 m 1,0,-1
 290 705 l 1,1,-1
 290 440 l 1,2,-1
 529 440 l 1,3,-1
 529 705 l 1,4,-1
 719 705 l 1,5,-1
 719 0 l 1,6,-1
 529 0 l 1,7,-1
 529 290 l 1,8,-1
 290 290 l 1,9,-1
 290 0 l 1,10,-1
 100 0 l 1,11,-1
 100 705 l 1,0,-1
EndSplineSet
EndChar

StartChar: I
Encoding: 73 73 11
Width: 390
GlyphClass: 2
Flags: W
AnchorPoint: "Anchor-4" 195 0 basechar 0
AnchorPoint: "Anchor-3" 195 705 basechar 0
AnchorPoint: "Anchor-2" 195 0 basechar 0
LayerCount: 2
Fore
SplineSet
100 705 m 1,0,-1
 290 705 l 1,1,-1
 290 0 l 1,2,-1
 100 0 l 1,3,-1
 100 705 l 1,0,-1
EndSplineSet
Substitution2: "'ss07' Style Set 7 in Latin lookup 31 subtable" I.ss07
Substitution2: "'aalt' Access All Alternates in Latin lookup 0 subtable" I.ss07
EndChar

StartChar: J
Encoding: 74 74 12
Width: 469
GlyphClass: 2
Flags: W
AnchorPoint: "Anchor-3" 289 705 basechar 0
AnchorPoint: "Anchor-2" 232 0 basechar 0
LayerCount: 2
Fore
SplineSet
30 1 m 1,1,-1
 30 151 l 1,2,3
 70 143 70 143 98 143 c 0,4,5
 141 143 141 143 167.5 162 c 128,-1,6
 194 181 194 181 194 225 c 2,7,-1
 194 705 l 1,8,-1
 384 705 l 1,9,-1
 384 224 l 2,10,11
 384 93 384 93 317.5 39 c 128,-1,12
 251 -15 251 -15 149 -15 c 0,13,0
 78 -15 78 -15 30 1 c 1,1,-1
EndSplineSet
Substitution2: "Single Substitution lookup 35 subtable" uni004A0301
Substitution2: "'aalt' Access All Alternates in Latin lookup 0 subtable" uni004A0301
EndChar

StartChar: K
Encoding: 75 75 13
Width: 771
GlyphClass: 2
Flags: W
AnchorPoint: "Anchor-3" 401 705 basechar 0
AnchorPoint: "Anchor-2" 402 0 basechar 0
LayerCount: 2
Fore
SplineSet
100 705 m 1,0,-1
 290 705 l 1,1,-1
 290 417 l 1,2,-1
 300 417 l 1,3,-1
 503 705 l 1,4,-1
 720 705 l 1,5,-1
 478 418 l 1,6,-1
 733 0 l 1,7,-1
 522 0 l 1,8,-1
 364 293 l 1,9,-1
 290 209 l 1,10,-1
 290 0 l 1,11,-1
 100 0 l 1,12,-1
 100 705 l 1,0,-1
EndSplineSet
EndChar

StartChar: L
Encoding: 76 76 14
Width: 585
GlyphClass: 2
Flags: W
AnchorPoint: "Anchor-3" 195 705 basechar 0
AnchorPoint: "Anchor-2" 333 0 basechar 0
LayerCount: 2
Fore
SplineSet
100 705 m 1,0,-1
 290 705 l 1,1,-1
 290 0 l 1,2,-1
 100 0 l 1,3,-1
 100 705 l 1,0,-1
190 150 m 1,4,-1
 555 150 l 1,5,-1
 555 0 l 1,6,-1
 290 0 l 1,7,-1
 190 150 l 1,4,-1
EndSplineSet
EndChar

StartChar: M
Encoding: 77 77 15
Width: 1003
GlyphClass: 2
Flags: W
AnchorPoint: "Anchor-3" 502 705 basechar 0
AnchorPoint: "Anchor-2" 502 0 basechar 0
LayerCount: 2
Fore
SplineSet
100 705 m 1,0,-1
 353 705 l 1,1,-1
 446 387 l 2,2,3
 455 353 455 353 459.5 337 c 128,-1,4
 464 321 464 321 473 288 c 0,5,6
 491 215 491 215 496 151 c 1,7,-1
 507 151 l 1,8,9
 512 207 512 207 523.5 258.5 c 128,-1,10
 535 310 535 310 557 387 c 2,11,-1
 650 705 l 1,12,-1
 903 705 l 1,13,-1
 903 0 l 1,14,-1
 730 0 l 1,15,-1
 730 298 l 2,16,17
 730 441 730 441 740 571 c 1,18,-1
 730 571 l 1,19,20
 717 471 717 471 704 409 c 256,21,22
 691 347 691 347 675 298 c 2,23,-1
 632 166 l 1,24,-1
 577 0 l 1,25,-1
 426 0 l 1,26,-1
 371 166 l 1,27,-1
 328 298 l 2,28,29
 309 356 309 356 296.5 420 c 128,-1,30
 284 484 284 484 273 571 c 1,31,-1
 263 571 l 1,32,33
 273 441 273 441 273 298 c 2,34,-1
 273 0 l 1,35,-1
 100 0 l 1,36,-1
 100 705 l 1,0,-1
EndSplineSet
EndChar

StartChar: N
Encoding: 78 78 16
Width: 846
GlyphClass: 2
Flags: W
AnchorPoint: "Anchor-3" 423 705 basechar 0
AnchorPoint: "Anchor-2" 423 0 basechar 0
LayerCount: 2
Fore
SplineSet
100 705 m 1,0,-1
 311 705 l 1,1,-1
 467 426 l 2,2,3
 505 358 505 358 527 310 c 128,-1,4
 549 262 549 262 566 206 c 1,5,-1
 576 206 l 1,6,7
 572 249 572 249 570 291.5 c 128,-1,8
 568 334 568 334 567 377 c 0,9,10
 566 395 566 395 566 430 c 2,11,-1
 566 705 l 1,12,-1
 746 705 l 1,13,-1
 746 0 l 1,14,-1
 535 0 l 1,15,-1
 374 279 l 2,16,17
 345 330 345 330 322 383 c 0,18,19
 309 411 309 411 299 439 c 128,-1,20
 289 467 289 467 280 499 c 1,21,-1
 270 499 l 1,22,23
 274 456 274 456 276.5 412.5 c 128,-1,24
 279 369 279 369 280 326 c 0,25,26
 280 301 280 301 280 275 c 2,27,-1
 280 0 l 1,28,-1
 100 0 l 1,29,-1
 100 705 l 1,0,-1
EndSplineSet
EndChar

StartChar: O
Encoding: 79 79 17
Width: 822
GlyphClass: 2
Flags: W
AnchorPoint: "Anchor-4" 527 0 basechar 0
AnchorPoint: "Anchor-3" 411 705 basechar 0
AnchorPoint: "Anchor-2" 411 0 basechar 0
LayerCount: 2
Fore
SplineSet
227.5 31.5 m 128,-1,1
 148 78 148 78 104 161 c 128,-1,2
 60 244 60 244 60 351 c 0,3,4
 60 459 60 459 104 543 c 128,-1,5
 148 627 148 627 227.5 673.5 c 128,-1,6
 307 720 307 720 411 720 c 256,7,8
 515 720 515 720 594.5 673.5 c 128,-1,9
 674 627 674 627 718 543 c 128,-1,10
 762 459 762 459 762 351 c 0,11,12
 762 244 762 244 718 161 c 128,-1,13
 674 78 674 78 594.5 31.5 c 128,-1,14
 515 -15 515 -15 411 -15 c 256,15,0
 307 -15 307 -15 227.5 31.5 c 128,-1,1
495 152 m 128,-1,17
 530 179 530 179 548.5 230 c 128,-1,18
 567 281 567 281 567 351 c 0,19,20
 567 422 567 422 548.5 473.5 c 128,-1,21
 530 525 530 525 495 552.5 c 128,-1,22
 460 580 460 580 411 580 c 256,23,24
 362 580 362 580 327 552.5 c 128,-1,25
 292 525 292 525 273.5 473.5 c 128,-1,26
 255 422 255 422 255 351 c 0,27,28
 255 281 255 281 273.5 230 c 128,-1,29
 292 179 292 179 327 152 c 128,-1,30
 362 125 362 125 411 125 c 256,31,16
 460 125 460 125 495 152 c 128,-1,17
EndSplineSet
Substitution2: "Single Substitution lookup 37 subtable" ordmasculine
Substitution2: "'aalt' Access All Alternates in Latin lookup 0 subtable" ordmasculine
EndChar

StartChar: P
Encoding: 80 80 18
Width: 692
GlyphClass: 2
Flags: W
AnchorPoint: "Anchor-3" 369 705 basechar 0
AnchorPoint: "Anchor-2" 369 0 basechar 0
LayerCount: 2
Fore
SplineSet
100 705 m 1,0,-1
 411 705 l 2,1,2
 475 705 475 705 534 677.5 c 128,-1,3
 593 650 593 650 630 595 c 128,-1,4
 667 540 667 540 667 463 c 256,5,6
 667 386 667 386 630 331 c 128,-1,7
 593 276 593 276 534 248.5 c 128,-1,8
 475 221 475 221 411 221 c 2,9,-1
 290 221 l 1,10,-1
 290 0 l 1,11,-1
 100 0 l 1,12,-1
 100 705 l 1,0,-1
444.5 388 m 128,-1,14
 472 413 472 413 472 463 c 256,15,16
 472 513 472 513 444.5 538 c 128,-1,17
 417 563 417 563 374 563 c 2,18,-1
 290 563 l 1,19,-1
 290 363 l 1,20,-1
 374 363 l 2,21,13
 417 363 417 363 444.5 388 c 128,-1,14
EndSplineSet
EndChar

StartChar: Q
Encoding: 81 81 19
Width: 822
GlyphClass: 2
Flags: W
AnchorPoint: "Anchor-4" 525 0 basechar 0
AnchorPoint: "Anchor-3" 414 705 basechar 0
AnchorPoint: "Anchor-2" 414 0 basechar 0
LayerCount: 2
Fore
SplineSet
227.5 31.5 m 128,-1,1
 148 78 148 78 104 161 c 128,-1,2
 60 244 60 244 60 351 c 0,3,4
 60 459 60 459 104 543 c 128,-1,5
 148 627 148 627 227.5 673.5 c 128,-1,6
 307 720 307 720 411 720 c 256,7,8
 515 720 515 720 594.5 673.5 c 128,-1,9
 674 627 674 627 718 543 c 128,-1,10
 762 459 762 459 762 351 c 0,11,12
 762 244 762 244 718 161 c 128,-1,13
 674 78 674 78 594.5 31.5 c 128,-1,14
 515 -15 515 -15 411 -15 c 256,15,0
 307 -15 307 -15 227.5 31.5 c 128,-1,1
313 297 m 1,16,-1
 493 297 l 1,17,-1
 783 -30 l 1,18,-1
 604 -30 l 1,19,-1
 313 297 l 1,16,-1
495 152 m 128,-1,21
 530 179 530 179 548.5 230 c 128,-1,22
 567 281 567 281 567 351 c 0,23,24
 567 422 567 422 548.5 473.5 c 128,-1,25
 530 525 530 525 495 552.5 c 128,-1,26
 460 580 460 580 411 580 c 256,27,28
 362 580 362 580 327 552.5 c 128,-1,29
 292 525 292 525 273.5 473.5 c 128,-1,30
 255 422 255 422 255 351 c 0,31,32
 255 281 255 281 273.5 230 c 128,-1,33
 292 179 292 179 327 152 c 128,-1,34
 362 125 362 125 411 125 c 256,35,20
 460 125 460 125 495 152 c 128,-1,21
EndSplineSet
Substitution2: "'ss04' Style Set 4 in Latin lookup 29 subtable" Q.ss04
Substitution2: "'aalt' Access All Alternates in Latin lookup 0 subtable" Q.ss04
EndChar

StartChar: R
Encoding: 82 82 20
Width: 747
GlyphClass: 2
Flags: W
AnchorPoint: "Anchor-3" 364 705 basechar 0
AnchorPoint: "Anchor-2" 364 0 basechar 0
LayerCount: 2
Fore
SplineSet
100 705 m 1,0,-1
 415 705 l 2,1,2
 524 705 524 705 588 652 c 128,-1,3
 652 599 652 599 652 509 c 0,4,5
 652 439 652 439 609.5 392 c 128,-1,6
 567 345 567 345 490 328 c 1,7,-1
 490 318 l 1,8,9
 554 309 554 309 586.5 282.5 c 128,-1,10
 619 256 619 256 633 201 c 2,11,-1
 663 80 l 2,12,13
 675 40 675 40 687 0 c 1,14,-1
 485 0 l 1,15,16
 479 14 479 14 474 33 c 0,17,18
 470 49 470 49 468.5 56.5 c 128,-1,19
 467 64 467 64 463 79 c 2,20,-1
 438 193 l 2,21,22
 431 227 431 227 414.5 242.5 c 128,-1,23
 398 258 398 258 365 258 c 2,24,-1
 290 258 l 1,25,-1
 290 0 l 1,26,-1
 100 0 l 1,27,-1
 100 705 l 1,0,-1
433 408 m 128,-1,29
 457 433 457 433 457 477 c 0,30,31
 457 520 457 520 433 545 c 128,-1,32
 409 570 409 570 368 570 c 2,33,-1
 290 570 l 1,34,-1
 290 383 l 1,35,-1
 368 383 l 2,36,28
 409 383 409 383 433 408 c 128,-1,29
EndSplineSet
EndChar

StartChar: S
Encoding: 83 83 21
Width: 679
GlyphClass: 2
Flags: W
AnchorPoint: "Anchor-3" 334 705 basechar 0
AnchorPoint: "Anchor-2" 334 0 basechar 0
LayerCount: 2
Fore
SplineSet
199.5 9.5 m 128,-1,1
 140 34 140 34 104.5 78 c 128,-1,2
 69 122 69 122 61 178 c 1,3,-1
 257 178 l 1,4,5
 262 159 262 159 274 145.5 c 128,-1,6
 286 132 286 132 304 125 c 128,-1,7
 322 118 322 118 344 118 c 0,8,9
 384 118 384 118 406 140.5 c 128,-1,10
 428 163 428 163 428 202 c 0,11,12
 428 231 428 231 412.5 247.5 c 128,-1,13
 397 264 397 264 365 271 c 2,14,-1
 233 300 l 2,15,16
 152 318 152 318 108.5 371 c 128,-1,17
 65 424 65 424 65 498 c 0,18,19
 65 564 65 564 99.5 614 c 128,-1,20
 134 664 134 664 195.5 692 c 128,-1,21
 257 720 257 720 336 720 c 0,22,23
 408 720 408 720 466.5 696 c 128,-1,24
 525 672 525 672 561.5 628.5 c 128,-1,25
 598 585 598 585 606 527 c 1,26,-1
 410 527 l 1,27,28
 403 555 403 555 382 571 c 128,-1,29
 361 587 361 587 330 587 c 0,30,31
 295 587 295 587 273 567 c 128,-1,32
 251 547 251 547 251 513 c 0,33,34
 251 488 251 488 265 472 c 128,-1,35
 279 456 279 456 311 448 c 2,36,-1
 445 416 l 2,37,38
 525 397 525 397 569 347.5 c 128,-1,39
 613 298 613 298 613 217 c 0,40,41
 613 144 613 144 577.5 91.5 c 128,-1,42
 542 39 542 39 479 12 c 128,-1,43
 416 -15 416 -15 334 -15 c 0,44,0
 259 -15 259 -15 199.5 9.5 c 128,-1,1
EndSplineSet
EndChar

StartChar: T
Encoding: 84 84 22
Width: 640
GlyphClass: 2
Flags: W
AnchorPoint: "Anchor-3" 320 705 basechar 0
AnchorPoint: "Anchor-2" 320 0 basechar 0
LayerCount: 2
Fore
SplineSet
225 645 m 1,0,-1
 415 645 l 1,1,-1
 415 0 l 1,2,-1
 225 0 l 1,3,-1
 225 645 l 1,0,-1
30 705 m 1,4,-1
 610 705 l 1,5,-1
 610 555 l 1,6,-1
 30 555 l 1,7,-1
 30 705 l 1,4,-1
EndSplineSet
EndChar

StartChar: U
Encoding: 85 85 23
Width: 766
GlyphClass: 2
Flags: W
AnchorPoint: "Anchor-4" 495 0 basechar 0
AnchorPoint: "Anchor-3" 383 705 basechar 0
AnchorPoint: "Anchor-2" 383 0 basechar 0
LayerCount: 2
Fore
SplineSet
225.5 17.5 m 128,-1,1
 158 50 158 50 121.5 109 c 128,-1,2
 85 168 85 168 85 246 c 2,3,-1
 85 705 l 1,4,-1
 275 705 l 1,5,-1
 275 254 l 2,6,7
 275 196 275 196 300 163 c 128,-1,8
 325 130 325 130 383 130 c 256,9,10
 441 130 441 130 466 163 c 128,-1,11
 491 196 491 196 491 254 c 2,12,-1
 491 705 l 1,13,-1
 681 705 l 1,14,-1
 681 246 l 2,15,16
 681 168 681 168 644.5 109 c 128,-1,17
 608 50 608 50 540.5 17.5 c 128,-1,18
 473 -15 473 -15 383 -15 c 256,19,0
 293 -15 293 -15 225.5 17.5 c 128,-1,1
EndSplineSet
EndChar

StartChar: V
Encoding: 86 86 24
Width: 747
GlyphClass: 2
Flags: W
AnchorPoint: "Anchor-3" 374 705 basechar 0
AnchorPoint: "Anchor-2" 374 0 basechar 0
LayerCount: 2
Fore
SplineSet
24 705 m 1,0,-1
 236 705 l 1,1,-1
 326 377 l 2,2,3
 338 334 338 334 352 270 c 0,4,5
 363 211 363 211 368 165 c 1,6,-1
 379 165 l 1,7,8
 388 235 388 235 401 295 c 0,9,10
 405 314 405 314 410 334.5 c 128,-1,11
 415 355 415 355 421 377 c 2,12,-1
 511 705 l 1,13,-1
 723 705 l 1,14,-1
 474 0 l 1,15,-1
 273 0 l 1,16,-1
 24 705 l 1,0,-1
EndSplineSet
EndChar

StartChar: W
Encoding: 87 87 25
Width: 1056
GlyphClass: 2
Flags: W
AnchorPoint: "Anchor-3" 528 705 basechar 0
AnchorPoint: "Anchor-2" 528 0 basechar 0
LayerCount: 2
Fore
SplineSet
37 705 m 1,0,-1
 238 705 l 1,1,-1
 295 365 l 2,2,3
 304 309 304 309 310.5 260.5 c 128,-1,4
 317 212 317 212 320 170 c 1,5,-1
 330 170 l 1,6,7
 335 218 335 218 342 258.5 c 128,-1,8
 349 299 349 299 363 366 c 2,9,-1
 434 705 l 1,10,-1
 622 705 l 1,11,-1
 693 366 l 2,12,13
 698 343 698 343 711 276 c 0,14,15
 720 231 720 231 726 170 c 1,16,-1
 736 170 l 1,17,18
 739 212 739 212 745.5 260.5 c 128,-1,19
 752 309 752 309 761 365 c 2,20,-1
 818 705 l 1,21,-1
 1019 705 l 1,22,-1
 828 0 l 1,23,-1
 638 0 l 1,24,-1
 561 348 l 2,25,26
 554 376 554 376 549 404 c 128,-1,27
 544 432 544 432 540 463 c 0,28,29
 538 479 538 479 536.5 496.5 c 128,-1,30
 535 514 535 514 533 534 c 1,31,-1
 523 534 l 1,32,33
 518 476 518 476 511.5 434 c 128,-1,34
 505 392 505 392 495 348 c 2,35,-1
 418 0 l 1,36,-1
 228 0 l 1,37,-1
 37 705 l 1,0,-1
EndSplineSet
EndChar

StartChar: X
Encoding: 88 88 26
Width: 831
GlyphClass: 2
Flags: W
AnchorPoint: "Anchor-3" 417 705 basechar 0
AnchorPoint: "Anchor-2" 417 0 basechar 0
LayerCount: 2
Fore
SplineSet
297 370 m 1,0,-1
 63 705 l 1,1,-1
 291 705 l 1,2,-1
 365 571 l 2,3,4
 371 558 371 558 378 544 c 128,-1,5
 385 530 385 530 391 515 c 0,6,7
 405 481 405 481 410 465 c 1,8,-1
 420 465 l 1,9,10
 438 521 438 521 465 571 c 2,11,-1
 539 705 l 1,12,-1
 772 705 l 1,13,-1
 539 375 l 1,14,-1
 793 0 l 1,15,-1
 562 0 l 1,16,-1
 471 163 l 2,17,18
 441 216 441 216 423 274 c 1,19,-1
 413 274 l 1,20,21
 408 257 408 257 401.5 240.5 c 128,-1,22
 395 224 395 224 387 208 c 0,23,24
 380 190 380 190 365 163 c 2,25,-1
 273 0 l 1,26,-1
 38 0 l 1,27,-1
 297 370 l 1,0,-1
EndSplineSet
EndChar

StartChar: Y
Encoding: 89 89 27
Width: 720
GlyphClass: 2
Flags: W
AnchorPoint: "Anchor-3" 360 705 basechar 0
AnchorPoint: "Anchor-2" 360 0 basechar 0
LayerCount: 2
Fore
SplineSet
265 271 m 1,0,-1
 19 705 l 1,1,-1
 234 705 l 1,2,-1
 312 529 l 2,3,4
 342 462 342 462 355 414 c 1,5,-1
 365 414 l 1,6,7
 373 447 373 447 388 483 c 0,8,9
 398 506 398 506 408 529 c 2,10,-1
 486 705 l 1,11,-1
 701 705 l 1,12,-1
 455 271 l 1,13,-1
 455 0 l 1,14,-1
 265 0 l 1,15,-1
 265 271 l 1,0,-1
EndSplineSet
EndChar

StartChar: Z
Encoding: 90 90 28
Width: 693
GlyphClass: 2
Flags: W
AnchorPoint: "Anchor-3" 363 705 basechar 0
AnchorPoint: "Anchor-2" 362 0 basechar 0
LayerCount: 2
Fore
SplineSet
60 155 m 1,0,-1
 406 550 l 1,1,-1
 406 560 l 1,2,-1
 78 560 l 1,3,-1
 78 705 l 1,4,-1
 618 705 l 1,5,-1
 618 550 l 1,6,-1
 272 155 l 1,7,-1
 272 145 l 1,8,-1
 633 145 l 1,9,-1
 633 0 l 1,10,-1
 60 0 l 1,11,-1
 60 155 l 1,0,-1
EndSplineSet
EndChar

StartChar: AE
Encoding: 198 198 34
Width: 1040
GlyphClass: 2
Flags: W
AnchorPoint: "Anchor-3" 682 705 basechar 0
AnchorPoint: "Anchor-2" 515 0 basechar 0
LayerCount: 2
Fore
SplineSet
405 705 m 1,0,-1
 508 705 l 1,1,-1
 552 565 l 1,2,-1
 498 565 l 1,3,4
 493 546 493 546 486 527 c 128,-1,5
 479 508 479 508 471 490 c 256,6,7
 463 472 463 472 454 454 c 2,8,-1
 235 0 l 1,9,-1
 24 0 l 1,10,-1
 405 705 l 1,0,-1
221 282 m 1,11,-1
 561 282 l 1,12,-1
 561 142 l 1,13,-1
 221 142 l 1,14,-1
 221 282 l 1,11,-1
608 141 m 1,15,-1
 970 141 l 1,16,-1
 970 0 l 1,17,-1
 693 0 l 1,18,-1
 608 141 l 1,15,-1
508 705 m 1,19,-1
 693 705 l 1,20,-1
 693 0 l 1,21,-1
 508 0 l 1,22,-1
 508 705 l 1,19,-1
608 431 m 1,23,-1
 947 431 l 1,24,-1
 947 291 l 1,25,-1
 608 291 l 1,26,-1
 608 431 l 1,23,-1
693 705 m 1,27,-1
 970 705 l 1,28,-1
 970 565 l 1,29,-1
 608 565 l 1,30,-1
 693 705 l 1,27,-1
EndSplineSet
EndChar

StartChar: Eth
Encoding: 208 208 59
Width: 785
GlyphClass: 2
Flags: W
AnchorPoint: "Anchor-3" 339 705 basechar 0
AnchorPoint: "Anchor-2" 389 0 basechar 0
LayerCount: 2
Fore
SplineSet
100 705 m 1,0,-1
 389 705 l 2,1,2
 479 705 479 705 556.5 659 c 128,-1,3
 634 613 634 613 679.5 532 c 128,-1,4
 725 451 725 451 725 352 c 256,5,6
 725 253 725 253 679.5 172.5 c 128,-1,7
 634 92 634 92 556.5 46 c 128,-1,8
 479 0 479 0 389 0 c 2,9,-1
 100 0 l 1,10,-1
 100 705 l 1,0,-1
445.5 173.5 m 128,-1,12
 483 197 483 197 506.5 242.5 c 128,-1,13
 530 288 530 288 530 352 c 256,14,15
 530 416 530 416 506.5 462 c 128,-1,16
 483 508 483 508 445.5 531.5 c 128,-1,17
 408 555 408 555 366 555 c 2,18,-1
 290 555 l 1,19,-1
 290 150 l 1,20,-1
 366 150 l 2,21,11
 408 150 408 150 445.5 173.5 c 128,-1,12
18 408 m 1,22,-1
 456 408 l 1,23,-1
 456 299 l 1,24,-1
 18 299 l 1,25,-1
 18 408 l 1,22,-1
EndSplineSet
EndChar

StartChar: Hbar
Encoding: 294 294 65
Width: 819
GlyphClass: 2
Flags: W
AnchorPoint: "Anchor-3" 410 705 basechar 0
AnchorPoint: "Anchor-2" 410 0 basechar 0
LayerCount: 2
Fore
SplineSet
100 705 m 1,0,-1
 290 705 l 1,1,-1
 290 440 l 1,2,-1
 529 440 l 1,3,-1
 529 705 l 1,4,-1
 719 705 l 1,5,-1
 719 0 l 1,6,-1
 529 0 l 1,7,-1
 529 290 l 1,8,-1
 290 290 l 1,9,-1
 290 0 l 1,10,-1
 100 0 l 1,11,-1
 100 705 l 1,0,-1
22 625 m 1,12,-1
 797 625 l 1,13,-1
 797 525 l 1,14,-1
 22 525 l 1,15,-1
 22 625 l 1,12,-1
EndSplineSet
EndChar

StartChar: Lcaron
Encoding: 317 317 82
Width: 585
GlyphClass: 2
Flags: W
AnchorPoint: "Anchor-3" 195 705 basechar 0
AnchorPoint: "Anchor-2" 333 0 basechar 0
LayerCount: 2
Fore
SplineSet
100 705 m 1,0,-1
 290 705 l 1,1,-1
 290 0 l 1,2,-1
 100 0 l 1,3,-1
 100 705 l 1,0,-1
190 150 m 1,4,-1
 555 150 l 1,5,-1
 555 0 l 1,6,-1
 290 0 l 1,7,-1
 190 150 l 1,4,-1
393 705 m 1,8,-1
 535 705 l 1,9,-1
 473 555 l 1,10,-1
 358 555 l 1,11,-1
 393 705 l 1,8,-1
EndSplineSet
EndChar

StartChar: Ldot
Encoding: 319 319 84
Width: 585
GlyphClass: 2
Flags: W
AnchorPoint: "Anchor-3" 195 705 basechar 0
AnchorPoint: "Anchor-2" 333 0 basechar 0
LayerCount: 2
Fore
SplineSet
100 705 m 1,0,-1
 290 705 l 1,1,-1
 290 0 l 1,2,-1
 100 0 l 1,3,-1
 100 705 l 1,0,-1
190 150 m 1,4,-1
 555 150 l 1,5,-1
 555 0 l 1,6,-1
 290 0 l 1,7,-1
 190 150 l 1,4,-1
396.5 327.5 m 128,-1,9
 369 355 369 355 369 394 c 256,10,11
 369 433 369 433 396.5 461 c 128,-1,12
 424 489 424 489 463 489 c 0,13,14
 501 489 501 489 529.5 460.5 c 128,-1,15
 558 432 558 432 558 394 c 0,16,17
 558 355 558 355 530 327.5 c 128,-1,18
 502 300 502 300 463 300 c 256,19,8
 424 300 424 300 396.5 327.5 c 128,-1,9
EndSplineSet
Ligature2: "Ligature Substitution lookup 34 subtable" L periodcentered
Substitution2: "'ss06' Style Set 6 in Latin lookup 30 subtable" Ldot.ss06
Substitution2: "'aalt' Access All Alternates in Latin lookup 0 subtable" Ldot.ss06
EndChar

StartChar: Lslash
Encoding: 321 321 85
Width: 585
GlyphClass: 2
Flags: W
AnchorPoint: "Anchor-3" 195 705 basechar 0
AnchorPoint: "Anchor-2" 333 0 basechar 0
LayerCount: 2
Fore
SplineSet
100 705 m 1,0,-1
 290 705 l 1,1,-1
 290 0 l 1,2,-1
 100 0 l 1,3,-1
 100 705 l 1,0,-1
190 150 m 1,4,-1
 555 150 l 1,5,-1
 555 0 l 1,6,-1
 290 0 l 1,7,-1
 190 150 l 1,4,-1
43 378 m 1,8,-1
 433 547 l 1,9,-1
 433 427 l 1,10,-1
 43 257 l 1,11,-1
 43 378 l 1,8,-1
EndSplineSet
EndChar

StartChar: Eng
Encoding: 330 330 90
Width: 846
GlyphClass: 2
Flags: W
AnchorPoint: "Anchor-3" 423 705 basechar 0
AnchorPoint: "Anchor-2" 423 0 basechar 0
LayerCount: 2
Fore
SplineSet
100 705 m 1,0,-1
 311 705 l 1,1,-1
 467 426 l 2,2,3
 505 358 505 358 527 310 c 128,-1,4
 549 262 549 262 566 206 c 1,5,-1
 576 206 l 1,6,7
 572 249 572 249 570 291.5 c 128,-1,8
 568 334 568 334 567 377 c 0,9,10
 566 395 566 395 566 430 c 2,11,-1
 566 705 l 1,12,-1
 746 705 l 1,13,-1
 746 0 l 1,14,-1
 535 0 l 1,15,-1
 374 279 l 2,16,17
 345 330 345 330 322 383 c 0,18,19
 309 411 309 411 299 439 c 128,-1,20
 289 467 289 467 280 499 c 1,21,-1
 270 499 l 1,22,23
 274 456 274 456 276.5 412.5 c 128,-1,24
 279 369 279 369 280 326 c 0,25,26
 280 301 280 301 280 275 c 2,27,-1
 280 0 l 1,28,-1
 100 0 l 1,29,-1
 100 705 l 1,0,-1
506 -173 m 1,31,-1
 506 -40 l 1,32,33
 516 -42 516 -42 530 -42 c 0,34,35
 547 -42 547 -42 556.5 -34.5 c 128,-1,36
 566 -27 566 -27 566 -12 c 2,37,-1
 566 14 l 1,38,-1
 746 14 l 1,39,-1
 746 -38 l 2,40,41
 746 -115 746 -115 702.5 -147.5 c 128,-1,42
 659 -180 659 -180 575 -180 c 0,43,30
 541 -180 541 -180 506 -173 c 1,31,-1
EndSplineSet
EndChar

StartChar: uni019D
Encoding: 413 413 91
Width: 846
GlyphClass: 2
Flags: W
AnchorPoint: "Anchor-3" 423 705 basechar 0
AnchorPoint: "Anchor-2" 423 0 basechar 0
LayerCount: 2
Fore
SplineSet
100 705 m 1,0,-1
 311 705 l 1,1,-1
 467 426 l 2,2,3
 505 358 505 358 527 310 c 128,-1,4
 549 262 549 262 566 206 c 1,5,-1
 576 206 l 1,6,7
 572 249 572 249 570 291.5 c 128,-1,8
 568 334 568 334 567 377 c 0,9,10
 566 395 566 395 566 430 c 2,11,-1
 566 705 l 1,12,-1
 746 705 l 1,13,-1
 746 0 l 1,14,-1
 535 0 l 1,15,-1
 374 279 l 2,16,17
 345 330 345 330 322 383 c 0,18,19
 309 411 309 411 299 439 c 128,-1,20
 289 467 289 467 280 499 c 1,21,-1
 270 499 l 1,22,23
 274 456 274 456 276.5 412.5 c 128,-1,24
 279 369 279 369 280 326 c 0,25,26
 280 301 280 301 280 275 c 2,27,-1
 280 0 l 1,28,-1
 100 0 l 1,29,-1
 100 705 l 1,0,-1
40 -173 m 1,31,-1
 40 -40 l 1,32,33
 50 -42 50 -42 64 -42 c 0,34,35
 81 -42 81 -42 90.5 -34.5 c 128,-1,36
 100 -27 100 -27 100 -12 c 2,37,-1
 100 14 l 1,38,-1
 280 14 l 1,39,-1
 280 -38 l 2,40,41
 280 -115 280 -115 236.5 -147.5 c 128,-1,42
 193 -180 193 -180 109 -180 c 0,43,30
 75 -180 75 -180 40 -173 c 1,31,-1
EndSplineSet
EndChar

StartChar: OE
Encoding: 338 338 97
Width: 998
GlyphClass: 2
Flags: W
AnchorPoint: "Anchor-3" 499 705 basechar 0
AnchorPoint: "Anchor-2" 499 0 basechar 0
LayerCount: 2
Fore
SplineSet
245.5 43.5 m 128,-1,1
 158 87 158 87 109 166.5 c 128,-1,2
 60 246 60 246 60 351 c 256,3,4
 60 456 60 456 108.5 536.5 c 128,-1,5
 157 617 157 617 244.5 661 c 128,-1,6
 332 705 332 705 446 705 c 2,7,-1
 466 705 l 1,8,-1
 514 570 l 1,9,-1
 444 570 l 2,10,11
 391 570 391 570 348 545 c 128,-1,12
 305 520 305 520 280 470.5 c 128,-1,13
 255 421 255 421 255 351 c 0,14,15
 255 282 255 282 280 233 c 128,-1,16
 305 184 305 184 348 159.5 c 128,-1,17
 391 135 391 135 444 135 c 2,18,-1
 514 135 l 1,19,-1
 466 0 l 1,20,-1
 446 0 l 2,21,0
 333 0 333 0 245.5 43.5 c 128,-1,1
587 140 m 1,22,-1
 928 140 l 1,23,-1
 928 0 l 1,24,-1
 656 0 l 1,25,-1
 587 140 l 1,22,-1
466 705 m 1,26,-1
 656 705 l 1,27,-1
 656 0 l 1,28,-1
 466 0 l 1,29,-1
 466 705 l 1,26,-1
551 430 m 1,30,-1
 905 430 l 1,31,-1
 905 290 l 1,32,-1
 551 290 l 1,33,-1
 551 430 l 1,30,-1
656 705 m 1,34,-1
 928 705 l 1,35,-1
 928 565 l 1,36,-1
 573 565 l 1,37,-1
 656 705 l 1,34,-1
EndSplineSet
EndChar

StartChar: Oslash
Encoding: 216 216 101
Width: 822
GlyphClass: 2
Flags: W
AnchorPoint: "Anchor-4" 527 0 basechar 0
AnchorPoint: "Anchor-3" 411 705 basechar 0
AnchorPoint: "Anchor-2" 411 0 basechar 0
LayerCount: 2
Fore
SplineSet
227.5 31.5 m 128,-1,1
 148 78 148 78 104 161 c 128,-1,2
 60 244 60 244 60 351 c 0,3,4
 60 459 60 459 104 543 c 128,-1,5
 148 627 148 627 227.5 673.5 c 128,-1,6
 307 720 307 720 411 720 c 256,7,8
 515 720 515 720 594.5 673.5 c 128,-1,9
 674 627 674 627 718 543 c 128,-1,10
 762 459 762 459 762 351 c 0,11,12
 762 244 762 244 718 161 c 128,-1,13
 674 78 674 78 594.5 31.5 c 128,-1,14
 515 -15 515 -15 411 -15 c 256,15,0
 307 -15 307 -15 227.5 31.5 c 128,-1,1
495 152 m 128,-1,17
 530 179 530 179 548.5 230 c 128,-1,18
 567 281 567 281 567 351 c 0,19,20
 567 422 567 422 548.5 473.5 c 128,-1,21
 530 525 530 525 495 552.5 c 128,-1,22
 460 580 460 580 411 580 c 256,23,24
 362 580 362 580 327 552.5 c 128,-1,25
 292 525 292 525 273.5 473.5 c 128,-1,26
 255 422 255 422 255 351 c 0,27,28
 255 281 255 281 273.5 230 c 128,-1,29
 292 179 292 179 327 152 c 128,-1,30
 362 125 362 125 411 125 c 256,31,16
 460 125 460 125 495 152 c 128,-1,17
665 718 m 1,32,-1
 789 718 l 1,33,-1
 156 -12 l 1,34,-1
 32 -12 l 1,35,-1
 665 718 l 1,32,-1
EndSplineSet
EndChar

StartChar: Oslashacute
Encoding: 510 510 102
Width: 822
GlyphClass: 2
Flags: W
AnchorPoint: "Anchor-4" 527 0 basechar 0
AnchorPoint: "Anchor-3" 464 930 basechar 0
AnchorPoint: "Anchor-2" 411 0 basechar 0
LayerCount: 2
Fore
SplineSet
227.5 31.5 m 128,-1,1
 148 78 148 78 104 161 c 128,-1,2
 60 244 60 244 60 351 c 0,3,4
 60 459 60 459 104 543 c 128,-1,5
 148 627 148 627 227.5 673.5 c 128,-1,6
 307 720 307 720 411 720 c 256,7,8
 515 720 515 720 594.5 673.5 c 128,-1,9
 674 627 674 627 718 543 c 128,-1,10
 762 459 762 459 762 351 c 0,11,12
 762 244 762 244 718 161 c 128,-1,13
 674 78 674 78 594.5 31.5 c 128,-1,14
 515 -15 515 -15 411 -15 c 256,15,0
 307 -15 307 -15 227.5 31.5 c 128,-1,1
495 152 m 128,-1,17
 530 179 530 179 548.5 230 c 128,-1,18
 567 281 567 281 567 351 c 0,19,20
 567 422 567 422 548.5 473.5 c 128,-1,21
 530 525 530 525 495 552.5 c 128,-1,22
 460 580 460 580 411 580 c 256,23,24
 362 580 362 580 327 552.5 c 128,-1,25
 292 525 292 525 273.5 473.5 c 128,-1,26
 255 422 255 422 255 351 c 0,27,28
 255 281 255 281 273.5 230 c 128,-1,29
 292 179 292 179 327 152 c 128,-1,30
 362 125 362 125 411 125 c 256,31,16
 460 125 460 125 495 152 c 128,-1,17
665 718 m 1,32,-1
 789 718 l 1,33,-1
 156 -12 l 1,34,-1
 32 -12 l 1,35,-1
 665 718 l 1,32,-1
419 930 m 1,36,-1
 617 930 l 1,37,-1
 492 775 l 1,38,-1
 330 775 l 1,39,-1
 419 930 l 1,36,-1
EndSplineSet
EndChar

StartChar: Tbar
Encoding: 358 358 112
Width: 640
GlyphClass: 2
Flags: W
AnchorPoint: "Anchor-3" 320 705 basechar 0
AnchorPoint: "Anchor-2" 320 0 basechar 0
LayerCount: 2
Fore
SplineSet
225 645 m 1,0,-1
 415 645 l 1,1,-1
 415 0 l 1,2,-1
 225 0 l 1,3,-1
 225 645 l 1,0,-1
30 705 m 1,4,-1
 610 705 l 1,5,-1
 610 555 l 1,6,-1
 30 555 l 1,7,-1
 30 705 l 1,4,-1
99 368 m 1,8,-1
 537 368 l 1,9,-1
 537 259 l 1,10,-1
 99 259 l 1,11,-1
 99 368 l 1,8,-1
EndSplineSet
EndChar

StartChar: Thorn
Encoding: 222 222 116
Width: 700
GlyphClass: 2
Flags: W
AnchorPoint: "Anchor-3" 368 705 basechar 0
AnchorPoint: "Anchor-2" 368 0 basechar 0
LayerCount: 2
Fore
SplineSet
100 705 m 1,0,-1
 290 705 l 1,1,-1
 290 595 l 1,2,-1
 413 595 l 2,3,4
 482 595 482 595 542 569 c 128,-1,5
 602 543 602 543 638.5 491.5 c 128,-1,6
 675 440 675 440 675 366 c 256,7,8
 675 292 675 292 638.5 240 c 128,-1,9
 602 188 602 188 542 162 c 128,-1,10
 482 136 482 136 413 136 c 2,11,-1
 290 136 l 1,12,-1
 290 0 l 1,13,-1
 100 0 l 1,14,-1
 100 705 l 1,0,-1
457.5 305.5 m 128,-1,16
 480 325 480 325 480 366 c 0,17,18
 480 408 480 408 458 426.5 c 128,-1,19
 436 445 436 445 395 445 c 2,20,-1
 290 445 l 1,21,-1
 290 286 l 1,22,-1
 395 286 l 2,23,15
 435 286 435 286 457.5 305.5 c 128,-1,16
EndSplineSet
EndChar

StartChar: uni1E9E
Encoding: 7838 7838 142
Width: 795
GlyphClass: 1
Flags: W
LayerCount: 2
Fore
SplineSet
412 -10.5 m 128,-1,1
 378 -6 378 -6 359 1 c 1,2,-1
 359 150 l 1,3,4
 382 143 382 143 405.5 139 c 128,-1,5
 429 135 429 135 449 135 c 0,6,7
 494 135 494 135 514.5 160.5 c 128,-1,8
 535 186 535 186 535 227 c 0,9,10
 535 262 535 262 516.5 281.5 c 128,-1,11
 498 301 498 301 463 301 c 2,12,-1
 384 301 l 1,13,-1
 384 438 l 1,14,-1
 472 555 l 1,15,-1
 472 565 l 1,16,-1
 290 565 l 1,17,-1
 290 0 l 1,18,-1
 100 0 l 1,19,-1
 100 705 l 1,20,-1
 663 705 l 1,21,-1
 663 548 l 1,22,-1
 579 437 l 1,23,-1
 579 427 l 1,24,-1
 579 427 l 1,25,26
 647 418 647 418 688.5 365 c 128,-1,27
 730 312 730 312 730 223 c 0,28,29
 730 159 730 159 702.5 104.5 c 128,-1,30
 675 50 675 50 619 17.5 c 128,-1,31
 563 -15 563 -15 483 -15 c 0,32,0
 446 -15 446 -15 412 -10.5 c 128,-1,1
EndSplineSet
EndChar

StartChar: uni018F
Encoding: 399 399 143
Width: 848
GlyphClass: 2
Flags: W
AnchorPoint: "Anchor-3" 427 705 basechar 0
AnchorPoint: "Anchor-2" 427 0 basechar 0
LayerCount: 2
Fore
SplineSet
233 32 m 128,-1,1
 150 79 150 79 105 162.5 c 128,-1,2
 60 246 60 246 60 351 c 0,3,4
 60 381 60 381 64 397 c 1,5,-1
 602 397 l 1,6,-1
 602 277 l 1,7,-1
 266 277 l 1,8,9
 269 226 269 226 291 192 c 128,-1,10
 313 158 313 158 347.5 141.5 c 128,-1,11
 382 125 382 125 424 125 c 0,12,13
 477 125 477 125 515 150.5 c 128,-1,14
 553 176 553 176 573 227.5 c 128,-1,15
 593 279 593 279 593 353 c 1,16,-1
 593 353 l 1,17,18
 593 427 593 427 572 478 c 128,-1,19
 551 529 551 529 511 554.5 c 128,-1,20
 471 580 471 580 416 580 c 0,21,22
 366 580 366 580 331 556 c 128,-1,23
 296 532 296 532 281 493 c 1,24,-1
 82 493 l 1,25,26
 97 558 97 558 141.5 609.5 c 128,-1,27
 186 661 186 661 256.5 690.5 c 128,-1,28
 327 720 327 720 416 720 c 0,29,30
 527 720 527 720 611.5 674.5 c 128,-1,31
 696 629 696 629 742 545.5 c 128,-1,32
 788 462 788 462 788 352 c 0,33,34
 788 243 788 243 741.5 159.5 c 128,-1,35
 695 76 695 76 612 30.5 c 128,-1,36
 529 -15 529 -15 424 -15 c 0,37,0
 316 -15 316 -15 233 32 c 128,-1,1
EndSplineSet
EndChar

StartChar: a
Encoding: 97 97 144
Width: 617
GlyphClass: 2
Flags: W
AnchorPoint: "Anchor-4" 484 0 basechar 0
AnchorPoint: "Anchor-3" 310 515 basechar 0
AnchorPoint: "Anchor-2" 310 0 basechar 0
LayerCount: 2
Fore
SplineSet
96 26.5 m 128,-1,1
 50 68 50 68 50 136 c 0,2,3
 50 201 50 201 89 240.5 c 128,-1,4
 128 280 128 280 207 298 c 2,5,-1
 303 321 l 2,6,7
 333 328 333 328 345 339 c 128,-1,8
 357 350 357 350 357 374 c 0,9,10
 357 396 357 396 343 409 c 128,-1,11
 329 422 329 422 306 422 c 0,12,13
 281 422 281 422 266 408 c 128,-1,14
 251 394 251 394 249 371 c 1,15,-1
 64 371 l 1,16,17
 70 421 70 421 100.5 457 c 128,-1,18
 131 493 131 493 184 511.5 c 128,-1,19
 237 530 237 530 308 530 c 0,20,21
 416 530 416 530 475.5 483 c 128,-1,22
 535 436 535 436 535 351 c 2,23,-1
 535 149 l 2,24,25
 535 139 535 139 540 134 c 128,-1,26
 545 129 545 129 555 129 c 0,27,28
 561 129 561 129 572 131 c 1,29,-1
 572 4 l 1,30,31
 547 -4 547 -4 529.5 -7 c 128,-1,32
 512 -10 512 -10 491 -10 c 0,33,34
 440 -10 440 -10 410.5 9 c 128,-1,35
 381 28 381 28 373 66 c 1,36,-1
 363 66 l 1,37,38
 342 26 342 26 304.5 5.5 c 128,-1,39
 267 -15 267 -15 216 -15 c 0,40,0
 142 -15 142 -15 96 26.5 c 128,-1,1
340.5 123 m 128,-1,42
 357 143 357 143 357 182 c 2,43,-1
 357 256 l 1,44,45
 352 251 352 251 340.5 246 c 128,-1,46
 329 241 329 241 315 237 c 2,47,-1
 287 229 l 2,48,49
 261 222 261 222 247.5 204 c 128,-1,50
 234 186 234 186 234 161 c 256,51,52
 234 136 234 136 250.5 119.5 c 128,-1,53
 267 103 267 103 292 103 c 0,54,41
 324 103 324 103 340.5 123 c 128,-1,42
EndSplineSet
Substitution2: "Single Substitution lookup 37 subtable" ordfeminine
Substitution2: "'ss01' Style Set 1 in Latin lookup 26 subtable" a.ss01
AlternateSubs2: "'aalt' Access All Alternates in Latin lookup 1 subtable" ordfeminine a.ss01
EndChar

StartChar: b
Encoding: 98 98 145
Width: 662
GlyphClass: 2
Flags: W
AnchorPoint: "Anchor-3" 346 515 basechar 0
AnchorPoint: "Anchor-2" 346 0 basechar 0
LayerCount: 2
Fore
SplineSet
324 9.5 m 128,-1,1
 284 34 284 34 262 78 c 1,2,-1
 252 78 l 1,3,-1
 252 0 l 1,4,-1
 82 0 l 1,5,-1
 82 735 l 1,6,-1
 262 735 l 1,7,-1
 262 438 l 1,8,-1
 272 438 l 1,9,10
 292 481 292 481 330.5 505.5 c 128,-1,11
 369 530 369 530 422 530 c 0,12,13
 476 530 476 530 519 500 c 128,-1,14
 562 470 562 470 587 409 c 128,-1,15
 612 348 612 348 612 258 c 0,16,17
 612 167 612 167 587.5 106 c 128,-1,18
 563 45 563 45 520 15 c 128,-1,19
 477 -15 477 -15 422 -15 c 0,20,0
 364 -15 364 -15 324 9.5 c 128,-1,1
404 146 m 128,-1,22
 427 182 427 182 427 258 c 0,23,24
 427 333 427 333 404 369 c 128,-1,25
 381 405 381 405 342 405 c 0,26,27
 317 405 317 405 298 390 c 128,-1,28
 279 375 279 375 268 342 c 128,-1,29
 257 309 257 309 257 258 c 256,30,31
 257 207 257 207 268 174 c 128,-1,32
 279 141 279 141 298 125.5 c 128,-1,33
 317 110 317 110 342 110 c 0,34,21
 381 110 381 110 404 146 c 128,-1,22
EndSplineSet
EndChar

StartChar: c
Encoding: 99 99 146
Width: 599
GlyphClass: 2
Flags: W
AnchorPoint: "Anchor-3" 316 515 basechar 0
AnchorPoint: "Anchor-2" 316 0 basechar 0
LayerCount: 2
Fore
SplineSet
171.5 18 m 128,-1,1
 111 51 111 51 78.5 112.5 c 128,-1,2
 46 174 46 174 46 258 c 1,3,-1
 46 258 l 1,4,5
 46 341 46 341 78.5 402.5 c 128,-1,6
 111 464 111 464 171.5 497 c 128,-1,7
 232 530 232 530 314 530 c 0,8,9
 379 530 379 530 431.5 508 c 128,-1,10
 484 486 484 486 516.5 446 c 128,-1,11
 549 406 549 406 556 354 c 1,12,-1
 371 354 l 1,13,14
 366 379 366 379 350.5 392 c 128,-1,15
 335 405 335 405 310 405 c 0,16,17
 271 405 271 405 251.5 368.5 c 128,-1,18
 232 332 232 332 232 258 c 1,19,-1
 232 258 l 1,20,21
 232 185 232 185 252 147.5 c 128,-1,22
 272 110 272 110 311 110 c 0,23,24
 335 110 335 110 350.5 123.5 c 128,-1,25
 366 137 366 137 372 163 c 1,26,-1
 557 163 l 1,27,28
 550 110 550 110 517.5 69.5 c 128,-1,29
 485 29 485 29 432.5 7 c 128,-1,30
 380 -15 380 -15 315 -15 c 0,31,0
 232 -15 232 -15 171.5 18 c 128,-1,1
EndSplineSet
EndChar

StartChar: d
Encoding: 100 100 147
Width: 662
GlyphClass: 2
Flags: W
AnchorPoint: "Anchor-3" 368 735 basechar 0
AnchorPoint: "Anchor-2" 368 0 basechar 0
LayerCount: 2
Fore
SplineSet
142 15 m 128,-1,1
 99 45 99 45 74.5 106 c 128,-1,2
 50 167 50 167 50 258 c 0,3,4
 50 348 50 348 75 409 c 128,-1,5
 100 470 100 470 143 500 c 128,-1,6
 186 530 186 530 240 530 c 0,7,8
 293 530 293 530 331.5 505.5 c 128,-1,9
 370 481 370 481 390 438 c 1,10,-1
 400 438 l 1,11,-1
 400 735 l 1,12,-1
 580 735 l 1,13,-1
 580 0 l 1,14,-1
 410 0 l 1,15,-1
 410 78 l 1,16,-1
 400 78 l 1,17,18
 378 34 378 34 338 9.5 c 128,-1,19
 298 -15 298 -15 240 -15 c 0,20,0
 185 -15 185 -15 142 15 c 128,-1,1
364 125.5 m 128,-1,22
 383 141 383 141 394 174 c 128,-1,23
 405 207 405 207 405 258 c 256,24,25
 405 309 405 309 394 342 c 128,-1,26
 383 375 383 375 364 390 c 128,-1,27
 345 405 345 405 320 405 c 0,28,29
 281 405 281 405 258 369 c 128,-1,30
 235 333 235 333 235 258 c 0,31,32
 235 182 235 182 258 146 c 128,-1,33
 281 110 281 110 320 110 c 0,34,21
 345 110 345 110 364 125.5 c 128,-1,22
EndSplineSet
EndChar

StartChar: e
Encoding: 101 101 148
Width: 610
GlyphClass: 2
Flags: W
AnchorPoint: "Anchor-4" 392 0 basechar 0
AnchorPoint: "Anchor-3" 304 515 basechar 0
AnchorPoint: "Anchor-2" 304 0 basechar 0
LayerCount: 2
Fore
SplineSet
170 18.5 m 128,-1,1
 110 52 110 52 78 114 c 128,-1,2
 46 176 46 176 46 259 c 0,3,4
 46 338 46 338 79 399.5 c 128,-1,5
 112 461 112 461 171 495.5 c 128,-1,6
 230 530 230 530 305 530 c 0,7,8
 382 530 382 530 441.5 497.5 c 128,-1,9
 501 465 501 465 533.5 406.5 c 128,-1,10
 566 348 566 348 566 272 c 1,11,-1
 566 272 l 1,12,13
 566 243 566 243 560 217 c 1,14,-1
 123 217 l 1,15,-1
 123 310 l 1,16,-1
 382 310 l 1,17,18
 382 370 382 370 362 402 c 128,-1,19
 342 434 342 434 304 434 c 256,20,21
 266 434 266 434 246 402 c 128,-1,22
 226 370 226 370 226 310 c 2,23,-1
 226 218 l 2,24,25
 226 159 226 159 248.5 128 c 128,-1,26
 271 97 271 97 314 97 c 0,27,28
 333 97 333 97 348 104.5 c 128,-1,29
 363 112 363 112 371 125 c 1,30,-1
 557 125 l 1,31,32
 538 60 538 60 472 22.5 c 128,-1,33
 406 -15 406 -15 310 -15 c 0,34,0
 230 -15 230 -15 170 18.5 c 128,-1,1
EndSplineSet
EndChar

StartChar: f
Encoding: 102 102 149
Width: 416
GlyphClass: 2
Flags: W
AnchorPoint: "Anchor-3" 209 735 basechar 0
AnchorPoint: "Anchor-2" 209 0 basechar 0
LayerCount: 2
Fore
SplineSet
163 702 m 128,-1,1
 214 750 214 750 308 750 c 2,2,-1
 371 750 l 1,3,-1
 371 620 l 1,4,-1
 340 620 l 2,5,6
 316 620 316 620 304 605 c 128,-1,7
 292 590 292 590 292 560 c 2,8,-1
 292 0 l 1,9,-1
 112 0 l 1,10,-1
 112 566 l 2,11,0
 112 654 112 654 163 702 c 128,-1,1
45 515 m 1,12,-1
 371 515 l 1,13,-1
 371 385 l 1,14,-1
 45 385 l 1,15,-1
 45 515 l 1,12,-1
EndSplineSet
EndChar

StartChar: g
Encoding: 103 103 150
Width: 704
GlyphClass: 2
Flags: W
AnchorPoint: "Anchor-3" 347 515 basechar 0
AnchorPoint: "Anchor-2" 347 -165 basechar 0
LayerCount: 2
Fore
SplineSet
107.5 -150 m 128,-1,1
 30 -120 30 -120 30 -56 c 0,2,3
 30 -19 30 -19 52 0.5 c 128,-1,4
 74 20 74 20 118 25 c 1,5,-1
 118 35 l 1,6,-1
 248 21 l 1,7,8
 219 21 219 21 205 11.5 c 128,-1,9
 191 2 191 2 191 -14 c 0,10,11
 191 -40 191 -40 224 -50.5 c 128,-1,12
 257 -61 257 -61 329 -61 c 0,13,14
 404 -61 404 -61 441.5 -49 c 128,-1,15
 479 -37 479 -37 479 -10 c 0,16,17
 479 0 479 0 473 5.5 c 128,-1,18
 467 11 467 11 453 11 c 2,19,-1
 235 11 l 2,20,21
 177 11 177 11 137 25.5 c 128,-1,22
 97 40 97 40 76.5 63.5 c 128,-1,23
 56 87 56 87 56 115 c 0,24,25
 56 149 56 149 78 172.5 c 128,-1,26
 100 196 100 196 141 203 c 1,27,-1
 141 213 l 1,28,-1
 245 187 l 1,29,30
 227 184 227 184 218 176.5 c 128,-1,31
 209 169 209 169 209 156 c 256,32,33
 209 143 209 143 219.5 135.5 c 128,-1,34
 230 128 230 128 252 128 c 2,35,-1
 483 128 l 2,36,37
 558 128 558 128 599 96.5 c 128,-1,38
 640 65 640 65 640 0 c 0,39,40
 640 -92 640 -92 558.5 -136 c 128,-1,41
 477 -180 477 -180 324 -180 c 0,42,0
 185 -180 185 -180 107.5 -150 c 128,-1,1
137 215.5 m 128,-1,44
 70 262 70 262 70 345 c 0,45,46
 70 432 70 432 137 481 c 128,-1,47
 204 530 204 530 320 530 c 256,48,49
 436 530 436 530 503.5 481 c 128,-1,50
 571 432 571 432 571 345 c 0,51,52
 571 262 571 262 503.5 215.5 c 128,-1,53
 436 169 436 169 320 169 c 256,54,43
 204 169 204 169 137 215.5 c 128,-1,44
368 293 m 128,-1,56
 386 312 386 312 386 350 c 0,57,58
 386 386 386 386 368 405.5 c 128,-1,59
 350 425 350 425 320 425 c 0,60,61
 292 425 292 425 273.5 405.5 c 128,-1,62
 255 386 255 386 255 350 c 0,63,64
 255 313 255 313 273.5 293.5 c 128,-1,65
 292 274 292 274 320 274 c 0,66,55
 350 274 350 274 368 293 c 128,-1,56
631 392 m 0,68,69
 598 392 598 392 584.5 378.5 c 128,-1,70
 571 365 571 365 571 345 c 1,71,-1
 571 345 l 1,72,-1
 541 443 l 1,73,-1
 551 443 l 1,74,75
 555 489 555 489 576.5 509.5 c 128,-1,76
 598 530 598 530 628 530 c 0,77,78
 651 530 651 530 664 526 c 1,79,-1
 664 389 l 1,80,67
 649 392 649 392 631 392 c 0,68,69
EndSplineSet
Substitution2: "'ss02' Style Set 2 in Latin lookup 27 subtable" g.ss02
Substitution2: "'aalt' Access All Alternates in Latin lookup 0 subtable" g.ss02
EndChar

StartChar: h
Encoding: 104 104 151
Width: 658
GlyphClass: 2
Flags: W
AnchorPoint: "Anchor-3" 332 705 basechar 0
AnchorPoint: "Anchor-2" 333 0 basechar 0
LayerCount: 2
Fore
SplineSet
82 735 m 1,0,-1
 263 735 l 1,1,-1
 263 446 l 1,2,-1
 273 446 l 1,3,4
 294 489 294 489 333.5 509.5 c 128,-1,5
 373 530 373 530 420 530 c 0,6,7
 492 530 492 530 536.5 481.5 c 128,-1,8
 581 433 581 433 581 337 c 2,9,-1
 581 0 l 1,10,-1
 401 0 l 1,11,-1
 401 325 l 2,12,13
 401 359 401 359 384.5 379 c 128,-1,14
 368 399 368 399 335 399 c 0,15,16
 301 399 301 399 281.5 378 c 128,-1,17
 262 357 262 357 262 318 c 2,18,-1
 262 0 l 1,19,-1
 82 0 l 1,20,-1
 82 735 l 1,0,-1
EndSplineSet
EndChar

StartChar: k
Encoding: 107 107 154
Width: 652
GlyphClass: 2
Flags: W
AnchorPoint: "Anchor-3" 332 735 basechar 0
AnchorPoint: "Anchor-2" 332 0 basechar 0
LayerCount: 2
Fore
SplineSet
82 735 m 1,0,-1
 262 735 l 1,1,-1
 262 337 l 1,2,-1
 272 337 l 1,3,-1
 412 515 l 1,4,-1
 620 515 l 1,5,-1
 418 313 l 1,6,-1
 636 0 l 1,7,-1
 440 0 l 1,8,-1
 298 233 l 1,9,-1
 262 194 l 1,10,-1
 262 0 l 1,11,-1
 82 0 l 1,12,-1
 82 735 l 1,0,-1
EndSplineSet
EndChar

StartChar: l
Encoding: 108 108 155
Width: 344
GlyphClass: 2
Flags: W
AnchorPoint: "Anchor-3" 172 705 basechar 0
AnchorPoint: "Anchor-2" 172 0 basechar 0
LayerCount: 2
Fore
SplineSet
82 735 m 1,0,-1
 262 735 l 1,1,-1
 262 0 l 1,2,-1
 82 0 l 1,3,-1
 82 735 l 1,0,-1
EndSplineSet
Substitution2: "'ss07' Style Set 7 in Latin lookup 31 subtable" l.ss07
Substitution2: "'aalt' Access All Alternates in Latin lookup 0 subtable" l.ss07
EndChar

StartChar: m
Encoding: 109 109 156
Width: 925
GlyphClass: 2
Flags: W
AnchorPoint: "Anchor-3" 479 515 basechar 0
AnchorPoint: "Anchor-2" 479 0 basechar 0
LayerCount: 2
Fore
SplineSet
82 515 m 1,0,-1
 252 515 l 1,1,-1
 252 436 l 1,2,-1
 262 436 l 1,3,4
 280 483 280 483 315 506.5 c 128,-1,5
 350 530 350 530 401 530 c 0,6,7
 453 530 453 530 487 508 c 128,-1,8
 521 486 521 486 540 441 c 1,9,-1
 550 441 l 1,10,11
 568 485 568 485 604.5 507.5 c 128,-1,12
 641 530 641 530 693 530 c 0,13,14
 769 530 769 530 808.5 483 c 128,-1,15
 848 436 848 436 848 347 c 2,16,-1
 848 0 l 1,17,-1
 668 0 l 1,18,-1
 668 326 l 2,19,20
 668 362 668 362 654 380.5 c 128,-1,21
 640 399 640 399 614 399 c 0,22,23
 585 399 585 399 570 377.5 c 128,-1,24
 555 356 555 356 555 316 c 2,25,-1
 555 0 l 1,26,-1
 375 0 l 1,27,-1
 375 326 l 2,28,29
 375 362 375 362 361 380.5 c 128,-1,30
 347 399 347 399 319 399 c 256,31,32
 291 399 291 399 276.5 377.5 c 128,-1,33
 262 356 262 356 262 316 c 2,34,-1
 262 0 l 1,35,-1
 82 0 l 1,36,-1
 82 515 l 1,0,-1
EndSplineSet
EndChar

StartChar: n
Encoding: 110 110 157
Width: 658
GlyphClass: 2
Flags: W
AnchorPoint: "Anchor-3" 329 515 basechar 0
AnchorPoint: "Anchor-2" 329 0 basechar 0
LayerCount: 2
Fore
SplineSet
82 515 m 1,0,-1
 252 515 l 1,1,-1
 252 436 l 1,2,-1
 262 436 l 1,3,4
 282 485 282 485 323 507.5 c 128,-1,5
 364 530 364 530 415 530 c 0,6,7
 491 530 491 530 536 481.5 c 128,-1,8
 581 433 581 433 581 337 c 2,9,-1
 581 0 l 1,10,-1
 401 0 l 1,11,-1
 401 325 l 2,12,13
 401 359 401 359 384.5 379 c 128,-1,14
 368 399 368 399 335 399 c 0,15,16
 301 399 301 399 281.5 378 c 128,-1,17
 262 357 262 357 262 318 c 2,18,-1
 262 0 l 1,19,-1
 82 0 l 1,20,-1
 82 515 l 1,0,-1
EndSplineSet
EndChar

StartChar: o
Encoding: 111 111 158
Width: 630
GlyphClass: 2
Flags: W
AnchorPoint: "Anchor-4" 427 0 basechar 0
AnchorPoint: "Anchor-3" 315 515 basechar 0
AnchorPoint: "Anchor-2" 315 0 basechar 0
LayerCount: 2
Fore
SplineSet
171.5 19 m 128,-1,1
 111 53 111 53 78.5 114.5 c 128,-1,2
 46 176 46 176 46 258 c 0,3,4
 46 339 46 339 78.5 400.5 c 128,-1,5
 111 462 111 462 171.5 496 c 128,-1,6
 232 530 232 530 315 530 c 256,7,8
 398 530 398 530 458.5 496 c 128,-1,9
 519 462 519 462 551.5 400.5 c 128,-1,10
 584 339 584 339 584 258 c 0,11,12
 584 176 584 176 551.5 114.5 c 128,-1,13
 519 53 519 53 458.5 19 c 128,-1,14
 398 -15 398 -15 315 -15 c 256,15,0
 232 -15 232 -15 171.5 19 c 128,-1,1
377.5 147 m 128,-1,17
 399 184 399 184 399 258 c 0,18,19
 399 331 399 331 377.5 368 c 128,-1,20
 356 405 356 405 315 405 c 256,21,22
 274 405 274 405 252.5 368 c 128,-1,23
 231 331 231 331 231 258 c 0,24,25
 231 184 231 184 252.5 147 c 128,-1,26
 274 110 274 110 315 110 c 256,27,16
 356 110 356 110 377.5 147 c 128,-1,17
EndSplineSet
Substitution2: "Single Substitution lookup 37 subtable" ordmasculine
Substitution2: "'aalt' Access All Alternates in Latin lookup 0 subtable" ordmasculine
EndChar

StartChar: p
Encoding: 112 112 159
Width: 662
GlyphClass: 2
Flags: W
AnchorPoint: "Anchor-3" 350 515 basechar 0
AnchorPoint: "Anchor-2" 350 0 basechar 0
LayerCount: 2
Fore
SplineSet
82 515 m 1,0,-1
 252 515 l 1,1,-1
 252 437 l 1,2,-1
 262 437 l 1,3,4
 284 481 284 481 324 505.5 c 128,-1,5
 364 530 364 530 422 530 c 0,6,7
 477 530 477 530 520 500 c 128,-1,8
 563 470 563 470 587.5 409 c 128,-1,9
 612 348 612 348 612 257 c 0,10,11
 612 167 612 167 587 106 c 128,-1,12
 562 45 562 45 519 15 c 128,-1,13
 476 -15 476 -15 422 -15 c 0,14,15
 369 -15 369 -15 330.5 9.5 c 128,-1,16
 292 34 292 34 272 77 c 1,17,-1
 262 77 l 1,18,-1
 262 -165 l 1,19,-1
 82 -165 l 1,20,-1
 82 515 l 1,0,-1
404 146 m 128,-1,22
 427 182 427 182 427 257 c 0,23,24
 427 333 427 333 404 369 c 128,-1,25
 381 405 381 405 342 405 c 0,26,27
 317 405 317 405 298 389.5 c 128,-1,28
 279 374 279 374 268 341 c 128,-1,29
 257 308 257 308 257 257 c 256,30,31
 257 206 257 206 268 173 c 128,-1,32
 279 140 279 140 298 125 c 128,-1,33
 317 110 317 110 342 110 c 0,34,21
 381 110 381 110 404 146 c 128,-1,22
EndSplineSet
EndChar

StartChar: q
Encoding: 113 113 160
Width: 662
GlyphClass: 2
Flags: W
AnchorPoint: "Anchor-3" 363 515 basechar 0
AnchorPoint: "Anchor-2" 363 0 basechar 0
LayerCount: 2
Fore
SplineSet
400 -165 m 1,0,-1
 400 77 l 1,1,-1
 390 77 l 1,2,3
 370 34 370 34 331.5 9.5 c 128,-1,4
 293 -15 293 -15 240 -15 c 0,5,6
 186 -15 186 -15 143 15 c 128,-1,7
 100 45 100 45 75 106 c 128,-1,8
 50 167 50 167 50 257 c 0,9,10
 50 348 50 348 74.5 409 c 128,-1,11
 99 470 99 470 142 500 c 128,-1,12
 185 530 185 530 240 530 c 0,13,14
 298 530 298 530 338 505.5 c 128,-1,15
 378 481 378 481 400 437 c 1,16,-1
 410 437 l 1,17,-1
 410 515 l 1,18,-1
 580 515 l 1,19,-1
 580 -165 l 1,20,-1
 400 -165 l 1,0,-1
364 125 m 128,-1,22
 383 140 383 140 394 173 c 128,-1,23
 405 206 405 206 405 257 c 256,24,25
 405 308 405 308 394 341 c 128,-1,26
 383 374 383 374 364 389.5 c 128,-1,27
 345 405 345 405 320 405 c 0,28,29
 281 405 281 405 258 369 c 128,-1,30
 235 333 235 333 235 257 c 0,31,32
 235 182 235 182 258 146 c 128,-1,33
 281 110 281 110 320 110 c 0,34,21
 345 110 345 110 364 125 c 128,-1,22
EndSplineSet
EndChar

StartChar: r
Encoding: 114 114 161
Width: 452
GlyphClass: 2
Flags: W
AnchorPoint: "Anchor-3" 245 515 basechar 0
AnchorPoint: "Anchor-2" 172 0 basechar 0
LayerCount: 2
Fore
SplineSet
82 515 m 1,0,-1
 252 515 l 1,1,-1
 252 403 l 1,2,-1
 262 403 l 1,3,4
 273 469 273 469 304 497 c 128,-1,5
 335 525 335 525 385 525 c 2,6,-1
 407 525 l 1,7,-1
 407 366 l 1,8,-1
 386 366 l 2,9,10
 327 366 327 366 294.5 337 c 128,-1,11
 262 308 262 308 262 249 c 2,12,-1
 262 0 l 1,13,-1
 82 0 l 1,14,-1
 82 515 l 1,0,-1
EndSplineSet
EndChar

StartChar: s
Encoding: 115 115 162
Width: 587
GlyphClass: 2
Flags: W
AnchorPoint: "Anchor-3" 295 515 basechar 0
AnchorPoint: "Anchor-2" 295 0 basechar 0
LayerCount: 2
Fore
SplineSet
172.5 4 m 128,-1,1
 119 23 119 23 86.5 58.5 c 128,-1,2
 54 94 54 94 48 142 c 1,3,-1
 234 142 l 1,4,5
 238 117 238 117 255 106 c 128,-1,6
 272 95 272 95 298 95 c 0,7,8
 326 95 326 95 342.5 109 c 128,-1,9
 359 123 359 123 359 147 c 0,10,11
 359 168 359 168 345 180 c 128,-1,12
 331 192 331 192 299 197 c 2,13,-1
 194 215 l 2,14,15
 128 226 128 226 92 263.5 c 128,-1,16
 56 301 56 301 56 357 c 0,17,18
 56 408 56 408 86.5 447 c 128,-1,19
 117 486 117 486 171.5 508 c 128,-1,20
 226 530 226 530 296 530 c 0,21,22
 398 530 398 530 463 489.5 c 128,-1,23
 528 449 528 449 535 379 c 1,24,-1
 350 379 l 1,25,26
 348 401 348 401 332 412.5 c 128,-1,27
 316 424 316 424 290 424 c 256,28,29
 264 424 264 424 248.5 410.5 c 128,-1,30
 233 397 233 397 233 374 c 0,31,32
 233 354 233 354 247 342.5 c 128,-1,33
 261 331 261 331 291 326 c 2,34,-1
 402 307 l 2,35,36
 470 296 470 296 503 260 c 128,-1,37
 536 224 536 224 536 161 c 0,38,39
 536 110 536 110 506 70 c 128,-1,40
 476 30 476 30 420.5 7.5 c 128,-1,41
 365 -15 365 -15 292 -15 c 0,42,0
 226 -15 226 -15 172.5 4 c 128,-1,1
EndSplineSet
EndChar

StartChar: t
Encoding: 116 116 163
Width: 446
GlyphClass: 2
Flags: W
AnchorPoint: "Anchor-3" 234 515 basechar 0
AnchorPoint: "Anchor-2" 286 0 basechar 0
LayerCount: 2
Fore
SplineSet
154.5 27.5 m 128,-1,1
 112 65 112 65 112 151 c 2,2,-1
 112 385 l 1,3,-1
 45 385 l 1,4,-1
 45 507 l 1,5,-1
 94 507 l 2,6,7
 111 507 111 507 118.5 514.5 c 128,-1,8
 126 522 126 522 126 539 c 2,9,-1
 126 640 l 1,10,-1
 292 640 l 1,11,-1
 292 515 l 1,12,-1
 371 515 l 1,13,-1
 371 385 l 1,14,-1
 292 385 l 1,15,-1
 292 193 l 2,16,17
 292 163 292 163 301 150.5 c 128,-1,18
 310 138 310 138 332 138 c 0,19,20
 350 138 350 138 371 142 c 1,21,-1
 371 9 l 1,22,23
 323 -10 323 -10 278 -10 c 0,24,0
 197 -10 197 -10 154.5 27.5 c 128,-1,1
EndSplineSet
EndChar

StartChar: u
Encoding: 117 117 164
Width: 648
GlyphClass: 2
Flags: W
AnchorPoint: "Anchor-4" 481 0 basechar 0
AnchorPoint: "Anchor-3" 322 515 basechar 0
AnchorPoint: "Anchor-2" 317 0 basechar 0
LayerCount: 2
Fore
SplineSet
121 33.5 m 128,-1,1
 77 82 77 82 77 178 c 2,2,-1
 77 515 l 1,3,-1
 257 515 l 1,4,-1
 257 190 l 2,5,6
 257 156 257 156 272 136 c 128,-1,7
 287 116 287 116 318 116 c 0,8,9
 350 116 350 116 368 137 c 128,-1,10
 386 158 386 158 386 197 c 2,11,-1
 386 515 l 1,12,-1
 566 515 l 1,13,-1
 566 0 l 1,14,-1
 396 0 l 1,15,-1
 396 79 l 1,16,-1
 386 79 l 1,17,18
 366 30 366 30 327 7.5 c 128,-1,19
 288 -15 288 -15 238 -15 c 0,20,0
 165 -15 165 -15 121 33.5 c 128,-1,1
EndSplineSet
EndChar

StartChar: v
Encoding: 118 118 165
Width: 625
GlyphClass: 2
Flags: W
AnchorPoint: "Anchor-3" 313 515 basechar 0
AnchorPoint: "Anchor-2" 313 0 basechar 0
LayerCount: 2
Fore
SplineSet
20 515 m 1,0,-1
 216 515 l 1,1,-1
 277 289 l 2,2,3
 299 210 299 210 307 135 c 1,4,-1
 318 135 l 1,5,6
 326 210 326 210 348 289 c 2,7,-1
 409 515 l 1,8,-1
 605 515 l 1,9,-1
 404 0 l 1,10,-1
 221 0 l 1,11,-1
 20 515 l 1,0,-1
EndSplineSet
EndChar

StartChar: w
Encoding: 119 119 166
Width: 909
GlyphClass: 2
Flags: W
AnchorPoint: "Anchor-3" 454 515 basechar 0
AnchorPoint: "Anchor-2" 454 0 basechar 0
LayerCount: 2
Fore
SplineSet
25 515 m 1,0,-1
 220 515 l 1,1,-1
 263 291 l 2,2,3
 268 267 268 267 272 239.5 c 128,-1,4
 276 212 276 212 278 184 c 0,5,6
 280 166 280 166 282 129 c 1,7,-1
 292 129 l 1,8,9
 293 143 293 143 294 157 c 0,10,11
 300 241 300 241 312 291 c 2,12,-1
 361 515 l 1,13,-1
 548 515 l 1,14,-1
 597 291 l 2,15,16
 611 230 611 230 617 129 c 1,17,-1
 627 129 l 1,18,19
 628 140 628 140 628 150 c 0,20,21
 632 220 632 220 646 291 c 2,22,-1
 689 515 l 1,23,-1
 884 515 l 1,24,-1
 721 0 l 1,25,-1
 533 0 l 1,26,-1
 483 234 l 2,27,28
 475 273 475 273 470.5 306.5 c 128,-1,29
 466 340 466 340 460 402 c 1,30,-1
 449 402 l 1,31,32
 444 353 444 353 439 311 c 128,-1,33
 434 269 434 269 426 234 c 2,34,-1
 376 0 l 1,35,-1
 188 0 l 1,36,-1
 25 515 l 1,0,-1
EndSplineSet
EndChar

StartChar: x
Encoding: 120 120 167
Width: 668
GlyphClass: 2
Flags: W
AnchorPoint: "Anchor-3" 334 515 basechar 0
AnchorPoint: "Anchor-2" 334 0 basechar 0
LayerCount: 2
Fore
SplineSet
221 271 m 1,0,-1
 34 515 l 1,1,-1
 257 515 l 1,2,-1
 295 441 l 2,3,4
 303 424 303 424 311 406 c 0,5,6
 322 377 322 377 329 349 c 1,7,-1
 339 349 l 1,8,9
 343 364 343 364 347.5 378.5 c 128,-1,10
 352 393 352 393 357 406 c 0,11,12
 365 424 365 424 373 441 c 2,13,-1
 411 515 l 1,14,-1
 634 515 l 1,15,-1
 447 271 l 1,16,-1
 642 0 l 1,17,-1
 425 0 l 1,18,-1
 383 75 l 2,19,20
 372 98 372 98 360 121 c 0,21,22
 347 153 347 153 339 180 c 1,23,-1
 329 180 l 1,24,25
 323 159 323 159 316.5 142 c 128,-1,26
 310 125 310 125 303 110 c 0,27,28
 294 93 294 93 285 75 c 2,29,-1
 243 0 l 1,30,-1
 26 0 l 1,31,-1
 221 271 l 1,0,-1
EndSplineSet
EndChar

StartChar: y
Encoding: 121 121 168
Width: 634
GlyphClass: 2
Flags: W
AnchorPoint: "Anchor-3" 319 515 basechar 0
AnchorPoint: "Anchor-2" 316 -165 basechar 0
LayerCount: 2
Fore
SplineSet
224 42 m 1,0,-1
 224 42 l 1,1,-1
 20 515 l 1,2,-1
 219 515 l 1,3,-1
 276 332 l 2,4,5
 286 300 286 300 294.5 267 c 128,-1,6
 303 234 303 234 308 203 c 0,7,8
 310 193 310 193 312 175 c 1,9,-1
 322 175 l 1,10,-1
 324 191 l 2,11,12
 330 229 330 229 338 262.5 c 128,-1,13
 346 296 346 296 357 332 c 2,14,-1
 415 515 l 1,15,-1
 614 515 l 1,16,-1
 324 -165 l 1,17,-1
 128 -165 l 1,18,-1
 224 42 l 1,0,-1
EndSplineSet
Substitution2: "'ss03' Style Set 3 in Latin lookup 28 subtable" y.ss03
Substitution2: "'aalt' Access All Alternates in Latin lookup 0 subtable" y.ss03
EndChar

StartChar: z
Encoding: 122 122 169
Width: 592
GlyphClass: 2
Flags: W
AnchorPoint: "Anchor-3" 304 515 basechar 0
AnchorPoint: "Anchor-2" 304 0 basechar 0
LayerCount: 2
Fore
SplineSet
65 140 m 1,0,-1
 328 375 l 1,1,-1
 328 385 l 1,2,-1
 69 385 l 1,3,-1
 69 515 l 1,4,-1
 519 515 l 1,5,-1
 519 375 l 1,6,-1
 256 140 l 1,7,-1
 256 130 l 1,8,-1
 532 130 l 1,9,-1
 532 0 l 1,10,-1
 65 0 l 1,11,-1
 65 140 l 1,0,-1
EndSplineSet
EndChar

StartChar: ae
Encoding: 230 230 175
Width: 921
GlyphClass: 2
Flags: W
AnchorPoint: "Anchor-3" 453 515 basechar 0
AnchorPoint: "Anchor-2" 453 0 basechar 0
LayerCount: 2
Fore
SplineSet
481 18.5 m 128,-1,1
 421 52 421 52 389 114 c 128,-1,2
 357 176 357 176 357 259 c 0,3,4
 357 338 357 338 390 399.5 c 128,-1,5
 423 461 423 461 482 495.5 c 128,-1,6
 541 530 541 530 616 530 c 0,7,8
 693 530 693 530 752.5 497.5 c 128,-1,9
 812 465 812 465 844.5 406.5 c 128,-1,10
 877 348 877 348 877 272 c 1,11,-1
 877 272 l 1,12,13
 877 243 877 243 871 217 c 1,14,-1
 434 217 l 1,15,-1
 434 310 l 1,16,-1
 693 310 l 1,17,18
 693 370 693 370 673 402 c 128,-1,19
 653 434 653 434 615 434 c 256,20,21
 577 434 577 434 557 402 c 128,-1,22
 537 370 537 370 537 310 c 2,23,-1
 537 218 l 2,24,25
 537 159 537 159 559.5 128 c 128,-1,26
 582 97 582 97 625 97 c 0,27,28
 644 97 644 97 659 104.5 c 128,-1,29
 674 112 674 112 682 125 c 1,30,-1
 868 125 l 1,31,32
 849 60 849 60 783 22.5 c 128,-1,33
 717 -15 717 -15 621 -15 c 0,34,0
 541 -15 541 -15 481 18.5 c 128,-1,1
340.5 109.5 m 128,-1,36
 357 131 357 131 357 172 c 2,37,-1
 357 264 l 1,38,39
 353 260 353 260 341 254 c 128,-1,40
 329 248 329 248 315 243 c 2,41,-1
 284 233 l 2,42,43
 260 226 260 226 247 206 c 128,-1,44
 234 186 234 186 234 157 c 0,45,46
 234 126 234 126 250 107 c 128,-1,47
 266 88 266 88 292 88 c 0,48,35
 324 88 324 88 340.5 109.5 c 128,-1,36
96 26.5 m 128,-1,50
 50 68 50 68 50 136 c 0,51,52
 50 201 50 201 91 242 c 128,-1,53
 132 283 132 283 216 302 c 2,54,-1
 293 319 l 2,55,56
 331 327 331 327 344 338.5 c 128,-1,57
 357 350 357 350 357 374 c 0,58,59
 357 396 357 396 343 409 c 128,-1,60
 329 422 329 422 306 422 c 0,61,62
 281 422 281 422 266 408 c 128,-1,63
 251 394 251 394 249 371 c 1,64,-1
 64 371 l 1,65,66
 70 421 70 421 100.5 457 c 128,-1,67
 131 493 131 493 184 511.5 c 128,-1,68
 237 530 237 530 308 530 c 0,69,70
 416 530 416 530 474 483 c 128,-1,71
 532 436 532 436 532 351 c 2,72,-1
 532 86 l 1,73,-1
 399 86 l 1,74,75
 371 30 371 30 323 7.5 c 128,-1,76
 275 -15 275 -15 216 -15 c 0,77,49
 142 -15 142 -15 96 26.5 c 128,-1,50
EndSplineSet
EndChar

StartChar: dcaron
Encoding: 271 271 187
Width: 658
GlyphClass: 1
Flags: W
LayerCount: 2
Fore
SplineSet
142 15 m 128,-1,1
 99 45 99 45 74.5 106 c 128,-1,2
 50 167 50 167 50 258 c 0,3,4
 50 348 50 348 75 409 c 128,-1,5
 100 470 100 470 143 500 c 128,-1,6
 186 530 186 530 240 530 c 0,7,8
 293 530 293 530 331.5 505.5 c 128,-1,9
 370 481 370 481 390 438 c 1,10,-1
 400 438 l 1,11,-1
 400 735 l 1,12,-1
 580 735 l 1,13,-1
 580 0 l 1,14,-1
 410 0 l 1,15,-1
 410 78 l 1,16,-1
 400 78 l 1,17,18
 378 34 378 34 338 9.5 c 128,-1,19
 298 -15 298 -15 240 -15 c 0,20,0
 185 -15 185 -15 142 15 c 128,-1,1
364 125.5 m 128,-1,22
 383 141 383 141 394 174 c 128,-1,23
 405 207 405 207 405 258 c 256,24,25
 405 309 405 309 394 342 c 128,-1,26
 383 375 383 375 364 390 c 128,-1,27
 345 405 345 405 320 405 c 0,28,29
 281 405 281 405 258 369 c 128,-1,30
 235 333 235 333 235 258 c 0,31,32
 235 182 235 182 258 146 c 128,-1,33
 281 110 281 110 320 110 c 0,34,21
 345 110 345 110 364 125.5 c 128,-1,22
641 735 m 1,35,-1
 783 735 l 1,36,-1
 721 585 l 1,37,-1
 606 585 l 1,38,-1
 641 735 l 1,35,-1
EndSplineSet
EndChar

StartChar: dcroat
Encoding: 273 273 188
Width: 645
GlyphClass: 1
Flags: W
LayerCount: 2
Fore
SplineSet
142 15 m 128,-1,1
 99 45 99 45 74.5 106 c 128,-1,2
 50 167 50 167 50 258 c 0,3,4
 50 348 50 348 75 409 c 128,-1,5
 100 470 100 470 143 500 c 128,-1,6
 186 530 186 530 240 530 c 0,7,8
 293 530 293 530 331.5 505.5 c 128,-1,9
 370 481 370 481 390 438 c 1,10,-1
 400 438 l 1,11,-1
 400 735 l 1,12,-1
 580 735 l 1,13,-1
 580 0 l 1,14,-1
 410 0 l 1,15,-1
 410 78 l 1,16,-1
 400 78 l 1,17,18
 378 34 378 34 338 9.5 c 128,-1,19
 298 -15 298 -15 240 -15 c 0,20,0
 185 -15 185 -15 142 15 c 128,-1,1
364 125.5 m 128,-1,22
 383 141 383 141 394 174 c 128,-1,23
 405 207 405 207 405 258 c 256,24,25
 405 309 405 309 394 342 c 128,-1,26
 383 375 383 375 364 390 c 128,-1,27
 345 405 345 405 320 405 c 0,28,29
 281 405 281 405 258 369 c 128,-1,30
 235 333 235 333 235 258 c 0,31,32
 235 182 235 182 258 146 c 128,-1,33
 281 110 281 110 320 110 c 0,34,21
 345 110 345 110 364 125.5 c 128,-1,22
246 655 m 1,35,-1
 640 655 l 1,36,-1
 640 546 l 1,37,-1
 246 546 l 1,38,-1
 246 655 l 1,35,-1
EndSplineSet
EndChar

StartChar: hbar
Encoding: 295 295 205
Width: 658
GlyphClass: 2
Flags: W
AnchorPoint: "Anchor-3" 332 705 basechar 0
AnchorPoint: "Anchor-2" 333 0 basechar 0
LayerCount: 2
Fore
SplineSet
82 735 m 1,0,-1
 263 735 l 1,1,-1
 263 446 l 1,2,-1
 273 446 l 1,3,4
 294 489 294 489 333.5 509.5 c 128,-1,5
 373 530 373 530 420 530 c 0,6,7
 492 530 492 530 536.5 481.5 c 128,-1,8
 581 433 581 433 581 337 c 2,9,-1
 581 0 l 1,10,-1
 401 0 l 1,11,-1
 401 325 l 2,12,13
 401 359 401 359 384.5 379 c 128,-1,14
 368 399 368 399 335 399 c 0,15,16
 301 399 301 399 281.5 378 c 128,-1,17
 262 357 262 357 262 318 c 2,18,-1
 262 0 l 1,19,-1
 82 0 l 1,20,-1
 82 735 l 1,0,-1
47 647 m 1,21,-1
 354 647 l 1,22,-1
 354 553 l 1,23,-1
 47 553 l 1,24,-1
 47 647 l 1,21,-1
EndSplineSet
EndChar

StartChar: dotlessi
Encoding: 305 305 213
Width: 344
GlyphClass: 2
Flags: W
AnchorPoint: "Anchor-4" 172 0 basechar 0
AnchorPoint: "Anchor-3" 172 515 basechar 0
AnchorPoint: "Anchor-2" 172 0 basechar 0
LayerCount: 2
Fore
SplineSet
82 515 m 1,0,-1
 262 515 l 1,1,-1
 262 0 l 1,2,-1
 82 0 l 1,3,-1
 82 515 l 1,0,-1
EndSplineSet
EndChar

StartChar: uni0237
Encoding: 567 567 221
Width: 342
GlyphClass: 2
Flags: W
AnchorPoint: "Anchor-3" 170 515 basechar 0
AnchorPoint: "Anchor-2" 172 -165 basechar 0
LayerCount: 2
Fore
SplineSet
15 -165 m 1,0,-1
 15 -23 l 1,1,-1
 40 -23 l 2,2,3
 58 -23 58 -23 69 -14 c 128,-1,4
 80 -5 80 -5 80 14 c 2,5,-1
 80 515 l 1,6,-1
 260 515 l 1,7,-1
 260 7 l 2,8,9
 260 -84 260 -84 212.5 -124.5 c 128,-1,10
 165 -165 165 -165 84 -165 c 2,11,-1
 15 -165 l 1,0,-1
EndSplineSet
EndChar

StartChar: lcaron
Encoding: 318 318 224
Width: 344
GlyphClass: 2
Flags: W
AnchorPoint: "Anchor-3" 172 705 basechar 0
AnchorPoint: "Anchor-2" 172 0 basechar 0
LayerCount: 2
Fore
SplineSet
82 735 m 1,0,-1
 262 735 l 1,1,-1
 262 0 l 1,2,-1
 82 0 l 1,3,-1
 82 735 l 1,0,-1
327 735 m 1,4,-1
 469 735 l 1,5,-1
 407 585 l 1,6,-1
 292 585 l 1,7,-1
 327 735 l 1,4,-1
EndSplineSet
Substitution2: "'ss07' Style Set 7 in Latin lookup 31 subtable" lcaron.ss07
Substitution2: "'aalt' Access All Alternates in Latin lookup 0 subtable" lcaron.ss07
EndChar

StartChar: ldot
Encoding: 320 320 226
Width: 480
GlyphClass: 2
Flags: W
AnchorPoint: "Anchor-3" 172 705 basechar 0
AnchorPoint: "Anchor-2" 172 0 basechar 0
LayerCount: 2
Fore
SplineSet
82 735 m 1,0,-1
 262 735 l 1,1,-1
 262 0 l 1,2,-1
 82 0 l 1,3,-1
 82 735 l 1,0,-1
345.5 327.5 m 128,-1,5
 318 355 318 355 318 394 c 256,6,7
 318 433 318 433 345.5 461 c 128,-1,8
 373 489 373 489 412 489 c 0,9,10
 450 489 450 489 478.5 460.5 c 128,-1,11
 507 432 507 432 507 394 c 0,12,13
 507 355 507 355 479 327.5 c 128,-1,14
 451 300 451 300 412 300 c 256,15,4
 373 300 373 300 345.5 327.5 c 128,-1,5
EndSplineSet
Ligature2: "Ligature Substitution lookup 34 subtable" l periodcentered
Substitution2: "'ss07' Style Set 7 in Latin lookup 31 subtable" ldot.ss07
Substitution2: "'ss06' Style Set 6 in Latin lookup 30 subtable" ldot.ss06
AlternateSubs2: "'aalt' Access All Alternates in Latin lookup 1 subtable" ldot.ss06 ldot.ss07
EndChar

StartChar: lslash
Encoding: 322 322 227
Width: 310
GlyphClass: 2
Flags: W
AnchorPoint: "Anchor-3" 155 705 basechar 0
AnchorPoint: "Anchor-2" 155 0 basechar 0
LayerCount: 2
Fore
SplineSet
65 735 m 1,0,-1
 245 735 l 1,1,-1
 245 0 l 1,2,-1
 65 0 l 1,3,-1
 65 735 l 1,0,-1
10 369 m 1,4,-1
 300 518 l 1,5,-1
 300 398 l 1,6,-1
 10 248 l 1,7,-1
 10 369 l 1,4,-1
EndSplineSet
EndChar

StartChar: eng
Encoding: 331 331 232
Width: 658
GlyphClass: 2
Flags: W
AnchorPoint: "Anchor-3" 329 515 basechar 0
AnchorPoint: "Anchor-2" 329 0 basechar 0
LayerCount: 2
Fore
SplineSet
82 515 m 1,0,-1
 252 515 l 1,1,-1
 252 436 l 1,2,-1
 262 436 l 1,3,4
 282 485 282 485 323 507.5 c 128,-1,5
 364 530 364 530 415 530 c 0,6,7
 491 530 491 530 536 481.5 c 128,-1,8
 581 433 581 433 581 337 c 2,9,-1
 581 0 l 1,10,-1
 401 0 l 1,11,-1
 401 325 l 2,12,13
 401 359 401 359 384.5 379 c 128,-1,14
 368 399 368 399 335 399 c 0,15,16
 301 399 301 399 281.5 378 c 128,-1,17
 262 357 262 357 262 318 c 2,18,-1
 262 0 l 1,19,-1
 82 0 l 1,20,-1
 82 515 l 1,0,-1
383.5 -179 m 128,-1,22
 368 -178 368 -178 349 -174 c 1,23,-1
 349 -61 l 1,24,25
 357 -62 357 -62 370 -62 c 0,26,27
 386 -62 386 -62 393.5 -54.5 c 128,-1,28
 401 -47 401 -47 401 -32 c 2,29,-1
 401 0 l 1,30,-1
 581 0 l 1,31,-1
 581 -38 l 2,32,33
 581 -114 581 -114 538.5 -147 c 128,-1,34
 496 -180 496 -180 420 -180 c 0,35,21
 399 -180 399 -180 383.5 -179 c 128,-1,22
EndSplineSet
EndChar

StartChar: uni0272
Encoding: 626 626 233
Width: 658
GlyphClass: 2
Flags: W
AnchorPoint: "Anchor-3" 329 515 basechar 0
AnchorPoint: "Anchor-2" 329 0 basechar 0
LayerCount: 2
Fore
SplineSet
82 515 m 1,0,-1
 252 515 l 1,1,-1
 252 436 l 1,2,-1
 262 436 l 1,3,4
 282 485 282 485 323 507.5 c 128,-1,5
 364 530 364 530 415 530 c 0,6,7
 491 530 491 530 536 481.5 c 128,-1,8
 581 433 581 433 581 337 c 2,9,-1
 581 0 l 1,10,-1
 401 0 l 1,11,-1
 401 325 l 2,12,13
 401 359 401 359 384.5 379 c 128,-1,14
 368 399 368 399 335 399 c 0,15,16
 301 399 301 399 281.5 378 c 128,-1,17
 262 357 262 357 262 318 c 2,18,-1
 262 0 l 1,19,-1
 82 0 l 1,20,-1
 82 515 l 1,0,-1
64.5 -179 m 128,-1,22
 49 -178 49 -178 30 -174 c 1,23,-1
 30 -61 l 1,24,25
 38 -62 38 -62 51 -62 c 0,26,27
 67 -62 67 -62 74.5 -54.5 c 128,-1,28
 82 -47 82 -47 82 -32 c 2,29,-1
 82 0 l 1,30,-1
 262 0 l 1,31,-1
 262 -38 l 2,32,33
 262 -114 262 -114 219.5 -147 c 128,-1,34
 177 -180 177 -180 101 -180 c 0,35,21
 80 -180 80 -180 64.5 -179 c 128,-1,22
EndSplineSet
EndChar

StartChar: oe
Encoding: 339 339 239
Width: 998
GlyphClass: 2
Flags: W
AnchorPoint: "Anchor-3" 498 515 basechar 0
AnchorPoint: "Anchor-2" 498 0 basechar 0
LayerCount: 2
Fore
SplineSet
178.5 20 m 128,-1,1
 115 55 115 55 80.5 117 c 128,-1,2
 46 179 46 179 46 258 c 0,3,4
 46 336 46 336 80.5 398 c 128,-1,5
 115 460 115 460 178.5 495 c 128,-1,6
 242 530 242 530 326 530 c 0,7,8
 407 530 407 530 470.5 492 c 128,-1,9
 534 454 534 454 569 391 c 1,10,-1
 459 391 l 1,11,12
 490 455 490 455 549.5 492.5 c 128,-1,13
 609 530 609 530 688 530 c 0,14,15
 764 530 764 530 824.5 499 c 128,-1,16
 885 468 885 468 919.5 409.5 c 128,-1,17
 954 351 954 351 954 272 c 0,18,19
 954 243 954 243 948 217 c 1,20,-1
 501 217 l 1,21,-1
 501 310 l 1,22,-1
 770 310 l 1,23,24
 770 364 770 364 747.5 392 c 128,-1,25
 725 420 725 420 687 420 c 256,26,27
 649 420 649 420 626.5 392 c 128,-1,28
 604 364 604 364 604 310 c 2,29,-1
 604 218 l 2,30,31
 604 182 604 182 614.5 157.5 c 128,-1,32
 625 133 625 133 646 120.5 c 128,-1,33
 667 108 667 108 697 108 c 0,34,35
 716 108 716 108 732 116 c 128,-1,36
 748 124 748 124 755 135 c 1,37,-1
 941 135 l 1,38,39
 921 64 921 64 854.5 24.5 c 128,-1,40
 788 -15 788 -15 693 -15 c 0,41,42
 608 -15 608 -15 547.5 21.5 c 128,-1,43
 487 58 487 58 457 122 c 1,44,-1
 568 122 l 1,45,46
 533 60 533 60 470 22.5 c 128,-1,47
 407 -15 407 -15 326 -15 c 0,48,0
 242 -15 242 -15 178.5 20 c 128,-1,1
403 148.5 m 128,-1,50
 429 187 429 187 429 258 c 0,51,52
 429 305 429 305 417.5 338 c 128,-1,53
 406 371 406 371 384 388 c 128,-1,54
 362 405 362 405 330 405 c 0,55,56
 282 405 282 405 256.5 367 c 128,-1,57
 231 329 231 329 231 258 c 0,58,59
 231 211 231 211 242.5 177.5 c 128,-1,60
 254 144 254 144 276.5 127 c 128,-1,61
 299 110 299 110 330 110 c 0,62,49
 377 110 377 110 403 148.5 c 128,-1,50
EndSplineSet
EndChar

StartChar: ordfeminine
Encoding: 170 170 243
Width: 512
GlyphClass: 1
Flags: W
LayerCount: 2
Fore
SplineSet
78.5 374.5 m 128,-1,1
 40 408 40 408 40 462 c 0,2,3
 40 519 40 519 79.5 553 c 128,-1,4
 119 587 119 587 194 601 c 2,5,-1
 260 613 l 2,6,7
 280 617 280 617 289 626 c 128,-1,8
 298 635 298 635 298 652 c 0,9,10
 298 668 298 668 286 677.5 c 128,-1,11
 274 687 274 687 254 687 c 0,12,13
 233 687 233 687 219 678 c 128,-1,14
 205 669 205 669 201 653 c 1,15,-1
 51 653 l 1,16,17
 53 687 53 687 79 717 c 128,-1,18
 105 747 105 747 152 764.5 c 128,-1,19
 199 782 199 782 260 782 c 0,20,21
 350 782 350 782 396.5 743 c 128,-1,22
 443 704 443 704 443 637 c 2,23,-1
 443 478 l 2,24,25
 443 471 443 471 447.5 466.5 c 128,-1,26
 452 462 452 462 459 462 c 0,27,28
 464 462 464 462 472 464 c 1,29,-1
 472 358 l 1,30,31
 455 351 455 351 439 348 c 128,-1,32
 423 345 423 345 403 345 c 0,33,34
 366 345 366 345 342 359.5 c 128,-1,35
 318 374 318 374 311 407 c 1,36,-1
 303 407 l 1,37,38
 284 371 284 371 251.5 356 c 128,-1,39
 219 341 219 341 180 341 c 0,40,0
 117 341 117 341 78.5 374.5 c 128,-1,1
283 450.5 m 128,-1,42
 298 470 298 470 298 506 c 2,43,-1
 298 558 l 1,44,45
 289 543 289 543 256 534 c 2,46,-1
 237 529 l 2,47,48
 213 523 213 523 201.5 510 c 128,-1,49
 190 497 190 497 190 477 c 256,50,51
 190 457 190 457 201.5 444 c 128,-1,52
 213 431 213 431 238 431 c 0,53,41
 268 431 268 431 283 450.5 c 128,-1,42
EndSplineSet
EndChar

StartChar: ordmasculine
Encoding: 186 186 244
Width: 529
GlyphClass: 1
Flags: W
LayerCount: 2
Fore
SplineSet
144 369.5 m 128,-1,1
 92 398 92 398 63.5 448 c 128,-1,2
 35 498 35 498 35 562 c 0,3,4
 35 625 35 625 63.5 675 c 128,-1,5
 92 725 92 725 144 753.5 c 128,-1,6
 196 782 196 782 265 782 c 0,7,8
 333 782 333 782 385 753.5 c 128,-1,9
 437 725 437 725 465.5 675 c 128,-1,10
 494 625 494 625 494 562 c 0,11,12
 494 498 494 498 465.5 448 c 128,-1,13
 437 398 437 398 385 369.5 c 128,-1,14
 333 341 333 341 265 341 c 0,15,0
 196 341 196 341 144 369.5 c 128,-1,1
320.5 473 m 128,-1,17
 340 504 340 504 340 562 c 256,18,19
 340 620 340 620 320.5 650.5 c 128,-1,20
 301 681 301 681 265 681 c 0,21,22
 228 681 228 681 209 650.5 c 128,-1,23
 190 620 190 620 190 562 c 256,24,25
 190 504 190 504 209.5 473 c 128,-1,26
 229 442 229 442 265 442 c 256,27,16
 301 442 301 442 320.5 473 c 128,-1,17
EndSplineSet
EndChar

StartChar: oslash
Encoding: 248 248 245
Width: 630
GlyphClass: 2
Flags: W
AnchorPoint: "Anchor-4" 427 0 basechar 0
AnchorPoint: "Anchor-3" 315 515 basechar 0
AnchorPoint: "Anchor-2" 315 0 basechar 0
LayerCount: 2
Fore
SplineSet
171.5 19 m 128,-1,1
 111 53 111 53 78.5 114.5 c 128,-1,2
 46 176 46 176 46 258 c 0,3,4
 46 339 46 339 78.5 400.5 c 128,-1,5
 111 462 111 462 171.5 496 c 128,-1,6
 232 530 232 530 315 530 c 256,7,8
 398 530 398 530 458.5 496 c 128,-1,9
 519 462 519 462 551.5 400.5 c 128,-1,10
 584 339 584 339 584 258 c 0,11,12
 584 176 584 176 551.5 114.5 c 128,-1,13
 519 53 519 53 458.5 19 c 128,-1,14
 398 -15 398 -15 315 -15 c 256,15,0
 232 -15 232 -15 171.5 19 c 128,-1,1
377.5 147 m 128,-1,17
 399 184 399 184 399 258 c 0,18,19
 399 331 399 331 377.5 368 c 128,-1,20
 356 405 356 405 315 405 c 256,21,22
 274 405 274 405 252.5 368 c 128,-1,23
 231 331 231 331 231 258 c 0,24,25
 231 184 231 184 252.5 147 c 128,-1,26
 274 110 274 110 315 110 c 256,27,16
 356 110 356 110 377.5 147 c 128,-1,17
516 530 m 1,28,-1
 628 530 l 1,29,-1
 115 -15 l 1,30,-1
 2 -15 l 1,31,-1
 516 530 l 1,28,-1
EndSplineSet
EndChar

StartChar: tbar
Encoding: 359 359 256
Width: 468
GlyphClass: 1
Flags: W
LayerCount: 2
Fore
SplineSet
159.5 27.5 m 128,-1,1
 117 65 117 65 117 151 c 2,2,-1
 117 385 l 1,3,-1
 50 385 l 1,4,-1
 50 505 l 1,5,-1
 91 505 l 2,6,7
 104 505 104 505 113 509 c 128,-1,8
 122 513 122 513 126.5 522 c 128,-1,9
 131 531 131 531 131 546 c 2,10,-1
 131 640 l 1,11,-1
 297 640 l 1,12,-1
 297 515 l 1,13,-1
 386 515 l 1,14,-1
 386 385 l 1,15,-1
 297 385 l 1,16,-1
 297 193 l 2,17,18
 297 163 297 163 308.5 150.5 c 128,-1,19
 320 138 320 138 347 138 c 0,20,21
 365 138 365 138 386 142 c 1,22,-1
 386 10 l 1,23,24
 336 -10 336 -10 283 -10 c 0,25,0
 202 -10 202 -10 159.5 27.5 c 128,-1,1
50 325 m 1,26,-1
 386 325 l 1,27,-1
 386 216 l 1,28,-1
 50 216 l 1,29,-1
 50 325 l 1,26,-1
EndSplineSet
EndChar

StartChar: tcaron
Encoding: 357 357 257
Width: 446
GlyphClass: 2
Flags: W
AnchorPoint: "Anchor-3" 234 515 basechar 0
AnchorPoint: "Anchor-2" 286 0 basechar 0
LayerCount: 2
Fore
SplineSet
154.5 27.5 m 128,-1,1
 112 65 112 65 112 151 c 2,2,-1
 112 385 l 1,3,-1
 45 385 l 1,4,-1
 45 507 l 1,5,-1
 94 507 l 2,6,7
 111 507 111 507 118.5 514.5 c 128,-1,8
 126 522 126 522 126 539 c 2,9,-1
 126 640 l 1,10,-1
 292 640 l 1,11,-1
 292 515 l 1,12,-1
 371 515 l 1,13,-1
 371 385 l 1,14,-1
 292 385 l 1,15,-1
 292 193 l 2,16,17
 292 163 292 163 301 150.5 c 128,-1,18
 310 138 310 138 332 138 c 0,19,20
 350 138 350 138 371 142 c 1,21,-1
 371 9 l 1,22,23
 323 -10 323 -10 278 -10 c 0,24,0
 197 -10 197 -10 154.5 27.5 c 128,-1,1
357 735 m 1,25,-1
 499 735 l 1,26,-1
 437 585 l 1,27,-1
 322 585 l 1,28,-1
 357 735 l 1,25,-1
EndSplineSet
EndChar

StartChar: thorn
Encoding: 254 254 260
Width: 690
GlyphClass: 2
Flags: W
AnchorPoint: "Anchor-3" 346 515 basechar 0
AnchorPoint: "Anchor-2" 346 0 basechar 0
LayerCount: 2
Fore
SplineSet
82 735 m 1,0,-1
 262 735 l 1,1,-1
 262 438 l 1,2,-1
 272 438 l 1,3,4
 292 481 292 481 331.5 505.5 c 128,-1,5
 371 530 371 530 426 530 c 0,6,7
 488 530 488 530 536.5 496.5 c 128,-1,8
 585 463 585 463 612.5 401 c 128,-1,9
 640 339 640 339 640 257 c 256,10,11
 640 175 640 175 612.5 113.5 c 128,-1,12
 585 52 585 52 536.5 18.5 c 128,-1,13
 488 -15 488 -15 426 -15 c 0,14,15
 371 -15 371 -15 331.5 9.5 c 128,-1,16
 292 34 292 34 272 77 c 1,17,-1
 262 77 l 1,18,-1
 262 -165 l 1,19,-1
 82 -165 l 1,20,-1
 82 735 l 1,0,-1
428 146 m 128,-1,22
 455 182 455 182 455 257 c 0,23,24
 455 333 455 333 428 369 c 128,-1,25
 401 405 401 405 356 405 c 0,26,27
 327 405 327 405 304.5 389.5 c 128,-1,28
 282 374 282 374 269.5 341 c 128,-1,29
 257 308 257 308 257 257 c 256,30,31
 257 206 257 206 269.5 173 c 128,-1,32
 282 140 282 140 304.5 125 c 128,-1,33
 327 110 327 110 356 110 c 0,34,21
 401 110 401 110 428 146 c 128,-1,22
EndSplineSet
EndChar

StartChar: germandbls
Encoding: 223 223 286
Width: 688
GlyphClass: 1
Flags: W
LayerCount: 2
Fore
SplineSet
370 -13 m 128,-1,1
 348 -11 348 -11 331 -7 c 1,2,-1
 331 126 l 1,3,4
 351 120 351 120 376 120 c 0,5,6
 418 120 418 120 441 145.5 c 128,-1,7
 464 171 464 171 464 218 c 0,8,9
 464 249 464 249 453 270.5 c 128,-1,10
 442 292 442 292 421 303.5 c 128,-1,11
 400 315 400 315 372 315 c 2,12,-1
 331 315 l 1,13,-1
 331 440 l 1,14,-1
 353 440 l 2,15,16
 382 440 382 440 402.5 452 c 128,-1,17
 423 464 423 464 433 485 c 128,-1,18
 443 506 443 506 443 533 c 0,19,20
 443 578 443 578 419 601.5 c 128,-1,21
 395 625 395 625 356 625 c 0,22,23
 310 625 310 625 288.5 600.5 c 128,-1,24
 267 576 267 576 267 529 c 2,25,-1
 267 0 l 1,26,-1
 82 0 l 1,27,-1
 82 511 l 2,28,29
 82 621 82 621 154.5 685.5 c 128,-1,30
 227 750 227 750 360 750 c 0,31,32
 439 750 439 750 501 725.5 c 128,-1,33
 563 701 563 701 598 655.5 c 128,-1,34
 633 610 633 610 633 550 c 0,35,36
 633 509 633 509 617.5 476.5 c 128,-1,37
 602 444 602 444 570 421 c 128,-1,38
 538 398 538 398 490 388 c 1,39,-1
 490 378 l 1,40,41
 541 370 541 370 577.5 347.5 c 128,-1,42
 614 325 614 325 633.5 288.5 c 128,-1,43
 653 252 653 252 653 203 c 0,44,45
 653 135 653 135 624.5 86 c 128,-1,46
 596 37 596 37 543 11 c 128,-1,47
 490 -15 490 -15 417 -15 c 0,48,0
 392 -15 392 -15 370 -13 c 128,-1,1
EndSplineSet
Substitution2: "Single Substitution lookup 35 subtable" uni1E9E
Substitution2: "'aalt' Access All Alternates in Latin lookup 0 subtable" uni1E9E
EndChar

StartChar: eth
Encoding: 240 240 287
Width: 664
GlyphClass: 1
Flags: W
LayerCount: 2
Fore
SplineSet
181 16.5 m 128,-1,1
 119 48 119 48 84.5 105 c 128,-1,2
 50 162 50 162 50 234 c 0,3,4
 50 307 50 307 79 363 c 128,-1,5
 108 419 108 419 159.5 449.5 c 128,-1,6
 211 480 211 480 276 480 c 0,7,8
 328 480 328 480 366 461.5 c 128,-1,9
 404 443 404 443 429 409 c 1,10,-1
 439 409 l 1,11,12
 390 506 390 506 310.5 584.5 c 128,-1,13
 231 663 231 663 131 735 c 1,14,-1
 338 735 l 1,15,16
 432 658 432 658 493 585 c 128,-1,17
 554 512 554 512 586 434 c 128,-1,18
 618 356 618 356 618 270 c 256,19,20
 618 184 618 184 582.5 119.5 c 128,-1,21
 547 55 547 55 480.5 20 c 128,-1,22
 414 -15 414 -15 324 -15 c 0,23,0
 243 -15 243 -15 181 16.5 c 128,-1,1
384.5 114.5 m 128,-1,25
 407 129 407 129 420 158.5 c 128,-1,26
 433 188 433 188 433 233 c 256,27,28
 433 278 433 278 420 307.5 c 128,-1,29
 407 337 407 337 384.5 351 c 128,-1,30
 362 365 362 365 334 365 c 0,31,32
 290 365 290 365 262.5 332 c 128,-1,33
 235 299 235 299 235 233 c 256,34,35
 235 167 235 167 263 133.5 c 128,-1,36
 291 100 291 100 334 100 c 0,37,24
 362 100 362 100 384.5 114.5 c 128,-1,25
149 582 m 1,38,-1
 500 726 l 1,39,-1
 526 673 l 1,40,-1
 176 527 l 1,41,-1
 149 582 l 1,38,-1
EndSplineSet
EndChar

StartChar: uni0259
Encoding: 601 601 288
Width: 630
GlyphClass: 2
Flags: W
AnchorPoint: "Anchor-3" 314 515 basechar 0
AnchorPoint: "Anchor-2" 314 0 basechar 0
LayerCount: 2
Fore
SplineSet
455 496.5 m 128,-1,1
 517 463 517 463 550.5 401 c 128,-1,2
 584 339 584 339 584 256 c 0,3,4
 584 177 584 177 550 115.5 c 128,-1,5
 516 54 516 54 454.5 19.5 c 128,-1,6
 393 -15 393 -15 315 -15 c 0,7,8
 235 -15 235 -15 173.5 17.5 c 128,-1,9
 112 50 112 50 78 108.5 c 128,-1,10
 44 167 44 167 44 243 c 0,11,12
 44 260 44 260 45 267 c 0,13,14
 46 278 46 278 50 298 c 1,15,-1
 507 298 l 1,16,-1
 507 205 l 1,17,-1
 228 205 l 1,18,19
 228 153 228 153 251 124 c 128,-1,20
 274 95 274 95 316 95 c 256,21,22
 358 95 358 95 381 124 c 128,-1,23
 404 153 404 153 404 205 c 2,24,-1
 404 297 l 2,25,26
 404 350 404 350 379 378.5 c 128,-1,27
 354 407 354 407 306 407 c 0,28,29
 286 407 286 407 268 399.5 c 128,-1,30
 250 392 250 392 243 380 c 1,31,-1
 57 380 l 1,32,33
 77 450 77 450 144.5 490 c 128,-1,34
 212 530 212 530 310 530 c 0,35,0
 393 530 393 530 455 496.5 c 128,-1,1
EndSplineSet
EndChar

StartChar: comma
Encoding: 44 44 302
Width: 345
GlyphClass: 1
Flags: W
LayerCount: 2
Fore
SplineSet
149.5 -68.5 m 128,-1,1
 167 -25 167 -25 172 25 c 1,2,-1
 227 68 l 1,3,4
 222 32 222 32 203 15 c 128,-1,5
 184 -2 184 -2 150 -2 c 0,6,7
 111 -2 111 -2 83 25 c 128,-1,8
 55 52 55 52 55 94 c 0,9,10
 55 141 55 141 86 171 c 128,-1,11
 117 201 117 201 166 201 c 0,12,13
 222 201 222 201 256 161 c 128,-1,14
 290 121 290 121 290 56 c 0,15,16
 290 3 290 3 272.5 -50.5 c 128,-1,17
 255 -104 255 -104 218 -165 c 1,18,-1
 96 -165 l 1,19,0
 132 -112 132 -112 149.5 -68.5 c 128,-1,1
EndSplineSet
Substitution2: "'ss06' Style Set 6 in Latin lookup 30 subtable" comma.ss06
Substitution2: "'aalt' Access All Alternates in Latin lookup 0 subtable" comma.ss06
EndChar

StartChar: semicolon
Encoding: 59 59 303
Width: 345
GlyphClass: 1
Flags: W
LayerCount: 2
Fore
SplineSet
149.5 -68.5 m 128,-1,1
 167 -25 167 -25 172 25 c 1,2,-1
 227 68 l 1,3,4
 222 32 222 32 203 15 c 128,-1,5
 184 -2 184 -2 150 -2 c 0,6,7
 111 -2 111 -2 83 25 c 128,-1,8
 55 52 55 52 55 94 c 0,9,10
 55 141 55 141 86 171 c 128,-1,11
 117 201 117 201 166 201 c 0,12,13
 222 201 222 201 256 161 c 128,-1,14
 290 121 290 121 290 56 c 0,15,16
 290 3 290 3 272.5 -50.5 c 128,-1,17
 255 -104 255 -104 218 -165 c 1,18,-1
 96 -165 l 1,19,0
 132 -112 132 -112 149.5 -68.5 c 128,-1,1
92.5 315 m 128,-1,21
 61 346 61 346 61 393 c 0,22,23
 61 438 61 438 92.5 469 c 128,-1,24
 124 500 124 500 169 500 c 0,25,26
 213 500 213 500 244.5 469 c 128,-1,27
 276 438 276 438 276 393 c 0,28,29
 276 346 276 346 244.5 315 c 128,-1,30
 213 284 213 284 169 284 c 0,31,20
 124 284 124 284 92.5 315 c 128,-1,21
EndSplineSet
Substitution2: "'ss06' Style Set 6 in Latin lookup 30 subtable" semicolon.ss06
Substitution2: "'case' Case-Sensitive Forms in Latin lookup 23 subtable" semicolon.case
AlternateSubs2: "'aalt' Access All Alternates in Latin lookup 1 subtable" semicolon.case semicolon.ss06
EndChar

StartChar: colon
Encoding: 58 58 304
Width: 325
GlyphClass: 1
Flags: W
LayerCount: 2
Fore
SplineSet
86.5 315 m 128,-1,1
 55 346 55 346 55 393 c 0,2,3
 55 438 55 438 86.5 469 c 128,-1,4
 118 500 118 500 163 500 c 0,5,6
 207 500 207 500 238.5 469 c 128,-1,7
 270 438 270 438 270 393 c 0,8,9
 270 346 270 346 238.5 315 c 128,-1,10
 207 284 207 284 163 284 c 0,11,0
 118 284 118 284 86.5 315 c 128,-1,1
86.5 16 m 128,-1,13
 55 47 55 47 55 94 c 0,14,15
 55 139 55 139 86.5 170 c 128,-1,16
 118 201 118 201 163 201 c 0,17,18
 207 201 207 201 238.5 170 c 128,-1,19
 270 139 270 139 270 94 c 0,20,21
 270 47 270 47 238.5 16 c 128,-1,22
 207 -15 207 -15 163 -15 c 0,23,12
 118 -15 118 -15 86.5 16 c 128,-1,13
EndSplineSet
Substitution2: "'ss06' Style Set 6 in Latin lookup 30 subtable" colon.ss06
Substitution2: "'case' Case-Sensitive Forms in Latin lookup 23 subtable" colon.case
AlternateSubs2: "'aalt' Access All Alternates in Latin lookup 1 subtable" colon.case colon.ss06
EndChar

StartChar: period
Encoding: 46 46 305
Width: 325
GlyphClass: 1
Flags: W
LayerCount: 2
Fore
SplineSet
86.5 16 m 128,-1,1
 55 47 55 47 55 94 c 0,2,3
 55 139 55 139 86.5 170 c 128,-1,4
 118 201 118 201 163 201 c 0,5,6
 207 201 207 201 238.5 170 c 128,-1,7
 270 139 270 139 270 94 c 0,8,9
 270 47 270 47 238.5 16 c 128,-1,10
 207 -15 207 -15 163 -15 c 0,11,0
 118 -15 118 -15 86.5 16 c 128,-1,1
EndSplineSet
Substitution2: "'ss06' Style Set 6 in Latin lookup 30 subtable" period.ss06
Substitution2: "'aalt' Access All Alternates in Latin lookup 0 subtable" period.ss06
EndChar

StartChar: ellipsis
Encoding: 8230 8230 306
Width: 825
GlyphClass: 1
Flags: W
LayerCount: 2
Fore
SplineSet
86.5 16 m 128,-1,1
 55 47 55 47 55 94 c 0,2,3
 55 139 55 139 86.5 170 c 128,-1,4
 118 201 118 201 163 201 c 0,5,6
 207 201 207 201 238.5 170 c 128,-1,7
 270 139 270 139 270 94 c 0,8,9
 270 47 270 47 238.5 16 c 128,-1,10
 207 -15 207 -15 163 -15 c 0,11,0
 118 -15 118 -15 86.5 16 c 128,-1,1
336.5 16 m 128,-1,13
 305 47 305 47 305 94 c 0,14,15
 305 139 305 139 336.5 170 c 128,-1,16
 368 201 368 201 413 201 c 0,17,18
 442 201 442 201 466.5 187 c 128,-1,19
 491 173 491 173 505.5 148.5 c 128,-1,20
 520 124 520 124 520 94 c 0,21,22
 520 47 520 47 488.5 16 c 128,-1,23
 457 -15 457 -15 413 -15 c 0,24,12
 368 -15 368 -15 336.5 16 c 128,-1,13
586.5 16 m 128,-1,26
 555 47 555 47 555 94 c 0,27,28
 555 139 555 139 586.5 170 c 128,-1,29
 618 201 618 201 663 201 c 0,30,31
 707 201 707 201 738.5 170 c 128,-1,32
 770 139 770 139 770 94 c 0,33,34
 770 47 770 47 738.5 16 c 128,-1,35
 707 -15 707 -15 663 -15 c 0,36,25
 618 -15 618 -15 586.5 16 c 128,-1,26
EndSplineSet
Substitution2: "'ss06' Style Set 6 in Latin lookup 30 subtable" ellipsis.ss06
Substitution2: "'aalt' Access All Alternates in Latin lookup 0 subtable" ellipsis.ss06
EndChar

StartChar: hyphen
Encoding: 45 45 307
Width: 370
GlyphClass: 1
Flags: W
LayerCount: 2
Fore
SplineSet
30 356 m 1,0,-1
 340 356 l 1,1,-1
 340 194 l 1,2,-1
 30 194 l 1,3,-1
 30 356 l 1,0,-1
EndSplineSet
Substitution2: "'case' Case-Sensitive Forms in Latin lookup 23 subtable" hyphen.case
Substitution2: "'aalt' Access All Alternates in Latin lookup 0 subtable" hyphen.case
EndChar

StartChar: exclam
Encoding: 33 33 308
Width: 371
GlyphClass: 1
Flags: W
LayerCount: 2
Fore
SplineSet
70 705 m 1,0,-1
 301 705 l 1,1,-1
 262 223 l 1,2,-1
 111 223 l 1,3,-1
 70 705 l 1,0,-1
114.5 12 m 128,-1,5
 86 39 86 39 86 85 c 256,6,7
 86 131 86 131 114.5 158 c 128,-1,8
 143 185 143 185 186 185 c 256,9,10
 229 185 229 185 257.5 158 c 128,-1,11
 286 131 286 131 286 85 c 256,12,13
 286 39 286 39 257.5 12 c 128,-1,14
 229 -15 229 -15 186 -15 c 256,15,4
 143 -15 143 -15 114.5 12 c 128,-1,5
EndSplineSet
Substitution2: "'ss06' Style Set 6 in Latin lookup 30 subtable" exclam.ss06
Substitution2: "'aalt' Access All Alternates in Latin lookup 0 subtable" exclam.ss06
EndChar

StartChar: question
Encoding: 63 63 310
Width: 571
GlyphClass: 1
Flags: W
LayerCount: 2
Fore
SplineSet
198.5 12 m 128,-1,1
 170 39 170 39 170 85 c 256,2,3
 170 131 170 131 198.5 158 c 128,-1,4
 227 185 227 185 270 185 c 256,5,6
 313 185 313 185 341.5 158 c 128,-1,7
 370 131 370 131 370 85 c 256,8,9
 370 39 370 39 341.5 12 c 128,-1,10
 313 -15 313 -15 270 -15 c 256,11,0
 227 -15 227 -15 198.5 12 c 128,-1,1
186 332 m 128,-1,13
 198 355 198 355 228 377 c 2,14,-1
 311 437 l 2,15,16
 335 455 335 455 345.5 473 c 128,-1,17
 356 491 356 491 356 515 c 0,18,19
 356 544 356 544 338.5 561.5 c 128,-1,20
 321 579 321 579 292 579 c 0,21,22
 258 579 258 579 238 558 c 128,-1,23
 218 537 218 537 215 499 c 1,24,-1
 25 499 l 1,25,26
 29 604 29 604 100 662 c 128,-1,27
 171 720 171 720 295 720 c 0,28,29
 412 720 412 720 479 668.5 c 128,-1,30
 546 617 546 617 546 521 c 0,31,32
 546 470 546 470 526 434 c 128,-1,33
 506 398 506 398 463 365 c 2,34,-1
 391 310 l 2,35,36
 376 299 376 299 371 287.5 c 128,-1,37
 366 276 366 276 366 254 c 2,38,-1
 366 223 l 1,39,-1
 174 223 l 1,40,-1
 174 276 l 2,41,12
 174 309 174 309 186 332 c 128,-1,13
EndSplineSet
Substitution2: "'ss06' Style Set 6 in Latin lookup 30 subtable" question.ss06
Substitution2: "'aalt' Access All Alternates in Latin lookup 0 subtable" question.ss06
EndChar

StartChar: quoteleft
Encoding: 8216 8216 312
Width: 304
GlyphClass: 1
Flags: W
LayerCount: 2
Fore
SplineSet
175.5 624.5 m 128,-1,1
 158 584 158 584 153 540 c 1,2,-1
 103 501 l 1,3,4
 108 533 108 533 125 549 c 128,-1,5
 142 565 142 565 173 565 c 0,6,7
 210 565 210 565 234.5 540 c 128,-1,8
 259 515 259 515 259 478 c 0,9,10
 259 434 259 434 231 407 c 128,-1,11
 203 380 203 380 158 380 c 0,12,13
 107 380 107 380 76 416 c 128,-1,14
 45 452 45 452 45 512 c 0,15,16
 45 558 45 558 61.5 607 c 128,-1,17
 78 656 78 656 114 715 c 1,18,-1
 228 715 l 1,19,0
 193 665 193 665 175.5 624.5 c 128,-1,1
EndSplineSet
Substitution2: "'ss06' Style Set 6 in Latin lookup 30 subtable" quoteleft.ss06
Substitution2: "'aalt' Access All Alternates in Latin lookup 0 subtable" quoteleft.ss06
EndChar

StartChar: quoteright
Encoding: 8217 8217 313
Width: 304
GlyphClass: 1
Flags: W
LayerCount: 2
Fore
SplineSet
128.5 470.5 m 128,-1,1
 146 511 146 511 151 555 c 1,2,-1
 201 594 l 1,3,4
 196 562 196 562 179 546 c 128,-1,5
 162 530 162 530 131 530 c 0,6,7
 94 530 94 530 69.5 555 c 128,-1,8
 45 580 45 580 45 617 c 0,9,10
 45 661 45 661 73 688 c 128,-1,11
 101 715 101 715 146 715 c 0,12,13
 197 715 197 715 228 679 c 128,-1,14
 259 643 259 643 259 583 c 0,15,16
 259 537 259 537 242.5 488 c 128,-1,17
 226 439 226 439 190 380 c 1,18,-1
 76 380 l 1,19,0
 111 430 111 430 128.5 470.5 c 128,-1,1
EndSplineSet
Substitution2: "'ss06' Style Set 6 in Latin lookup 30 subtable" quoteright.ss06
Substitution2: "'aalt' Access All Alternates in Latin lookup 0 subtable" quoteright.ss06
EndChar

StartChar: quotedblleft
Encoding: 8220 8220 314
Width: 568
GlyphClass: 1
Flags: W
LayerCount: 2
Fore
SplineSet
175.5 624.5 m 128,-1,1
 158 584 158 584 153 540 c 1,2,-1
 103 501 l 1,3,4
 108 533 108 533 125 549 c 128,-1,5
 142 565 142 565 173 565 c 0,6,7
 210 565 210 565 234.5 540 c 128,-1,8
 259 515 259 515 259 478 c 0,9,10
 259 434 259 434 231 407 c 128,-1,11
 203 380 203 380 158 380 c 0,12,13
 107 380 107 380 76 416 c 128,-1,14
 45 452 45 452 45 512 c 0,15,16
 45 558 45 558 61.5 607 c 128,-1,17
 78 656 78 656 114 715 c 1,18,-1
 228 715 l 1,19,0
 193 665 193 665 175.5 624.5 c 128,-1,1
439.5 624.5 m 128,-1,21
 422 584 422 584 417 540 c 1,22,-1
 367 501 l 1,23,24
 372 533 372 533 389 549 c 128,-1,25
 406 565 406 565 437 565 c 0,26,27
 474 565 474 565 498.5 540 c 128,-1,28
 523 515 523 515 523 478 c 0,29,30
 523 434 523 434 495 407 c 128,-1,31
 467 380 467 380 422 380 c 0,32,33
 371 380 371 380 340 416 c 128,-1,34
 309 452 309 452 309 512 c 0,35,36
 309 558 309 558 325.5 607 c 128,-1,37
 342 656 342 656 378 715 c 1,38,-1
 492 715 l 1,39,20
 457 665 457 665 439.5 624.5 c 128,-1,21
EndSplineSet
Substitution2: "'ss06' Style Set 6 in Latin lookup 30 subtable" quotedblleft.ss06
Substitution2: "'aalt' Access All Alternates in Latin lookup 0 subtable" quotedblleft.ss06
EndChar

StartChar: quotedblright
Encoding: 8221 8221 315
Width: 568
GlyphClass: 1
Flags: W
LayerCount: 2
Fore
SplineSet
392.5 470.5 m 128,-1,1
 410 511 410 511 415 555 c 1,2,-1
 465 594 l 1,3,4
 460 562 460 562 443 546 c 128,-1,5
 426 530 426 530 395 530 c 0,6,7
 358 530 358 530 333.5 555 c 128,-1,8
 309 580 309 580 309 617 c 0,9,10
 309 661 309 661 337 688 c 128,-1,11
 365 715 365 715 410 715 c 0,12,13
 461 715 461 715 492 679 c 128,-1,14
 523 643 523 643 523 583 c 0,15,16
 523 537 523 537 506.5 488 c 128,-1,17
 490 439 490 439 454 380 c 1,18,-1
 340 380 l 1,19,0
 375 430 375 430 392.5 470.5 c 128,-1,1
128.5 470.5 m 128,-1,21
 146 511 146 511 151 555 c 1,22,-1
 201 594 l 1,23,24
 196 562 196 562 179 546 c 128,-1,25
 162 530 162 530 131 530 c 0,26,27
 94 530 94 530 69.5 555 c 128,-1,28
 45 580 45 580 45 617 c 0,29,30
 45 661 45 661 73 688 c 128,-1,31
 101 715 101 715 146 715 c 0,32,33
 197 715 197 715 228 679 c 128,-1,34
 259 643 259 643 259 583 c 0,35,36
 259 537 259 537 242.5 488 c 128,-1,37
 226 439 226 439 190 380 c 1,38,-1
 76 380 l 1,39,20
 111 430 111 430 128.5 470.5 c 128,-1,21
EndSplineSet
Substitution2: "'ss06' Style Set 6 in Latin lookup 30 subtable" quotedblright.ss06
Substitution2: "'aalt' Access All Alternates in Latin lookup 0 subtable" quotedblright.ss06
EndChar

StartChar: quotesinglbase
Encoding: 8218 8218 316
Width: 304
GlyphClass: 1
Flags: W
LayerCount: 2
Fore
SplineSet
128.5 -54.5 m 128,-1,1
 146 -14 146 -14 151 30 c 1,2,-1
 201 69 l 1,3,4
 196 37 196 37 179 21 c 128,-1,5
 162 5 162 5 131 5 c 0,6,7
 94 5 94 5 69.5 30 c 128,-1,8
 45 55 45 55 45 92 c 0,9,10
 45 136 45 136 73 163 c 128,-1,11
 101 190 101 190 146 190 c 0,12,13
 197 190 197 190 228 154 c 128,-1,14
 259 118 259 118 259 58 c 0,15,16
 259 12 259 12 242.5 -37 c 128,-1,17
 226 -86 226 -86 190 -145 c 1,18,-1
 76 -145 l 1,19,0
 111 -95 111 -95 128.5 -54.5 c 128,-1,1
EndSplineSet
Substitution2: "'ss06' Style Set 6 in Latin lookup 30 subtable" quotesinglbase.ss06
Substitution2: "'aalt' Access All Alternates in Latin lookup 0 subtable" quotesinglbase.ss06
EndChar

StartChar: quotedblbase
Encoding: 8222 8222 317
Width: 568
GlyphClass: 1
Flags: W
LayerCount: 2
Fore
SplineSet
392.5 -54.5 m 128,-1,1
 410 -14 410 -14 415 30 c 1,2,-1
 465 69 l 1,3,4
 460 37 460 37 443 21 c 128,-1,5
 426 5 426 5 395 5 c 0,6,7
 358 5 358 5 333.5 30 c 128,-1,8
 309 55 309 55 309 92 c 0,9,10
 309 136 309 136 337 163 c 128,-1,11
 365 190 365 190 410 190 c 0,12,13
 461 190 461 190 492 154 c 128,-1,14
 523 118 523 118 523 58 c 0,15,16
 523 12 523 12 506.5 -37 c 128,-1,17
 490 -86 490 -86 454 -145 c 1,18,-1
 340 -145 l 1,19,0
 375 -95 375 -95 392.5 -54.5 c 128,-1,1
128.5 -54.5 m 128,-1,21
 146 -14 146 -14 151 30 c 1,22,-1
 201 69 l 1,23,24
 196 37 196 37 179 21 c 128,-1,25
 162 5 162 5 131 5 c 0,26,27
 94 5 94 5 69.5 30 c 128,-1,28
 45 55 45 55 45 92 c 0,29,30
 45 136 45 136 73 163 c 128,-1,31
 101 190 101 190 146 190 c 0,32,33
 197 190 197 190 228 154 c 128,-1,34
 259 118 259 118 259 58 c 0,35,36
 259 12 259 12 242.5 -37 c 128,-1,37
 226 -86 226 -86 190 -145 c 1,38,-1
 76 -145 l 1,39,20
 111 -95 111 -95 128.5 -54.5 c 128,-1,21
EndSplineSet
Substitution2: "'ss06' Style Set 6 in Latin lookup 30 subtable" quotedblbase.ss06
Substitution2: "'aalt' Access All Alternates in Latin lookup 0 subtable" quotedblbase.ss06
EndChar

StartChar: guilsinglleft
Encoding: 8249 8249 318
Width: 413
GlyphClass: 1
Flags: W
LayerCount: 2
Fore
SplineSet
55 210 m 1,0,-1
 55 338 l 1,1,-1
 192 494 l 1,2,-1
 368 494 l 1,3,-1
 138 241 l 1,4,-1
 138 307 l 1,5,-1
 368 54 l 1,6,-1
 192 54 l 1,7,-1
 55 210 l 1,0,-1
EndSplineSet
Substitution2: "'case' Case-Sensitive Forms in Latin lookup 23 subtable" guilsinglleft.case
Substitution2: "'aalt' Access All Alternates in Latin lookup 0 subtable" guilsinglleft.case
EndChar

StartChar: slash
Encoding: 47 47 321
Width: 484
GlyphClass: 1
Flags: W
LayerCount: 2
Fore
SplineSet
310 770 m 1,0,-1
 479 770 l 1,1,-1
 176 -100 l 1,2,-1
 5 -100 l 1,3,-1
 310 770 l 1,0,-1
EndSplineSet
Substitution2: "'case' Case-Sensitive Forms in Latin lookup 23 subtable" slash.case
Substitution2: "'frac' Diagonal Fractions in Latin lookup 16 subtable" fraction
AlternateSubs2: "'aalt' Access All Alternates in Latin lookup 1 subtable" fraction slash.case
EndChar

StartChar: bar
Encoding: 124 124 322
Width: 290
GlyphClass: 1
Flags: W
LayerCount: 2
Fore
SplineSet
65 770 m 1,0,-1
 225 770 l 1,1,-1
 225 -100 l 1,2,-1
 65 -100 l 1,3,-1
 65 770 l 1,0,-1
EndSplineSet
Substitution2: "'case' Case-Sensitive Forms in Latin lookup 23 subtable" bar.case
Substitution2: "'aalt' Access All Alternates in Latin lookup 0 subtable" bar.case
EndChar

StartChar: endash
Encoding: 8211 8211 323
Width: 500
GlyphClass: 1
Flags: W
LayerCount: 2
Fore
SplineSet
0 361 m 1,0,-1
 500 361 l 1,1,-1
 500 189 l 1,2,-1
 0 189 l 1,3,-1
 0 361 l 1,0,-1
EndSplineSet
Substitution2: "'case' Case-Sensitive Forms in Latin lookup 23 subtable" endash.case
Substitution2: "'aalt' Access All Alternates in Latin lookup 0 subtable" endash.case
EndChar

StartChar: emdash
Encoding: 8212 8212 324
Width: 1000
GlyphClass: 1
Flags: W
LayerCount: 2
Fore
SplineSet
0 361 m 1,0,-1
 1000 361 l 1,1,-1
 1000 189 l 1,2,-1
 0 189 l 1,3,-1
 0 361 l 1,0,-1
EndSplineSet
Substitution2: "'case' Case-Sensitive Forms in Latin lookup 23 subtable" emdash.case
Substitution2: "'aalt' Access All Alternates in Latin lookup 0 subtable" emdash.case
EndChar

StartChar: bullet
Encoding: 8226 8226 325
Width: 464
GlyphClass: 1
Flags: W
LayerCount: 2
Fore
SplineSet
143.5 117 m 128,-1,1
 102 142 102 142 78.5 184 c 128,-1,2
 55 226 55 226 55 275 c 0,3,4
 55 323 55 323 79 364 c 128,-1,5
 103 405 103 405 144 429.5 c 128,-1,6
 185 454 185 454 234 454 c 0,7,8
 282 454 282 454 322.5 429.5 c 128,-1,9
 363 405 363 405 386 364 c 128,-1,10
 409 323 409 323 409 275 c 0,11,12
 409 226 409 226 386 184 c 128,-1,13
 363 142 363 142 323 117 c 128,-1,14
 283 92 283 92 234 92 c 256,15,0
 185 92 185 92 143.5 117 c 128,-1,1
EndSplineSet
Substitution2: "'ss06' Style Set 6 in Latin lookup 30 subtable" bullet.ss06
Substitution2: "'case' Case-Sensitive Forms in Latin lookup 23 subtable" bullet.case
AlternateSubs2: "'aalt' Access All Alternates in Latin lookup 1 subtable" bullet.case bullet.ss06
EndChar

StartChar: parenleft
Encoding: 40 40 326
Width: 380
GlyphClass: 1
Flags: W
LayerCount: 2
Fore
SplineSet
97 102 m 128,-1,1
 55 214 55 214 55 335 c 256,2,3
 55 456 55 456 97 568 c 128,-1,4
 139 680 139 680 220 770 c 1,5,-1
 360 770 l 1,6,7
 295 681 295 681 260 568.5 c 128,-1,8
 225 456 225 456 225 335 c 256,9,10
 225 214 225 214 260 101.5 c 128,-1,11
 295 -11 295 -11 360 -100 c 1,12,-1
 220 -100 l 1,13,0
 139 -10 139 -10 97 102 c 128,-1,1
EndSplineSet
Substitution2: "'case' Case-Sensitive Forms in Latin lookup 23 subtable" parenleft.case
Substitution2: "'sups' Superscript in Latin lookup 13 subtable" uni207D
Substitution2: "'sinf' Scientific Inferiors in Latin lookup 12 subtable" uni208D
Substitution2: "'subs' Subscript in Latin lookup 11 subtable" uni208D
AlternateSubs2: "'aalt' Access All Alternates in Latin lookup 1 subtable" uni208D uni207D parenleft.case
EndChar

StartChar: bracketleft
Encoding: 91 91 328
Width: 403
GlyphClass: 1
Flags: W
LayerCount: 2
Fore
SplineSet
105 770 m 1,0,-1
 265 770 l 1,1,-1
 265 -100 l 1,2,-1
 105 -100 l 1,3,-1
 105 770 l 1,0,-1
185 23 m 1,4,-1
 393 23 l 1,5,-1
 393 -100 l 1,6,-1
 265 -100 l 1,7,-1
 185 23 l 1,4,-1
265 770 m 1,8,-1
 393 770 l 1,9,-1
 393 647 l 1,10,-1
 185 647 l 1,11,-1
 265 770 l 1,8,-1
EndSplineSet
Substitution2: "'case' Case-Sensitive Forms in Latin lookup 23 subtable" bracketleft.case
Substitution2: "'aalt' Access All Alternates in Latin lookup 0 subtable" bracketleft.case
EndChar

StartChar: braceleft
Encoding: 123 123 330
Width: 380
GlyphClass: 1
Flags: W
LayerCount: 2
Fore
SplineSet
167.5 -58 m 128,-1,1
 121 -16 121 -16 121 66 c 2,2,-1
 121 200 l 2,3,4
 121 234 121 234 104.5 254.5 c 128,-1,5
 88 275 88 275 59 275 c 2,6,-1
 30 275 l 1,7,-1
 30 395 l 1,8,-1
 59 395 l 2,9,10
 88 395 88 395 104.5 415.5 c 128,-1,11
 121 436 121 436 121 470 c 2,12,-1
 121 604 l 2,13,14
 121 686 121 686 167.5 728 c 128,-1,15
 214 770 214 770 305 770 c 2,16,-1
 370 770 l 1,17,-1
 370 646 l 1,18,-1
 337 646 l 2,19,20
 306 646 306 646 291 631 c 128,-1,21
 276 616 276 616 276 587 c 2,22,-1
 276 451 l 2,23,24
 276 404 276 404 255 376.5 c 128,-1,25
 234 349 234 349 183 340 c 1,26,-1
 183 330 l 1,27,28
 234 321 234 321 255 293.5 c 128,-1,29
 276 266 276 266 276 219 c 2,30,-1
 276 83 l 2,31,32
 276 54 276 54 291 39 c 128,-1,33
 306 24 306 24 337 24 c 2,34,-1
 370 24 l 1,35,-1
 370 -100 l 1,36,-1
 305 -100 l 2,37,0
 214 -100 214 -100 167.5 -58 c 128,-1,1
EndSplineSet
Substitution2: "'case' Case-Sensitive Forms in Latin lookup 23 subtable" braceleft.case
Substitution2: "'aalt' Access All Alternates in Latin lookup 0 subtable" braceleft.case
EndChar

StartChar: zero
Encoding: 48 48 335
Width: 716
GlyphClass: 1
Flags: W
LayerCount: 2
Fore
SplineSet
207 22.5 m 128,-1,1
 140 60 140 60 100 142.5 c 128,-1,2
 60 225 60 225 60 353 c 256,3,4
 60 481 60 481 100 563 c 128,-1,5
 140 645 140 645 207 682.5 c 128,-1,6
 274 720 274 720 358 720 c 256,7,8
 442 720 442 720 509 682.5 c 128,-1,9
 576 645 576 645 616 563 c 128,-1,10
 656 481 656 481 656 353 c 256,11,12
 656 225 656 225 616 142.5 c 128,-1,13
 576 60 576 60 509 22.5 c 128,-1,14
 442 -15 442 -15 358 -15 c 256,15,0
 274 -15 274 -15 207 22.5 c 128,-1,1
438.5 180.5 m 128,-1,17
 461 236 461 236 461 353 c 0,18,19
 461 469 461 469 438.5 524.5 c 128,-1,20
 416 580 416 580 358 580 c 256,21,22
 300 580 300 580 277.5 524.5 c 128,-1,23
 255 469 255 469 255 353 c 0,24,25
 255 236 255 236 277.5 180.5 c 128,-1,26
 300 125 300 125 358 125 c 256,27,16
 416 125 416 125 438.5 180.5 c 128,-1,17
EndSplineSet
Substitution2: "'ss07' Style Set 7 in Latin lookup 31 subtable" zero.zero
Substitution2: "'zero' Slashed Zero in Latin lookup 25 subtable" zero.zero
Substitution2: "'tnum' Tabular Numbers in Latin lookup 22 subtable" zero.tf
Substitution2: "'frac' Diagonal Fractions in Latin lookup 17 subtable" zero.numr
Substitution2: "'dnom' Denominators in Latin lookup 15 subtable" zero.dnom
Substitution2: "'numr' Numerators in Latin lookup 14 subtable" zero.numr
Substitution2: "'sups' Superscript in Latin lookup 13 subtable" uni2070
Substitution2: "'sinf' Scientific Inferiors in Latin lookup 12 subtable" uni2080
Substitution2: "'subs' Subscript in Latin lookup 11 subtable" uni2080
AlternateSubs2: "'aalt' Access All Alternates in Latin lookup 1 subtable" zero.zero zero.tf zero.dnom zero.numr uni2080 uni2070
EndChar

StartChar: one
Encoding: 49 49 336
Width: 494
GlyphClass: 1
Flags: W
LayerCount: 2
Fore
SplineSet
199 430 m 1,0,-1
 25 430 l 1,1,-1
 25 548 l 1,2,3
 98 552 98 552 141.5 567 c 128,-1,4
 185 582 185 582 208.5 614 c 128,-1,5
 232 646 232 646 241 705 c 1,6,-1
 389 705 l 1,7,-1
 389 0 l 1,8,-1
 199 0 l 1,9,-1
 199 430 l 1,0,-1
EndSplineSet
Substitution2: "'tnum' Tabular Numbers in Latin lookup 22 subtable" one.tf
Substitution2: "'frac' Diagonal Fractions in Latin lookup 17 subtable" one.numr
Substitution2: "'dnom' Denominators in Latin lookup 15 subtable" one.dnom
Substitution2: "'numr' Numerators in Latin lookup 14 subtable" one.numr
Substitution2: "'sups' Superscript in Latin lookup 13 subtable" uni00B9
Substitution2: "'sinf' Scientific Inferiors in Latin lookup 12 subtable" uni2081
Substitution2: "'subs' Subscript in Latin lookup 11 subtable" uni2081
AlternateSubs2: "'aalt' Access All Alternates in Latin lookup 1 subtable" one.tf one.dnom one.numr uni2081 uni00B9
EndChar

StartChar: two
Encoding: 50 50 337
Width: 676
GlyphClass: 1
Flags: W
LayerCount: 2
Fore
SplineSet
65 65 m 0,1,2
 65 156 65 156 101.5 223.5 c 128,-1,3
 138 291 138 291 237 343 c 2,4,-1
 339 397 l 2,5,6
 379 419 379 419 399 444.5 c 128,-1,7
 419 470 419 470 419 506 c 0,8,9
 419 544 419 544 399.5 564.5 c 128,-1,10
 380 585 380 585 343 585 c 256,11,12
 306 585 306 585 283 562.5 c 128,-1,13
 260 540 260 540 255 494 c 1,14,-1
 60 494 l 1,15,16
 79 606 79 606 150 663 c 128,-1,17
 221 720 221 720 349 720 c 0,18,19
 466 720 466 720 533.5 665.5 c 128,-1,20
 601 611 601 611 601 507 c 0,21,22
 601 436 601 436 564 380.5 c 128,-1,23
 527 325 527 325 452 282 c 2,24,-1
 326 211 l 2,25,26
 297 195 297 195 284 177.5 c 128,-1,27
 271 160 271 160 269 139 c 1,28,-1
 601 139 l 1,29,-1
 601 0 l 1,30,-1
 70 0 l 1,31,0
 65 28 65 28 65 65 c 0,1,2
EndSplineSet
Substitution2: "'tnum' Tabular Numbers in Latin lookup 22 subtable" two.tf
Substitution2: "'frac' Diagonal Fractions in Latin lookup 17 subtable" two.numr
Substitution2: "'dnom' Denominators in Latin lookup 15 subtable" two.dnom
Substitution2: "'numr' Numerators in Latin lookup 14 subtable" two.numr
Substitution2: "'sups' Superscript in Latin lookup 13 subtable" uni00B2
Substitution2: "'sinf' Scientific Inferiors in Latin lookup 12 subtable" uni2082
Substitution2: "'subs' Subscript in Latin lookup 11 subtable" uni2082
AlternateSubs2: "'aalt' Access All Alternates in Latin lookup 1 subtable" two.tf two.dnom two.numr uni2082 uni00B2
EndChar

StartChar: three
Encoding: 51 51 338
Width: 675
GlyphClass: 1
Flags: W
LayerCount: 2
Fore
SplineSet
132 41 m 128,-1,1
 61 97 61 97 45 188 c 1,2,-1
 243 188 l 1,3,4
 249 156 249 156 271 137 c 128,-1,5
 293 118 293 118 331 118 c 256,6,7
 369 118 369 118 392 140 c 128,-1,8
 415 162 415 162 415 203 c 0,9,10
 415 246 415 246 391 271 c 128,-1,11
 367 296 367 296 311 296 c 2,12,-1
 247 296 l 1,13,-1
 247 429 l 1,14,-1
 306 429 l 2,15,16
 357 429 357 429 380.5 453 c 128,-1,17
 404 477 404 477 404 510 c 0,18,19
 404 547 404 547 383.5 567 c 128,-1,20
 363 587 363 587 328 587 c 256,21,22
 293 587 293 587 273.5 568.5 c 128,-1,23
 254 550 254 550 252 520 c 1,24,-1
 54 520 l 1,25,26
 61 582 61 582 95.5 627 c 128,-1,27
 130 672 130 672 190 696 c 128,-1,28
 250 720 250 720 331 720 c 0,29,30
 407 720 407 720 468 697 c 128,-1,31
 529 674 529 674 564 631 c 128,-1,32
 599 588 599 588 599 532 c 0,33,34
 599 471 599 471 561.5 429 c 128,-1,35
 524 387 524 387 454 373 c 1,36,-1
 454 363 l 1,37,38
 530 353 530 353 570 312.5 c 128,-1,39
 610 272 610 272 610 200 c 0,40,41
 610 132 610 132 573 83.5 c 128,-1,42
 536 35 536 35 472.5 10 c 128,-1,43
 409 -15 409 -15 329 -15 c 0,44,0
 203 -15 203 -15 132 41 c 128,-1,1
EndSplineSet
Substitution2: "'tnum' Tabular Numbers in Latin lookup 22 subtable" three.tf
Substitution2: "'frac' Diagonal Fractions in Latin lookup 17 subtable" three.numr
Substitution2: "'dnom' Denominators in Latin lookup 15 subtable" three.dnom
Substitution2: "'numr' Numerators in Latin lookup 14 subtable" three.numr
Substitution2: "'sups' Superscript in Latin lookup 13 subtable" uni00B3
Substitution2: "'sinf' Scientific Inferiors in Latin lookup 12 subtable" uni2083
Substitution2: "'subs' Subscript in Latin lookup 11 subtable" uni2083
AlternateSubs2: "'aalt' Access All Alternates in Latin lookup 1 subtable" three.tf three.dnom three.numr uni2083 uni00B3
EndChar

StartChar: four
Encoding: 52 52 339
Width: 672
GlyphClass: 1
Flags: W
LayerCount: 2
Fore
SplineSet
346 117 m 1,0,-1
 30 117 l 1,1,-1
 30 270 l 1,2,-1
 317 705 l 1,3,-1
 536 705 l 1,4,-1
 536 260 l 1,5,-1
 637 260 l 1,6,-1
 637 117 l 1,7,-1
 536 117 l 1,8,-1
 536 0 l 1,9,-1
 346 0 l 1,10,-1
 346 117 l 1,0,-1
346 260 m 1,11,-1
 346 452 l 1,12,-1
 346 540 l 1,13,-1
 336 540 l 1,14,15
 323 504 323 504 303 470 c 0,16,17
 293 451 293 451 271 417 c 2,18,-1
 175 270 l 1,19,-1
 175 260 l 1,20,-1
 346 260 l 1,11,-1
EndSplineSet
Substitution2: "'tnum' Tabular Numbers in Latin lookup 22 subtable" four.tf
Substitution2: "'frac' Diagonal Fractions in Latin lookup 17 subtable" four.numr
Substitution2: "'dnom' Denominators in Latin lookup 15 subtable" four.dnom
Substitution2: "'numr' Numerators in Latin lookup 14 subtable" four.numr
Substitution2: "'sups' Superscript in Latin lookup 13 subtable" uni2074
Substitution2: "'sinf' Scientific Inferiors in Latin lookup 12 subtable" uni2084
Substitution2: "'subs' Subscript in Latin lookup 11 subtable" uni2084
AlternateSubs2: "'aalt' Access All Alternates in Latin lookup 1 subtable" four.tf four.dnom four.numr uni2084 uni2074
EndChar

StartChar: five
Encoding: 53 53 340
Width: 660
GlyphClass: 1
Flags: W
LayerCount: 2
Fore
SplineSet
187.5 10 m 128,-1,1
 130 35 130 35 95 78 c 128,-1,2
 60 121 60 121 55 172 c 1,3,-1
 250 172 l 1,4,5
 256 143 256 143 273.5 130.5 c 128,-1,6
 291 118 291 118 317 118 c 0,7,8
 354 118 354 118 374.5 145.5 c 128,-1,9
 395 173 395 173 395 239 c 0,10,11
 395 295 395 295 377.5 324 c 128,-1,12
 360 353 360 353 323 353 c 0,13,14
 304 353 304 353 288 342 c 128,-1,15
 272 331 272 331 264 313 c 1,16,-1
 73 313 l 1,17,-1
 137 705 l 1,18,-1
 570 705 l 1,19,-1
 570 560 l 1,20,-1
 269 560 l 1,21,-1
 243 403 l 1,22,-1
 253 403 l 1,23,24
 274 441 274 441 309.5 456.5 c 128,-1,25
 345 472 345 472 394 472 c 0,26,27
 453 472 453 472 497.5 444.5 c 128,-1,28
 542 417 542 417 566 365 c 128,-1,29
 590 313 590 313 590 241 c 0,30,31
 590 157 590 157 554.5 99.5 c 128,-1,32
 519 42 519 42 457 13.5 c 128,-1,33
 395 -15 395 -15 315 -15 c 0,34,0
 245 -15 245 -15 187.5 10 c 128,-1,1
EndSplineSet
Substitution2: "'tnum' Tabular Numbers in Latin lookup 22 subtable" five.tf
Substitution2: "'frac' Diagonal Fractions in Latin lookup 17 subtable" five.numr
Substitution2: "'dnom' Denominators in Latin lookup 15 subtable" five.dnom
Substitution2: "'numr' Numerators in Latin lookup 14 subtable" five.numr
Substitution2: "'sups' Superscript in Latin lookup 13 subtable" uni2075
Substitution2: "'sinf' Scientific Inferiors in Latin lookup 12 subtable" uni2085
Substitution2: "'subs' Subscript in Latin lookup 11 subtable" uni2085
AlternateSubs2: "'aalt' Access All Alternates in Latin lookup 1 subtable" five.tf five.dnom five.numr uni2085 uni2075
EndChar

StartChar: six
Encoding: 54 54 341
Width: 690
GlyphClass: 1
Flags: W
LayerCount: 2
Fore
SplineSet
200 32 m 128,-1,1
 134 79 134 79 99.5 162 c 128,-1,2
 65 245 65 245 65 353 c 0,3,4
 65 472 65 472 101.5 554.5 c 128,-1,5
 138 637 138 637 205.5 678.5 c 128,-1,6
 273 720 273 720 367 720 c 0,7,8
 439 720 439 720 492.5 694.5 c 128,-1,9
 546 669 546 669 577 630.5 c 128,-1,10
 608 592 608 592 619 552 c 1,11,-1
 422 552 l 1,12,13
 413 570 413 570 398 578.5 c 128,-1,14
 383 587 383 587 363 587 c 0,15,16
 313 587 313 587 287.5 541 c 128,-1,17
 262 495 262 495 262 393 c 1,18,-1
 272 393 l 1,19,20
 292 430 292 430 334.5 451 c 128,-1,21
 377 472 377 472 427 472 c 0,22,23
 485 472 485 472 531.5 443.5 c 128,-1,24
 578 415 578 415 604 363.5 c 128,-1,25
 630 312 630 312 630 246 c 0,26,27
 630 170 630 170 597 111 c 128,-1,28
 564 52 564 52 502.5 18.5 c 128,-1,29
 441 -15 441 -15 358 -15 c 0,30,0
 266 -15 266 -15 200 32 c 128,-1,1
412 142 m 128,-1,32
 435 171 435 171 435 229 c 256,33,34
 435 287 435 287 412 316 c 128,-1,35
 389 345 389 345 355 345 c 256,36,37
 321 345 321 345 298 316 c 128,-1,38
 275 287 275 287 275 229 c 256,39,40
 275 171 275 171 298 142 c 128,-1,41
 321 113 321 113 355 113 c 256,42,31
 389 113 389 113 412 142 c 128,-1,32
EndSplineSet
Substitution2: "'tnum' Tabular Numbers in Latin lookup 22 subtable" six.tf
Substitution2: "'frac' Diagonal Fractions in Latin lookup 17 subtable" six.numr
Substitution2: "'dnom' Denominators in Latin lookup 15 subtable" six.dnom
Substitution2: "'numr' Numerators in Latin lookup 14 subtable" six.numr
Substitution2: "'sups' Superscript in Latin lookup 13 subtable" uni2076
Substitution2: "'sinf' Scientific Inferiors in Latin lookup 12 subtable" uni2086
Substitution2: "'subs' Subscript in Latin lookup 11 subtable" uni2086
AlternateSubs2: "'aalt' Access All Alternates in Latin lookup 1 subtable" six.tf six.dnom six.numr uni2086 uni2076
EndChar

StartChar: seven
Encoding: 55 55 342
Width: 595
GlyphClass: 1
Flags: W
LayerCount: 2
Fore
SplineSet
159 205 m 128,-1,1
 187 307 187 307 244 397 c 128,-1,2
 301 487 301 487 386 550 c 1,3,-1
 386 560 l 1,4,-1
 25 560 l 1,5,-1
 25 705 l 1,6,-1
 560 705 l 1,7,-1
 560 537 l 1,8,9
 451 433 451 433 400.5 285 c 128,-1,10
 350 137 350 137 350 0 c 1,11,-1
 131 0 l 1,12,0
 131 103 131 103 159 205 c 128,-1,1
EndSplineSet
Substitution2: "'tnum' Tabular Numbers in Latin lookup 22 subtable" seven.tf
Substitution2: "'frac' Diagonal Fractions in Latin lookup 17 subtable" seven.numr
Substitution2: "'dnom' Denominators in Latin lookup 15 subtable" seven.dnom
Substitution2: "'numr' Numerators in Latin lookup 14 subtable" seven.numr
Substitution2: "'sups' Superscript in Latin lookup 13 subtable" uni2077
Substitution2: "'sinf' Scientific Inferiors in Latin lookup 12 subtable" uni2087
Substitution2: "'subs' Subscript in Latin lookup 11 subtable" uni2087
AlternateSubs2: "'aalt' Access All Alternates in Latin lookup 1 subtable" seven.tf seven.dnom seven.numr uni2087 uni2077
EndChar

StartChar: eight
Encoding: 56 56 343
Width: 706
GlyphClass: 1
Flags: W
LayerCount: 2
Fore
SplineSet
193.5 10.5 m 128,-1,1
 129 36 129 36 97 82 c 128,-1,2
 65 128 65 128 65 188 c 0,3,4
 65 254 65 254 109 300.5 c 128,-1,5
 153 347 153 347 218 356 c 1,6,-1
 218 366 l 1,7,8
 153 381 153 381 117 423 c 128,-1,9
 81 465 81 465 81 525 c 0,10,11
 81 583 81 583 113 627 c 128,-1,12
 145 671 145 671 206.5 695.5 c 128,-1,13
 268 720 268 720 353 720 c 256,14,15
 438 720 438 720 499.5 695.5 c 128,-1,16
 561 671 561 671 593 627 c 128,-1,17
 625 583 625 583 625 525 c 0,18,19
 625 465 625 465 585.5 419 c 128,-1,20
 546 373 546 373 488 366 c 1,21,-1
 488 356 l 1,22,23
 553 347 553 347 597 300.5 c 128,-1,24
 641 254 641 254 641 188 c 0,25,26
 641 128 641 128 609 82 c 128,-1,27
 577 36 577 36 512.5 10.5 c 128,-1,28
 448 -15 448 -15 353 -15 c 256,29,0
 258 -15 258 -15 193.5 10.5 c 128,-1,1
421.5 134 m 128,-1,31
 445 161 445 161 445 205 c 0,32,33
 445 247 445 247 421 275.5 c 128,-1,34
 397 304 397 304 353 304 c 256,35,36
 309 304 309 304 285 275.5 c 128,-1,37
 261 247 261 247 261 205 c 0,38,39
 261 161 261 161 284.5 134 c 128,-1,40
 308 107 308 107 353 107 c 256,41,30
 398 107 398 107 421.5 134 c 128,-1,31
411 444 m 128,-1,43
 432 468 432 468 432 510 c 0,44,45
 432 551 432 551 411 574.5 c 128,-1,46
 390 598 390 598 353 598 c 256,47,48
 316 598 316 598 295 574.5 c 128,-1,49
 274 551 274 551 274 510 c 0,50,51
 274 468 274 468 295 444 c 128,-1,52
 316 420 316 420 353 420 c 256,53,42
 390 420 390 420 411 444 c 128,-1,43
EndSplineSet
Substitution2: "'tnum' Tabular Numbers in Latin lookup 22 subtable" eight.tf
Substitution2: "'frac' Diagonal Fractions in Latin lookup 17 subtable" eight.numr
Substitution2: "'dnom' Denominators in Latin lookup 15 subtable" eight.dnom
Substitution2: "'numr' Numerators in Latin lookup 14 subtable" eight.numr
Substitution2: "'sups' Superscript in Latin lookup 13 subtable" uni2078
Substitution2: "'sinf' Scientific Inferiors in Latin lookup 12 subtable" uni2088
Substitution2: "'subs' Subscript in Latin lookup 11 subtable" uni2088
AlternateSubs2: "'aalt' Access All Alternates in Latin lookup 1 subtable" eight.tf eight.dnom eight.numr uni2088 uni2078
EndChar

StartChar: zero.zero
Encoding: 65541 -1 345
Width: 716
GlyphClass: 1
Flags: W
LayerCount: 2
Fore
SplineSet
207 22.5 m 128,-1,1
 140 60 140 60 100 142.5 c 128,-1,2
 60 225 60 225 60 353 c 256,3,4
 60 481 60 481 100 563 c 128,-1,5
 140 645 140 645 207 682.5 c 128,-1,6
 274 720 274 720 358 720 c 256,7,8
 442 720 442 720 509 682.5 c 128,-1,9
 576 645 576 645 616 563 c 128,-1,10
 656 481 656 481 656 353 c 256,11,12
 656 225 656 225 616 142.5 c 128,-1,13
 576 60 576 60 509 22.5 c 128,-1,14
 442 -15 442 -15 358 -15 c 256,15,0
 274 -15 274 -15 207 22.5 c 128,-1,1
438.5 180.5 m 128,-1,17
 461 236 461 236 461 353 c 0,18,19
 461 469 461 469 438.5 524.5 c 128,-1,20
 416 580 416 580 358 580 c 256,21,22
 300 580 300 580 277.5 524.5 c 128,-1,23
 255 469 255 469 255 353 c 0,24,25
 255 236 255 236 277.5 180.5 c 128,-1,26
 300 125 300 125 358 125 c 256,27,16
 416 125 416 125 438.5 180.5 c 128,-1,17
169 189 m 1,28,-1
 501 613 l 1,29,-1
 546 516 l 1,30,-1
 215 93 l 1,31,-1
 169 189 l 1,28,-1
EndSplineSet
EndChar

StartChar: asterisk
Encoding: 42 42 346
Width: 448
GlyphClass: 1
Flags: W
LayerCount: 2
Fore
SplineSet
54 425 m 1,0,-1
 153 546 l 1,1,-1
 156 517 l 1,2,-1
 13 552 l 1,3,-1
 52 673 l 1,4,-1
 195 616 l 1,5,-1
 170 602 l 1,6,-1
 160 750 l 1,7,-1
 288 750 l 1,8,-1
 278 602 l 1,9,-1
 253 616 l 1,10,-1
 396 673 l 1,11,-1
 435 552 l 1,12,-1
 292 517 l 1,13,-1
 295 546 l 1,14,-1
 394 425 l 1,15,-1
 291 350 l 1,16,-1
 213 472 l 1,17,-1
 235 472 l 1,18,-1
 157 350 l 1,19,-1
 54 425 l 1,0,-1
EndSplineSet
EndChar

StartChar: asciitilde
Encoding: 126 126 347
Width: 600
GlyphClass: 1
Flags: W
LayerCount: 2
Fore
SplineSet
356 237 m 128,-1,1
 336 243 336 243 318 255 c 2,2,-1
 275 283 l 2,3,4
 248 300 248 300 233 300 c 0,5,6
 216 300 216 300 206.5 282.5 c 128,-1,7
 197 265 197 265 197 231 c 1,8,-1
 42 231 l 1,9,10
 42 349 42 349 83.5 412.5 c 128,-1,11
 125 476 125 476 202 476 c 0,12,13
 224 476 224 476 244 470 c 128,-1,14
 264 464 264 464 282 452 c 2,15,-1
 325 424 l 2,16,17
 352 407 352 407 367 407 c 0,18,19
 384 407 384 407 393.5 424.5 c 128,-1,20
 403 442 403 442 403 476 c 1,21,-1
 558 476 l 1,22,23
 558 358 558 358 516.5 294.5 c 128,-1,24
 475 231 475 231 398 231 c 0,25,0
 376 231 376 231 356 237 c 128,-1,1
EndSplineSet
EndChar

StartChar: backslash
Encoding: 92 92 348
Width: 484
GlyphClass: 1
Flags: W
LayerCount: 2
Fore
SplineSet
5 770 m 1,0,-1
 174 770 l 1,1,-1
 479 -100 l 1,2,-1
 308 -100 l 1,3,-1
 5 770 l 1,0,-1
EndSplineSet
Substitution2: "'case' Case-Sensitive Forms in Latin lookup 23 subtable" backslash.case
Substitution2: "'aalt' Access All Alternates in Latin lookup 0 subtable" backslash.case
EndChar

StartChar: quotesingle
Encoding: 39 39 350
Width: 297
GlyphClass: 1
Flags: W
LayerCount: 2
Fore
SplineSet
73 528 m 128,-1,1
 70 538 70 538 65 558 c 0,2,3
 60 577 60 577 57.5 593 c 128,-1,4
 55 609 55 609 55 622 c 0,5,6
 55 667 55 667 81 693.5 c 128,-1,7
 107 720 107 720 148 720 c 0,8,9
 190 720 190 720 216 693.5 c 128,-1,10
 242 667 242 667 242 622 c 0,11,12
 242 600 242 600 235 568 c 0,13,14
 232 553 232 553 227 535.5 c 128,-1,15
 222 518 222 518 216 497 c 2,16,-1
 182 380 l 1,17,-1
 115 380 l 1,18,-1
 81 497 l 2,19,0
 76 518 76 518 73 528 c 128,-1,1
EndSplineSet
Substitution2: "'ss06' Style Set 6 in Latin lookup 30 subtable" quotesingle.ss06
Substitution2: "'aalt' Access All Alternates in Latin lookup 0 subtable" quotesingle.ss06
EndChar

StartChar: uni02BC
Encoding: 700 700 352
Width: 324
GlyphClass: 1
Flags: W
LayerCount: 2
Fore
SplineSet
138.5 470.5 m 128,-1,1
 156 511 156 511 161 555 c 1,2,-1
 211 594 l 1,3,4
 206 562 206 562 189 546 c 128,-1,5
 172 530 172 530 141 530 c 0,6,7
 104 530 104 530 79.5 555 c 128,-1,8
 55 580 55 580 55 617 c 0,9,10
 55 661 55 661 83 688 c 128,-1,11
 111 715 111 715 156 715 c 0,12,13
 207 715 207 715 238 679 c 128,-1,14
 269 643 269 643 269 583 c 0,15,16
 269 537 269 537 252.5 488 c 128,-1,17
 236 439 236 439 200 380 c 1,18,-1
 86 380 l 1,19,0
 121 430 121 430 138.5 470.5 c 128,-1,1
EndSplineSet
Substitution2: "'ss06' Style Set 6 in Latin lookup 30 subtable" uni02BC.ss06
Substitution2: "'aalt' Access All Alternates in Latin lookup 0 subtable" uni02BC.ss06
EndChar

StartChar: ampersand
Encoding: 38 38 353
Width: 811
GlyphClass: 1
Flags: W
LayerCount: 2
Fore
SplineSet
108.5 462.5 m 128,-1,1
 91 499 91 499 91 539 c 0,2,3
 91 591 91 591 123 632 c 128,-1,4
 155 673 155 673 212 696.5 c 128,-1,5
 269 720 269 720 341 720 c 0,6,7
 412 720 412 720 468 698.5 c 128,-1,8
 524 677 524 677 555.5 637.5 c 128,-1,9
 587 598 587 598 587 545 c 0,10,11
 587 488 587 488 545.5 437.5 c 128,-1,12
 504 387 504 387 415 358 c 1,13,-1
 331 446 l 1,14,15
 371 464 371 464 388 485.5 c 128,-1,16
 405 507 405 507 405 542 c 0,17,18
 405 574 405 574 388.5 592 c 128,-1,19
 372 610 372 610 343 610 c 0,20,21
 312 610 312 610 295.5 592.5 c 128,-1,22
 279 575 279 575 279 546 c 0,23,24
 279 526 279 526 290 505 c 128,-1,25
 301 484 301 484 328 457 c 2,26,-1
 796 0 l 1,27,-1
 575 0 l 1,28,-1
 163 390 l 2,29,0
 126 426 126 426 108.5 462.5 c 128,-1,1
154 13 m 128,-1,31
 90 41 90 41 57.5 88 c 128,-1,32
 25 135 25 135 25 193 c 0,33,34
 25 252 25 252 73 305 c 128,-1,35
 121 358 121 358 208 384 c 1,36,-1
 287 304 l 1,37,38
 251 289 251 289 233 263 c 128,-1,39
 215 237 215 237 215 206 c 0,40,41
 215 181 215 181 225.5 161 c 128,-1,42
 236 141 236 141 258.5 129.5 c 128,-1,43
 281 118 281 118 315 118 c 0,44,45
 354 118 354 118 383 134.5 c 128,-1,46
 412 151 412 151 435 181 c 1,47,-1
 540 79 l 1,48,49
 507 35 507 35 450 10 c 128,-1,50
 393 -15 393 -15 308 -15 c 0,51,30
 218 -15 218 -15 154 13 c 128,-1,31
520 291.5 m 128,-1,53
 530 319 530 319 537 354 c 1,54,-1
 713 354 l 1,55,56
 706 292 706 292 685.5 243.5 c 128,-1,57
 665 195 665 195 616 128 c 1,58,-1
 496 246 l 1,59,52
 510 264 510 264 520 291.5 c 128,-1,53
EndSplineSet
EndChar

StartChar: at
Encoding: 64 64 354
Width: 967
GlyphClass: 1
Flags: W
LayerCount: 2
Fore
SplineSet
259.5 -112.5 m 128,-1,1
 162 -60 162 -60 111 35.5 c 128,-1,2
 60 131 60 131 60 258 c 0,3,4
 60 381 60 381 109.5 476.5 c 128,-1,5
 159 572 159 572 256 626 c 128,-1,6
 353 680 353 680 490 680 c 0,7,8
 612 680 612 680 707 634.5 c 128,-1,9
 802 589 802 589 854.5 505.5 c 128,-1,10
 907 422 907 422 907 313 c 0,11,12
 907 232 907 232 885.5 167.5 c 128,-1,13
 864 103 864 103 817 64 c 128,-1,14
 770 25 770 25 698 25 c 0,15,16
 650 25 650 25 611.5 44.5 c 128,-1,17
 573 64 573 64 564 95 c 1,18,-1
 556 95 l 1,19,20
 538 61 538 61 502 46 c 128,-1,21
 466 31 466 31 423 31 c 0,22,23
 361 31 361 31 317.5 60.5 c 128,-1,24
 274 90 274 90 252 142.5 c 128,-1,25
 230 195 230 195 230 263 c 256,26,27
 230 331 230 331 252 383.5 c 128,-1,28
 274 436 274 436 317.5 465.5 c 128,-1,29
 361 495 361 495 423 495 c 0,30,31
 466 495 466 495 501.5 480 c 128,-1,32
 537 465 537 465 552 431 c 1,33,-1
 560 431 l 1,34,-1
 560 483 l 1,35,-1
 703 483 l 1,36,-1
 703 483 l 1,37,-1
 703 179 l 2,38,39
 703 161 703 161 711.5 150.5 c 128,-1,40
 720 140 720 140 736 140 c 0,41,42
 766 140 766 140 782.5 179.5 c 128,-1,43
 799 219 799 219 799 297 c 1,44,-1
 799 297 l 1,45,46
 799 388 799 388 761 451 c 128,-1,47
 723 514 723 514 654 546 c 128,-1,48
 585 578 585 578 492 578 c 0,49,50
 386 578 386 578 313 537 c 128,-1,51
 240 496 240 496 204 424 c 128,-1,52
 168 352 168 352 168 258 c 0,53,54
 168 162 168 162 207 88.5 c 128,-1,55
 246 15 246 15 323 -26 c 128,-1,56
 400 -67 400 -67 510 -67 c 2,57,-1
 722 -67 l 1,58,-1
 722 -165 l 1,59,-1
 495 -165 l 2,60,0
 357 -165 357 -165 259.5 -112.5 c 128,-1,1
533 170 m 128,-1,62
 556 199 556 199 556 263 c 256,63,64
 556 327 556 327 533 356 c 128,-1,65
 510 385 510 385 472 385 c 256,66,67
 434 385 434 385 410.5 355.5 c 128,-1,68
 387 326 387 326 387 263 c 0,69,70
 387 199 387 199 410.5 170 c 128,-1,71
 434 141 434 141 472 141 c 256,72,61
 510 141 510 141 533 170 c 128,-1,62
EndSplineSet
Substitution2: "'case' Case-Sensitive Forms in Latin lookup 23 subtable" at.case
Substitution2: "'aalt' Access All Alternates in Latin lookup 0 subtable" at.case
EndChar

StartChar: copyright
Encoding: 169 169 355
Width: 996
GlyphClass: 1
Flags: W
LayerCount: 2
Fore
SplineSet
277 -40 m 128,-1,1
 177 15 177 15 118.5 115 c 128,-1,2
 60 215 60 215 60 343 c 0,3,4
 60 470 60 470 118.5 570 c 128,-1,5
 177 670 177 670 277 725 c 128,-1,6
 377 780 377 780 498 780 c 256,7,8
 619 780 619 780 719 725 c 128,-1,9
 819 670 819 670 877.5 570 c 128,-1,10
 936 470 936 470 936 343 c 0,11,12
 936 215 936 215 877.5 115 c 128,-1,13
 819 15 819 15 719 -40 c 128,-1,14
 619 -95 619 -95 498 -95 c 256,15,0
 377 -95 377 -95 277 -40 c 128,-1,1
674.5 41.5 m 128,-1,17
 751 88 751 88 793.5 167.5 c 128,-1,18
 836 247 836 247 836 343 c 0,19,20
 836 440 836 440 794 519.5 c 128,-1,21
 752 599 752 599 675 644.5 c 128,-1,22
 598 690 598 690 498 690 c 256,23,24
 398 690 398 690 321 644.5 c 128,-1,25
 244 599 244 599 202 519.5 c 128,-1,26
 160 440 160 440 160 343 c 0,27,28
 160 247 160 247 202.5 167.5 c 128,-1,29
 245 88 245 88 321.5 41.5 c 128,-1,30
 398 -5 398 -5 498 -5 c 256,31,16
 598 -5 598 -5 674.5 41.5 c 128,-1,17
379.5 139 m 128,-1,33
 325 170 325 170 294.5 224.5 c 128,-1,34
 264 279 264 279 264 347 c 256,35,36
 264 415 264 415 294.5 469 c 128,-1,37
 325 523 325 523 379.5 554 c 128,-1,38
 434 585 434 585 502 585 c 0,39,40
 575 585 575 585 625 562 c 128,-1,41
 675 539 675 539 701 500 c 128,-1,42
 727 461 727 461 732 414 c 1,43,-1
 571 414 l 1,44,45
 565 439 565 439 548 452.5 c 128,-1,46
 531 466 531 466 507 466 c 0,47,48
 470 466 470 466 448 436 c 128,-1,49
 426 406 426 406 426 347 c 0,50,51
 426 289 426 289 448 259 c 128,-1,52
 470 229 470 229 507 229 c 0,53,54
 530 229 530 229 547.5 243 c 128,-1,55
 565 257 565 257 571 279 c 1,56,-1
 732 279 l 1,57,58
 727 232 727 232 701 193 c 128,-1,59
 675 154 675 154 625 131 c 128,-1,60
 575 108 575 108 502 108 c 0,61,32
 434 108 434 108 379.5 139 c 128,-1,33
EndSplineSet
EndChar

StartChar: registered
Encoding: 174 174 356
Width: 624
GlyphClass: 1
Flags: W
LayerCount: 2
Fore
SplineSet
183 249 m 128,-1,1
 125 282 125 282 92.5 339.5 c 128,-1,2
 60 397 60 397 60 469 c 0,3,4
 60 540 60 540 92.5 597.5 c 128,-1,5
 125 655 125 655 183 687.5 c 128,-1,6
 241 720 241 720 312 720 c 0,7,8
 384 720 384 720 441.5 687.5 c 128,-1,9
 499 655 499 655 531.5 598 c 128,-1,10
 564 541 564 541 564 469 c 256,11,12
 564 397 564 397 531.5 339.5 c 128,-1,13
 499 282 499 282 441.5 249 c 128,-1,14
 384 216 384 216 312 216 c 0,15,0
 241 216 241 216 183 249 c 128,-1,1
410.5 296.5 m 128,-1,17
 454 322 454 322 479 367.5 c 128,-1,18
 504 413 504 413 504 469 c 256,19,20
 504 525 504 525 479.5 570 c 128,-1,21
 455 615 455 615 411 640 c 128,-1,22
 367 665 367 665 312 665 c 256,23,24
 257 665 257 665 213.5 640 c 128,-1,25
 170 615 170 615 145 570 c 128,-1,26
 120 525 120 525 120 469 c 256,27,28
 120 413 120 413 145 367.5 c 128,-1,29
 170 322 170 322 214 296.5 c 128,-1,30
 258 271 258 271 312 271 c 0,31,16
 367 271 367 271 410.5 296.5 c 128,-1,17
200 606 m 1,32,-1
 331 606 l 2,33,34
 379 606 379 606 405 584 c 128,-1,35
 431 562 431 562 431 521 c 0,36,37
 431 496 431 496 417.5 478 c 128,-1,38
 404 460 404 460 378 454 c 1,39,-1
 378 448 l 1,40,41
 401 444 401 444 411.5 434 c 128,-1,42
 422 424 422 424 427 405 c 2,43,-1
 436 369 l 2,44,45
 440 353 440 353 446 338 c 1,46,-1
 358 338 l 1,47,48
 355 344 355 344 354 353 c 0,49,50
 352 362 352 362 349 370 c 2,51,-1
 342 399 l 2,52,53
 339 408 339 408 335.5 413 c 128,-1,54
 332 418 332 418 326.5 420.5 c 128,-1,55
 321 423 321 423 312 423 c 2,56,-1
 284 423 l 1,57,-1
 284 338 l 1,58,-1
 200 338 l 1,59,-1
 200 606 l 1,32,-1
341 490 m 128,-1,61
 350 499 350 499 350 513 c 0,62,63
 350 529 350 529 341.5 538 c 128,-1,64
 333 547 333 547 318 547 c 2,65,-1
 284 547 l 1,66,-1
 284 481 l 1,67,-1
 318 481 l 2,68,60
 332 481 332 481 341 490 c 128,-1,61
EndSplineSet
EndChar

StartChar: trademark
Encoding: 8482 8482 357
Width: 816
GlyphClass: 1
Flags: W
LayerCount: 2
Fore
SplineSet
337 705 m 1,0,-1
 512 705 l 1,1,-1
 559 454 l 1,2,-1
 569 454 l 1,3,-1
 614 705 l 1,4,-1
 791 705 l 1,5,-1
 791 350 l 1,6,-1
 690 350 l 1,7,-1
 690 575 l 1,8,-1
 680 575 l 1,9,-1
 642 350 l 1,10,-1
 486 350 l 1,11,-1
 448 575 l 1,12,-1
 438 575 l 1,13,-1
 438 350 l 1,14,-1
 337 350 l 1,15,-1
 337 705 l 1,0,-1
95 695 m 1,16,-1
 219 695 l 1,17,-1
 219 350 l 1,18,-1
 95 350 l 1,19,-1
 95 695 l 1,16,-1
5 705 m 1,20,-1
 307 705 l 1,21,-1
 307 609 l 1,22,-1
 5 609 l 1,23,-1
 5 705 l 1,20,-1
EndSplineSet
EndChar

StartChar: paragraph
Encoding: 182 182 358
Width: 763
GlyphClass: 1
Flags: W
LayerCount: 2
Fore
SplineSet
348 206 m 1,0,-1
 300 206 l 2,1,2
 215 206 215 206 155 240 c 128,-1,3
 95 274 95 274 65 331 c 128,-1,4
 35 388 35 388 35 456 c 256,5,6
 35 524 35 524 65 580.5 c 128,-1,7
 95 637 95 637 155 671 c 128,-1,8
 215 705 215 705 300 705 c 2,9,-1
 663 705 l 1,10,-1
 663 -150 l 1,11,-1
 548 -150 l 1,12,-1
 548 605 l 1,13,-1
 463 605 l 1,14,-1
 463 -150 l 1,15,-1
 348 -150 l 1,16,-1
 348 206 l 1,0,-1
EndSplineSet
EndChar

StartChar: section
Encoding: 167 167 359
Width: 645
GlyphClass: 1
Flags: W
LayerCount: 2
Fore
SplineSet
185.5 -160.5 m 128,-1,1
 129 -140 129 -140 96 -94.5 c 128,-1,2
 63 -49 63 -49 61 23 c 1,3,-1
 226 23 l 1,4,5
 226 -3 226 -3 237.5 -21.5 c 128,-1,6
 249 -40 249 -40 271 -49 c 128,-1,7
 293 -58 293 -58 324 -58 c 0,8,9
 365 -58 365 -58 389 -41 c 128,-1,10
 413 -24 413 -24 413 7 c 0,11,12
 413 33 413 33 395 49 c 128,-1,13
 377 65 377 65 342 75 c 2,14,-1
 228 106 l 2,15,16
 145 128 145 128 105.5 167 c 128,-1,17
 66 206 66 206 66 272 c 0,18,19
 66 313 66 313 89.5 342.5 c 128,-1,20
 113 372 113 372 160 387 c 1,21,-1
 160 397 l 1,22,23
 112 424 112 424 91.5 455.5 c 128,-1,24
 71 487 71 487 71 528 c 0,25,26
 71 617 71 617 136.5 668.5 c 128,-1,27
 202 720 202 720 322 720 c 0,28,29
 396 720 396 720 452 697.5 c 128,-1,30
 508 675 508 675 540.5 629.5 c 128,-1,31
 573 584 573 584 575 516 c 1,32,-1
 410 516 l 1,33,34
 410 554 410 554 386 575.5 c 128,-1,35
 362 597 362 597 317 597 c 0,36,37
 278 597 278 597 255.5 580.5 c 128,-1,38
 233 564 233 564 233 534 c 0,39,40
 233 509 233 509 250 494 c 128,-1,41
 267 479 267 479 299 470 c 2,42,-1
 417 439 l 2,43,44
 499 417 499 417 539 378 c 128,-1,45
 579 339 579 339 579 273 c 0,46,47
 579 231 579 231 555.5 202 c 128,-1,48
 532 173 532 173 485 158 c 1,49,-1
 485 148 l 1,50,51
 533 120 533 120 554 86 c 128,-1,52
 575 52 575 52 575 8 c 0,53,54
 575 -80 575 -80 508 -130.5 c 128,-1,55
 441 -181 441 -181 319 -181 c 0,56,0
 242 -181 242 -181 185.5 -160.5 c 128,-1,1
413 183 m 1,58,-1
 330 167 l 1,59,60
 369 178 369 178 391.5 203.5 c 128,-1,61
 414 229 414 229 414 261 c 0,62,63
 414 290 414 290 395 305.5 c 128,-1,64
 376 321 376 321 331 333 c 2,65,-1
 281 346 l 2,66,67
 246 355 246 355 228 362 c 1,68,-1
 315 378 l 1,69,70
 276 366 276 366 253.5 341 c 128,-1,71
 231 316 231 316 231 284 c 0,72,73
 231 256 231 256 250 240 c 128,-1,74
 269 224 269 224 314 212 c 2,75,-1
 360 199 l 2,76,57
 371 196 371 196 413 183 c 1,58,-1
EndSplineSet
EndChar

StartChar: asciicircum
Encoding: 94 94 360
Width: 600
GlyphClass: 1
Flags: W
LayerCount: 2
Fore
SplineSet
194 705 m 1,0,-1
 406 705 l 1,1,-1
 567 354 l 1,2,-1
 378 354 l 1,3,-1
 243 678 l 1,4,-1
 357 678 l 1,5,-1
 222 354 l 1,6,-1
 33 354 l 1,7,-1
 194 705 l 1,0,-1
EndSplineSet
EndChar

StartChar: dagger
Encoding: 8224 8224 361
Width: 640
GlyphClass: 1
Flags: W
LayerCount: 2
Fore
SplineSet
225 705 m 1,0,-1
 415 705 l 1,1,-1
 415 0 l 1,2,-1
 225 0 l 1,3,-1
 225 705 l 1,0,-1
80 515 m 1,4,-1
 560 515 l 1,5,-1
 560 355 l 1,6,-1
 80 355 l 1,7,-1
 80 515 l 1,4,-1
EndSplineSet
EndChar

StartChar: daggerdbl
Encoding: 8225 8225 362
Width: 630
GlyphClass: 1
Flags: W
LayerCount: 2
Fore
SplineSet
225 705 m 1,0,-1
 405 705 l 1,1,-1
 405 0 l 1,2,-1
 225 0 l 1,3,-1
 225 705 l 1,0,-1
80 575 m 1,4,-1
 550 575 l 1,5,-1
 550 415 l 1,6,-1
 80 415 l 1,7,-1
 80 575 l 1,4,-1
80 310 m 1,8,-1
 550 310 l 1,9,-1
 550 150 l 1,10,-1
 80 150 l 1,11,-1
 80 310 l 1,8,-1
EndSplineSet
EndChar

StartChar: dollar
Encoding: 36 36 363
Width: 670
GlyphClass: 1
Flags: W
LayerCount: 2
Fore
SplineSet
191 12 m 128,-1,1
 132 39 132 39 98.5 86 c 128,-1,2
 65 133 65 133 61 190 c 1,3,-1
 246 190 l 1,4,5
 248 167 248 167 260 148.5 c 128,-1,6
 272 130 272 130 292.5 119 c 128,-1,7
 313 108 313 108 339 108 c 0,8,9
 384 108 384 108 411 129.5 c 128,-1,10
 438 151 438 151 438 188 c 256,11,12
 438 225 438 225 416 247 c 128,-1,13
 394 269 394 269 351 281 c 2,14,-1
 241 312 l 2,15,16
 160 335 160 335 116.5 383.5 c 128,-1,17
 73 432 73 432 73 505 c 0,18,19
 73 565 73 565 107 614.5 c 128,-1,20
 141 664 141 664 200.5 692 c 128,-1,21
 260 720 260 720 334 720 c 0,22,23
 411 720 411 720 471 694 c 128,-1,24
 531 668 531 668 565.5 622 c 128,-1,25
 600 576 600 576 604 517 c 1,26,-1
 429 517 l 1,27,28
 426 552 426 552 401.5 574.5 c 128,-1,29
 377 597 377 597 337 597 c 0,30,31
 294 597 294 597 266.5 578.5 c 128,-1,32
 239 560 239 560 239 526 c 0,33,34
 239 493 239 493 259 472.5 c 128,-1,35
 279 452 279 452 320 439 c 2,36,-1
 430 406 l 2,37,38
 513 379 513 379 558 333.5 c 128,-1,39
 603 288 603 288 603 207 c 0,40,41
 603 144 603 144 568 93 c 128,-1,42
 533 42 533 42 470 13.5 c 128,-1,43
 407 -15 407 -15 327 -15 c 0,44,0
 250 -15 250 -15 191 12 c 128,-1,1
285 61 m 1,45,-1
 395 61 l 1,46,-1
 395 -85 l 1,47,-1
 285 -85 l 1,48,-1
 285 61 l 1,45,-1
285 790 m 1,49,-1
 395 790 l 1,50,-1
 395 645 l 1,51,-1
 285 645 l 1,52,-1
 285 790 l 1,49,-1
EndSplineSet
Substitution2: "'tnum' Tabular Numbers in Latin lookup 22 subtable" dollar.tf
Substitution2: "'aalt' Access All Alternates in Latin lookup 0 subtable" dollar.tf
EndChar

StartChar: cent
Encoding: 162 162 364
Width: 599
GlyphClass: 2
Flags: W
AnchorPoint: "Anchor-1" 321 560 basechar 0
AnchorPoint: "Anchor-0" 321 45 basechar 0
LayerCount: 2
Fore
SplineSet
171.5 63 m 128,-1,1
 111 96 111 96 78.5 157.5 c 128,-1,2
 46 219 46 219 46 303 c 1,3,-1
 46 303 l 1,4,5
 46 386 46 386 78.5 447.5 c 128,-1,6
 111 509 111 509 171.5 542 c 128,-1,7
 232 575 232 575 314 575 c 0,8,9
 379 575 379 575 431.5 553 c 128,-1,10
 484 531 484 531 516.5 491 c 128,-1,11
 549 451 549 451 556 399 c 1,12,-1
 371 399 l 1,13,14
 366 424 366 424 350.5 437 c 128,-1,15
 335 450 335 450 310 450 c 0,16,17
 271 450 271 450 251.5 413.5 c 128,-1,18
 232 377 232 377 232 303 c 1,19,-1
 232 303 l 1,20,21
 232 230 232 230 252 192.5 c 128,-1,22
 272 155 272 155 311 155 c 0,23,24
 335 155 335 155 350.5 168.5 c 128,-1,25
 366 182 366 182 372 208 c 1,26,-1
 557 208 l 1,27,28
 550 155 550 155 517.5 114.5 c 128,-1,29
 485 74 485 74 432.5 52 c 128,-1,30
 380 30 380 30 315 30 c 0,31,0
 232 30 232 30 171.5 63 c 128,-1,1
249 100 m 1,32,-1
 374 100 l 1,33,-1
 374 -55 l 1,34,-1
 249 -55 l 1,35,-1
 249 100 l 1,32,-1
249 660 m 1,36,-1
 374 660 l 1,37,-1
 374 505 l 1,38,-1
 249 505 l 1,39,-1
 249 660 l 1,36,-1
EndSplineSet
Substitution2: "'tnum' Tabular Numbers in Latin lookup 22 subtable" cent.tf
Substitution2: "'aalt' Access All Alternates in Latin lookup 0 subtable" cent.tf
EndChar

StartChar: sterling
Encoding: 163 163 365
Width: 641
GlyphClass: 1
Flags: W
LayerCount: 2
Fore
SplineSet
98.5 205 m 128,-1,1
 117 239 117 239 117 271 c 0,2,3
 117 289 117 289 111.5 307 c 128,-1,4
 106 325 106 325 95 352 c 0,5,6
 79 389 79 389 70.5 420.5 c 128,-1,7
 62 452 62 452 62 490 c 0,8,9
 62 559 62 559 91.5 611 c 128,-1,10
 121 663 121 663 177.5 691.5 c 128,-1,11
 234 720 234 720 313 720 c 0,12,13
 394 720 394 720 453.5 694 c 128,-1,14
 513 668 513 668 545.5 622 c 128,-1,15
 578 576 578 576 581 517 c 1,16,-1
 386 517 l 1,17,18
 383 544 383 544 364.5 562 c 128,-1,19
 346 580 346 580 313 580 c 0,20,21
 279 580 279 580 262 558.5 c 128,-1,22
 245 537 245 537 245 494 c 0,23,24
 245 465 245 465 252 441 c 128,-1,25
 259 417 259 417 272 387 c 256,26,27
 285 357 285 357 291.5 333.5 c 128,-1,28
 298 310 298 310 298 282 c 0,29,30
 298 238 298 238 279.5 204.5 c 128,-1,31
 261 171 261 171 228 149 c 1,32,-1
 228 140 l 1,33,-1
 571 140 l 1,34,-1
 571 0 l 1,35,-1
 47 0 l 1,36,-1
 47 140 l 1,37,0
 80 171 80 171 98.5 205 c 128,-1,1
10 407 m 1,38,-1
 417 407 l 1,39,-1
 417 298 l 1,40,-1
 10 298 l 1,41,-1
 10 407 l 1,38,-1
EndSplineSet
Substitution2: "'tnum' Tabular Numbers in Latin lookup 22 subtable" sterling.tf
Substitution2: "'aalt' Access All Alternates in Latin lookup 0 subtable" sterling.tf
EndChar

StartChar: yen
Encoding: 165 165 366
Width: 669
GlyphClass: 1
Flags: W
LayerCount: 2
Fore
SplineSet
242 271 m 1,0,-1
 19 705 l 1,1,-1
 230 705 l 1,2,-1
 295 547 l 2,3,4
 299 538 299 538 302.5 529.5 c 128,-1,5
 306 521 306 521 309 512 c 0,6,7
 316 496 316 496 321 479.5 c 128,-1,8
 326 463 326 463 331 447 c 1,9,-1
 341 447 l 1,10,11
 351 483 351 483 376 547 c 2,12,-1
 439 705 l 1,13,-1
 650 705 l 1,14,-1
 427 271 l 1,15,-1
 427 0 l 1,16,-1
 242 0 l 1,17,-1
 242 271 l 1,0,-1
107 197 m 1,18,-1
 561 197 l 1,19,-1
 561 127 l 1,20,-1
 107 127 l 1,21,-1
 107 197 l 1,18,-1
107 317 m 1,22,-1
 561 317 l 1,23,-1
 561 247 l 1,24,-1
 107 247 l 1,25,-1
 107 317 l 1,22,-1
EndSplineSet
Substitution2: "'tnum' Tabular Numbers in Latin lookup 22 subtable" yen.tf
Substitution2: "'aalt' Access All Alternates in Latin lookup 0 subtable" yen.tf
EndChar

StartChar: Euro
Encoding: 8364 8364 367
Width: 683
GlyphClass: 1
Flags: W
LayerCount: 2
Fore
SplineSet
194.5 29 m 128,-1,1
 128 73 128 73 92.5 155.5 c 128,-1,2
 57 238 57 238 57 352 c 256,3,4
 57 466 57 466 92 549 c 128,-1,5
 127 632 127 632 193.5 676 c 128,-1,6
 260 720 260 720 352 720 c 0,7,8
 468 720 468 720 542.5 665.5 c 128,-1,9
 617 611 617 611 628 517 c 1,10,-1
 433 517 l 1,11,12
 429 547 429 547 408.5 563.5 c 128,-1,13
 388 580 388 580 356 580 c 0,14,15
 298 580 298 580 269.5 523.5 c 128,-1,16
 241 467 241 467 241 352 c 0,17,18
 241 238 241 238 269.5 181.5 c 128,-1,19
 298 125 298 125 356 125 c 0,20,21
 388 125 388 125 408.5 141.5 c 128,-1,22
 429 158 429 158 433 188 c 1,23,-1
 628 188 l 1,24,25
 617 94 617 94 542.5 39.5 c 128,-1,26
 468 -15 468 -15 352 -15 c 0,27,0
 261 -15 261 -15 194.5 29 c 128,-1,1
10 328 m 1,28,-1
 390 328 l 1,29,-1
 390 258 l 1,30,-1
 10 258 l 1,31,-1
 10 328 l 1,28,-1
10 448 m 1,32,-1
 390 448 l 1,33,-1
 390 378 l 1,34,-1
 10 378 l 1,35,-1
 10 448 l 1,32,-1
EndSplineSet
Substitution2: "'tnum' Tabular Numbers in Latin lookup 22 subtable" Euro.tf
Substitution2: "'aalt' Access All Alternates in Latin lookup 0 subtable" Euro.tf
EndChar

StartChar: currency
Encoding: 164 164 368
Width: 702
GlyphClass: 1
Flags: W
LayerCount: 2
Fore
SplineSet
227.5 124 m 128,-1,1
 173 154 173 154 143.5 207 c 128,-1,2
 114 260 114 260 114 327 c 256,3,4
 114 394 114 394 143.5 447 c 128,-1,5
 173 500 173 500 227.5 529.5 c 128,-1,6
 282 559 282 559 354 559 c 0,7,8
 424 559 424 559 478.5 529.5 c 128,-1,9
 533 500 533 500 563 447 c 128,-1,10
 593 394 593 394 593 327 c 256,11,12
 593 260 593 260 563 207 c 128,-1,13
 533 154 533 154 478.5 124 c 128,-1,14
 424 94 424 94 354 94 c 0,15,0
 282 94 282 94 227.5 124 c 128,-1,1
46 163 m 1,16,-1
 135 252 l 1,17,-1
 249 137 l 1,18,-1
 160 48 l 1,19,-1
 46 163 l 1,16,-1
46 509 m 1,20,-1
 160 624 l 1,21,-1
 249 535 l 1,22,-1
 135 420 l 1,23,-1
 46 509 l 1,20,-1
409 253 m 128,-1,25
 426 280 426 280 426 327 c 0,26,27
 426 371 426 371 408.5 399 c 128,-1,28
 391 427 391 427 354 427 c 0,29,30
 316 427 316 427 298.5 399 c 128,-1,31
 281 371 281 371 281 327 c 0,32,33
 281 280 281 280 298.5 253 c 128,-1,34
 316 226 316 226 354 226 c 256,35,24
 392 226 392 226 409 253 c 128,-1,25
453 137 m 1,36,-1
 567 252 l 1,37,-1
 656 163 l 1,38,-1
 542 48 l 1,39,-1
 453 137 l 1,36,-1
453 535 m 1,40,-1
 542 624 l 1,41,-1
 656 509 l 1,42,-1
 567 420 l 1,43,-1
 453 535 l 1,40,-1
EndSplineSet
Substitution2: "'tnum' Tabular Numbers in Latin lookup 22 subtable" currency.tf
Substitution2: "'aalt' Access All Alternates in Latin lookup 0 subtable" currency.tf
EndChar

StartChar: fraction
Encoding: 8260 8260 371
Width: 195
GlyphClass: 1
Flags: W
LayerCount: 2
Fore
SplineSet
305 705 m 1,0,-1
 420 705 l 1,1,-1
 -110 0 l 1,2,-1
 -225 0 l 1,3,-1
 305 705 l 1,0,-1
EndSplineSet
EndChar

StartChar: percent
Encoding: 37 37 381
Width: 856
GlyphClass: 1
Flags: W
LayerCount: 2
Fore
SplineSet
629 705 m 1,0,-1
 744 705 l 1,1,-1
 214 0 l 1,2,-1
 99 0 l 1,3,-1
 629 705 l 1,0,-1
108 376 m 128,-1,5
 66 399 66 399 43 441 c 128,-1,6
 20 483 20 483 20 536 c 0,7,8
 20 590 20 590 43 632 c 128,-1,9
 66 674 66 674 108 697 c 128,-1,10
 150 720 150 720 203 720 c 256,11,12
 256 720 256 720 298 696.5 c 128,-1,13
 340 673 340 673 363 631 c 128,-1,14
 386 589 386 589 386 536 c 256,15,16
 386 483 386 483 363 441 c 128,-1,17
 340 399 340 399 298 376 c 128,-1,18
 256 353 256 353 203 353 c 256,19,4
 150 353 150 353 108 376 c 128,-1,5
254 472 m 128,-1,21
 274 497 274 497 274 536 c 0,22,23
 274 576 274 576 254.5 600.5 c 128,-1,24
 235 625 235 625 203 625 c 256,25,26
 171 625 171 625 151.5 600.5 c 128,-1,27
 132 576 132 576 132 536 c 256,28,29
 132 496 132 496 151.5 471.5 c 128,-1,30
 171 447 171 447 203 447 c 0,31,20
 234 447 234 447 254 472 c 128,-1,21
558 8 m 128,-1,33
 516 31 516 31 493 73 c 128,-1,34
 470 115 470 115 470 168 c 0,35,36
 470 222 470 222 493 264 c 128,-1,37
 516 306 516 306 558 329 c 128,-1,38
 600 352 600 352 653 352 c 256,39,40
 706 352 706 352 748 328.5 c 128,-1,41
 790 305 790 305 813 263 c 128,-1,42
 836 221 836 221 836 168 c 256,43,44
 836 115 836 115 813 73 c 128,-1,45
 790 31 790 31 748 8 c 128,-1,46
 706 -15 706 -15 653 -15 c 256,47,32
 600 -15 600 -15 558 8 c 128,-1,33
704 104 m 128,-1,49
 724 129 724 129 724 168 c 0,50,51
 724 208 724 208 704.5 232.5 c 128,-1,52
 685 257 685 257 653 257 c 256,53,54
 621 257 621 257 601.5 232.5 c 128,-1,55
 582 208 582 208 582 168 c 256,56,57
 582 128 582 128 601.5 103.5 c 128,-1,58
 621 79 621 79 653 79 c 0,59,48
 684 79 684 79 704 104 c 128,-1,49
EndSplineSet
Substitution2: "'tnum' Tabular Numbers in Latin lookup 22 subtable" percent.tf
Substitution2: "'aalt' Access All Alternates in Latin lookup 0 subtable" percent.tf
EndChar

StartChar: perthousand
Encoding: 8240 8240 382
Width: 1265
GlyphClass: 1
Flags: W
LayerCount: 2
Fore
SplineSet
629 705 m 1,0,-1
 744 705 l 1,1,-1
 214 0 l 1,2,-1
 99 0 l 1,3,-1
 629 705 l 1,0,-1
108 376 m 128,-1,5
 66 399 66 399 43 441 c 128,-1,6
 20 483 20 483 20 536 c 0,7,8
 20 590 20 590 43 632 c 128,-1,9
 66 674 66 674 108 697 c 128,-1,10
 150 720 150 720 203 720 c 256,11,12
 256 720 256 720 298 696.5 c 128,-1,13
 340 673 340 673 363 631 c 128,-1,14
 386 589 386 589 386 536 c 256,15,16
 386 483 386 483 363 441 c 128,-1,17
 340 399 340 399 298 376 c 128,-1,18
 256 353 256 353 203 353 c 256,19,4
 150 353 150 353 108 376 c 128,-1,5
254 472 m 128,-1,21
 274 497 274 497 274 536 c 0,22,23
 274 576 274 576 254.5 600.5 c 128,-1,24
 235 625 235 625 203 625 c 256,25,26
 171 625 171 625 151.5 600.5 c 128,-1,27
 132 576 132 576 132 536 c 256,28,29
 132 496 132 496 151.5 471.5 c 128,-1,30
 171 447 171 447 203 447 c 0,31,20
 234 447 234 447 254 472 c 128,-1,21
558 8 m 128,-1,33
 516 31 516 31 493 73 c 128,-1,34
 470 115 470 115 470 168 c 0,35,36
 470 222 470 222 493 264 c 128,-1,37
 516 306 516 306 558 329 c 128,-1,38
 600 352 600 352 653 352 c 256,39,40
 706 352 706 352 748 328.5 c 128,-1,41
 790 305 790 305 813 263 c 128,-1,42
 836 221 836 221 836 168 c 256,43,44
 836 115 836 115 813 73 c 128,-1,45
 790 31 790 31 748 8 c 128,-1,46
 706 -15 706 -15 653 -15 c 256,47,32
 600 -15 600 -15 558 8 c 128,-1,33
704 104 m 128,-1,49
 724 129 724 129 724 168 c 0,50,51
 724 208 724 208 704.5 232.5 c 128,-1,52
 685 257 685 257 653 257 c 256,53,54
 621 257 621 257 601.5 232.5 c 128,-1,55
 582 208 582 208 582 168 c 256,56,57
 582 128 582 128 601.5 103.5 c 128,-1,58
 621 79 621 79 653 79 c 0,59,48
 684 79 684 79 704 104 c 128,-1,49
972 5.5 m 128,-1,61
 930 26 930 26 904.5 67.5 c 128,-1,62
 879 109 879 109 879 168 c 256,63,64
 879 227 879 227 904.5 268.5 c 128,-1,65
 930 310 930 310 972 331 c 128,-1,66
 1014 352 1014 352 1062 352 c 256,67,68
 1110 352 1110 352 1151.5 331 c 128,-1,69
 1193 310 1193 310 1219 268.5 c 128,-1,70
 1245 227 1245 227 1245 168 c 256,71,72
 1245 109 1245 109 1219.5 67.5 c 128,-1,73
 1194 26 1194 26 1152 5.5 c 128,-1,74
 1110 -15 1110 -15 1062 -15 c 256,75,60
 1014 -15 1014 -15 972 5.5 c 128,-1,61
1114.5 105 m 128,-1,77
 1133 131 1133 131 1133 168 c 256,78,79
 1133 205 1133 205 1114.5 231 c 128,-1,80
 1096 257 1096 257 1062 257 c 0,81,82
 1027 257 1027 257 1009 231 c 128,-1,83
 991 205 991 205 991 168 c 256,84,85
 991 131 991 131 1009 105 c 128,-1,86
 1027 79 1027 79 1062 79 c 0,87,76
 1096 79 1096 79 1114.5 105 c 128,-1,77
EndSplineSet
Substitution2: "'tnum' Tabular Numbers in Latin lookup 22 subtable" perthousand.tf
Substitution2: "'aalt' Access All Alternates in Latin lookup 0 subtable" perthousand.tf
EndChar

StartChar: numbersign
Encoding: 35 35 383
Width: 726
GlyphClass: 1
Flags: W
LayerCount: 2
Fore
SplineSet
479 705 m 1,0,-1
 611 705 l 1,1,-1
 496 0 l 1,2,-1
 364 0 l 1,3,-1
 479 705 l 1,0,-1
46 265 m 1,4,-1
 650 265 l 1,5,-1
 633 155 l 1,6,-1
 29 155 l 1,7,-1
 46 265 l 1,4,-1
230 705 m 1,8,-1
 362 705 l 1,9,-1
 247 0 l 1,10,-1
 115 0 l 1,11,-1
 230 705 l 1,8,-1
93 550 m 1,12,-1
 697 550 l 1,13,-1
 680 440 l 1,14,-1
 76 440 l 1,15,-1
 93 550 l 1,12,-1
EndSplineSet
EndChar

StartChar: uni2116
Encoding: 8470 8470 384
Width: 1224
GlyphClass: 2
Flags: W
AnchorPoint: "Anchor-1" 437 705 basechar 0
AnchorPoint: "Anchor-0" 437 0 basechar 0
LayerCount: 2
Fore
SplineSet
100 705 m 1,0,-1
 311 705 l 1,1,-1
 467 426 l 2,2,3
 488 389 488 389 503 357 c 0,4,5
 522 319 522 319 535.5 283.5 c 128,-1,6
 549 248 549 248 561 206 c 1,7,-1
 571 206 l 1,8,9
 566 318 566 318 561 430 c 1,10,-1
 561 705 l 1,11,-1
 741 705 l 1,12,-1
 741 0 l 1,13,-1
 530 0 l 1,14,-1
 374 279 l 2,15,16
 361 303 361 303 349.5 325 c 128,-1,17
 338 347 338 347 328 368 c 0,18,19
 313 401 313 401 301.5 432.5 c 128,-1,20
 290 464 290 464 280 499 c 1,21,-1
 270 499 l 1,22,23
 273 443 273 443 275 387 c 0,24,25
 279 313 279 313 280 275 c 2,26,-1
 280 0 l 1,27,-1
 100 0 l 1,28,-1
 100 705 l 1,0,-1
878.5 370.5 m 128,-1,30
 836 394 836 394 813 435.5 c 128,-1,31
 790 477 790 477 790 530 c 256,32,33
 790 583 790 583 813 624 c 128,-1,34
 836 665 836 665 878.5 688.5 c 128,-1,35
 921 712 921 712 977 712 c 256,36,37
 1033 712 1033 712 1075.5 688.5 c 128,-1,38
 1118 665 1118 665 1141 624 c 128,-1,39
 1164 583 1164 583 1164 530 c 256,40,41
 1164 477 1164 477 1141 435.5 c 128,-1,42
 1118 394 1118 394 1075.5 370.5 c 128,-1,43
 1033 347 1033 347 977 347 c 256,44,29
 921 347 921 347 878.5 370.5 c 128,-1,30
1032.5 460 m 128,-1,46
 1054 485 1054 485 1054 530 c 256,47,48
 1054 575 1054 575 1032.5 599.5 c 128,-1,49
 1011 624 1011 624 977 624 c 256,50,51
 943 624 943 624 921.5 599 c 128,-1,52
 900 574 900 574 900 530 c 0,53,54
 900 485 900 485 921.5 460 c 128,-1,55
 943 435 943 435 977 435 c 256,56,45
 1011 435 1011 435 1032.5 460 c 128,-1,46
791 320 m 1,57,-1
 1160 320 l 1,58,-1
 1160 209 l 1,59,-1
 791 209 l 1,60,-1
 791 320 l 1,57,-1
EndSplineSet
Ligature2: "'ordn' Ordinals in Latin lookup 20 subtable" N o period
EndChar

StartChar: plus
Encoding: 43 43 385
Width: 600
GlyphClass: 1
Flags: W
LayerCount: 2
Fore
SplineSet
42 430 m 1,0,-1
 558 430 l 1,1,-1
 558 276 l 1,2,-1
 42 276 l 1,3,-1
 42 430 l 1,0,-1
210 610 m 1,4,-1
 390 610 l 1,5,-1
 390 96 l 1,6,-1
 210 96 l 1,7,-1
 210 610 l 1,4,-1
EndSplineSet
Substitution2: "'sups' Superscript in Latin lookup 13 subtable" uni207A
Substitution2: "'sinf' Scientific Inferiors in Latin lookup 12 subtable" uni208A
Substitution2: "'subs' Subscript in Latin lookup 11 subtable" uni208A
AlternateSubs2: "'aalt' Access All Alternates in Latin lookup 1 subtable" uni208A uni207A
EndChar

StartChar: minus
Encoding: 8722 8722 386
Width: 600
GlyphClass: 1
Flags: W
LayerCount: 2
Fore
SplineSet
42 430 m 1,0,-1
 558 430 l 1,1,-1
 558 276 l 1,2,-1
 42 276 l 1,3,-1
 42 430 l 1,0,-1
EndSplineSet
Substitution2: "'sups' Superscript in Latin lookup 13 subtable" uni207B
Substitution2: "'sinf' Scientific Inferiors in Latin lookup 12 subtable" uni208B
Substitution2: "'subs' Subscript in Latin lookup 11 subtable" uni208B
AlternateSubs2: "'aalt' Access All Alternates in Latin lookup 1 subtable" uni208B uni207B
EndChar

StartChar: plusminus
Encoding: 177 177 387
Width: 600
GlyphClass: 1
Flags: W
LayerCount: 2
Fore
SplineSet
42 527 m 1,0,-1
 558 527 l 1,1,-1
 558 373 l 1,2,-1
 42 373 l 1,3,-1
 42 527 l 1,0,-1
210 666 m 1,4,-1
 390 666 l 1,5,-1
 390 234 l 1,6,-1
 210 234 l 1,7,-1
 210 666 l 1,4,-1
42 192 m 1,8,-1
 558 192 l 1,9,-1
 558 38 l 1,10,-1
 42 38 l 1,11,-1
 42 192 l 1,8,-1
EndSplineSet
EndChar

StartChar: multiply
Encoding: 215 215 388
Width: 600
GlyphClass: 1
Flags: W
LayerCount: 2
Fore
SplineSet
63 225 m 1,0,-1
 428 590 l 1,1,-1
 537 481 l 1,2,-1
 172 116 l 1,3,-1
 63 225 l 1,0,-1
63 481 m 1,4,-1
 172 590 l 1,5,-1
 537 225 l 1,6,-1
 428 116 l 1,7,-1
 63 481 l 1,4,-1
EndSplineSet
EndChar

StartChar: divide
Encoding: 247 247 389
Width: 600
GlyphClass: 1
Flags: W
LayerCount: 2
Fore
SplineSet
42 434 m 1,0,-1
 558 434 l 1,1,-1
 558 280 l 1,2,-1
 42 280 l 1,3,-1
 42 434 l 1,0,-1
224.5 67.5 m 128,-1,5
 195 97 195 97 195 143 c 256,6,7
 195 189 195 189 224.5 218.5 c 128,-1,8
 254 248 254 248 300 248 c 256,9,10
 346 248 346 248 375.5 218.5 c 128,-1,11
 405 189 405 189 405 143 c 256,12,13
 405 97 405 97 375.5 67.5 c 128,-1,14
 346 38 346 38 300 38 c 256,15,4
 254 38 254 38 224.5 67.5 c 128,-1,5
224.5 486.5 m 128,-1,17
 195 516 195 516 195 562 c 256,18,19
 195 608 195 608 224.5 637.5 c 128,-1,20
 254 667 254 667 300 667 c 256,21,22
 346 667 346 667 375.5 637.5 c 128,-1,23
 405 608 405 608 405 562 c 256,24,25
 405 516 405 516 375.5 486.5 c 128,-1,26
 346 457 346 457 300 457 c 256,27,16
 254 457 254 457 224.5 486.5 c 128,-1,17
EndSplineSet
Substitution2: "'ss06' Style Set 6 in Latin lookup 30 subtable" divide.ss06
Substitution2: "'aalt' Access All Alternates in Latin lookup 0 subtable" divide.ss06
EndChar

StartChar: less
Encoding: 60 60 391
Width: 600
GlyphClass: 1
Flags: W
LayerCount: 2
Fore
SplineSet
42 264 m 1,0,-1
 42 442 l 1,1,-1
 558 599 l 1,2,-1
 558 410 l 1,3,-1
 114 332 l 1,4,-1
 114 374 l 1,5,-1
 558 297 l 1,6,-1
 558 107 l 1,7,-1
 42 264 l 1,0,-1
EndSplineSet
EndChar

StartChar: degree
Encoding: 176 176 393
Width: 419
GlyphClass: 1
Flags: W
LayerCount: 2
Fore
SplineSet
110 359.5 m 128,-1,1
 66 384 66 384 41.5 427.5 c 128,-1,2
 17 471 17 471 17 527 c 256,3,4
 17 583 17 583 41.5 627 c 128,-1,5
 66 671 66 671 110 695.5 c 128,-1,6
 154 720 154 720 210 720 c 256,7,8
 266 720 266 720 309.5 695.5 c 128,-1,9
 353 671 353 671 377.5 627 c 128,-1,10
 402 583 402 583 402 527 c 0,11,12
 402 472 402 472 377.5 428 c 128,-1,13
 353 384 353 384 309.5 359.5 c 128,-1,14
 266 335 266 335 210 335 c 256,15,0
 154 335 154 335 110 359.5 c 128,-1,1
263 456 m 128,-1,17
 282 481 282 481 282 527 c 256,18,19
 282 573 282 573 263.5 598.5 c 128,-1,20
 245 624 245 624 210 624 c 256,21,22
 175 624 175 624 156 599 c 128,-1,23
 137 574 137 574 137 527 c 0,24,25
 137 481 137 481 156 456 c 128,-1,26
 175 431 175 431 210 431 c 0,27,16
 244 431 244 431 263 456 c 128,-1,17
EndSplineSet
EndChar

StartChar: approxequal
Encoding: 8776 8776 394
Width: 600
GlyphClass: 1
Flags: W
LayerCount: 2
Fore
SplineSet
352.5 381 m 128,-1,1
 328 387 328 387 305 398 c 2,2,-1
 277 411 l 2,3,4
 266 416 266 416 254.5 420 c 128,-1,5
 243 424 243 424 233 424 c 0,6,7
 215 424 215 424 206 410 c 128,-1,8
 197 396 197 396 197 375 c 1,9,-1
 42 375 l 1,10,11
 42 467 42 467 81 518.5 c 128,-1,12
 120 570 120 570 197 570 c 0,13,14
 223 570 223 570 247.5 564 c 128,-1,15
 272 558 272 558 295 547 c 2,16,-1
 323 534 l 2,17,18
 351 521 351 521 367 521 c 0,19,20
 385 521 385 521 394 535 c 128,-1,21
 403 549 403 549 403 570 c 1,22,-1
 558 570 l 1,23,24
 558 478 558 478 519 426.5 c 128,-1,25
 480 375 480 375 403 375 c 0,26,0
 377 375 377 375 352.5 381 c 128,-1,1
352.5 141 m 128,-1,28
 328 147 328 147 305 158 c 2,29,-1
 277 171 l 2,30,31
 249 184 249 184 233 184 c 0,32,33
 215 184 215 184 206 170 c 128,-1,34
 197 156 197 156 197 135 c 1,35,-1
 42 135 l 1,36,37
 42 227 42 227 81 278.5 c 128,-1,38
 120 330 120 330 197 330 c 0,39,40
 223 330 223 330 247.5 324 c 128,-1,41
 272 318 272 318 295 307 c 2,42,-1
 323 294 l 2,43,44
 334 289 334 289 345.5 285 c 128,-1,45
 357 281 357 281 367 281 c 0,46,47
 385 281 385 281 394 295 c 128,-1,48
 403 309 403 309 403 330 c 1,49,-1
 558 330 l 1,50,51
 558 238 558 238 519 186.5 c 128,-1,52
 480 135 480 135 403 135 c 0,53,27
 377 135 377 135 352.5 141 c 128,-1,28
EndSplineSet
EndChar

StartChar: greaterequal
Encoding: 8805 8805 395
Width: 600
GlyphClass: 1
Flags: W
LayerCount: 2
Fore
SplineSet
42 389 m 1,0,-1
 486 466 l 1,1,-1
 486 424 l 1,2,-1
 42 502 l 1,3,-1
 42 691 l 1,4,-1
 558 534 l 1,5,-1
 558 356 l 1,6,-1
 42 199 l 1,7,-1
 42 389 l 1,0,-1
42 14 m 1,8,-1
 42 168 l 1,9,-1
 558 168 l 1,10,-1
 558 14 l 1,11,-1
 42 14 l 1,8,-1
EndSplineSet
EndChar

StartChar: logicalnot
Encoding: 172 172 397
Width: 600
GlyphClass: 1
Flags: W
LayerCount: 2
Fore
SplineSet
379 364 m 1,0,-1
 42 364 l 1,1,-1
 42 518 l 1,2,-1
 558 518 l 1,3,-1
 558 188 l 1,4,-1
 379 188 l 1,5,-1
 379 364 l 1,0,-1
EndSplineSet
EndChar

StartChar: notequal
Encoding: 8800 8800 398
Width: 600
GlyphClass: 1
Flags: W
LayerCount: 2
Fore
SplineSet
42 551 m 1,0,-1
 558 551 l 1,1,-1
 558 397 l 1,2,-1
 42 397 l 1,3,-1
 42 551 l 1,0,-1
42 312 m 1,4,-1
 558 312 l 1,5,-1
 558 158 l 1,6,-1
 42 158 l 1,7,-1
 42 312 l 1,4,-1
401 635 m 1,8,-1
 524 635 l 1,9,-1
 199 70 l 1,10,-1
 76 70 l 1,11,-1
 401 635 l 1,8,-1
EndSplineSet
EndChar

StartChar: zero.tf
Encoding: 65542 -1 399
Width: 600
GlyphClass: 1
Flags: W
LayerCount: 2
Fore
SplineSet
158.5 22.5 m 128,-1,1
 96 60 96 60 59 142 c 128,-1,2
 22 224 22 224 22 352 c 256,3,4
 22 480 22 480 59 562.5 c 128,-1,5
 96 645 96 645 158.5 682.5 c 128,-1,6
 221 720 221 720 300 720 c 256,7,8
 379 720 379 720 441.5 682.5 c 128,-1,9
 504 645 504 645 541 562.5 c 128,-1,10
 578 480 578 480 578 352 c 256,11,12
 578 224 578 224 541 142 c 128,-1,13
 504 60 504 60 441.5 22.5 c 128,-1,14
 379 -15 379 -15 300 -15 c 256,15,0
 221 -15 221 -15 158.5 22.5 c 128,-1,1
364.5 180.5 m 128,-1,17
 383 236 383 236 383 352 c 256,18,19
 383 468 383 468 364.5 524 c 128,-1,20
 346 580 346 580 300 580 c 256,21,22
 254 580 254 580 235.5 524 c 128,-1,23
 217 468 217 468 217 352 c 256,24,25
 217 236 217 236 235.5 180.5 c 128,-1,26
 254 125 254 125 300 125 c 256,27,16
 346 125 346 125 364.5 180.5 c 128,-1,17
EndSplineSet
Substitution2: "'ss07' Style Set 7 in Latin lookup 31 subtable" zero.tf.zero
Substitution2: "'zero' Slashed Zero in Latin lookup 25 subtable" zero.tf.zero
Substitution2: "'pnum' Proportional Numbers in Latin lookup 21 subtable" zero
AlternateSubs2: "'aalt' Access All Alternates in Latin lookup 1 subtable" zero zero.tf.zero
EndChar

StartChar: one.tf
Encoding: 65543 -1 400
Width: 600
GlyphClass: 1
Flags: W
LayerCount: 2
Fore
SplineSet
215 430 m 1,0,-1
 41 430 l 1,1,-1
 41 548 l 1,2,3
 114 552 114 552 157.5 567 c 128,-1,4
 201 582 201 582 224.5 614 c 128,-1,5
 248 646 248 646 257 705 c 1,6,-1
 405 705 l 1,7,-1
 405 20 l 1,8,-1
 215 20 l 1,9,-1
 215 430 l 1,0,-1
41 145 m 1,10,-1
 559 145 l 1,11,-1
 559 0 l 1,12,-1
 41 0 l 1,13,-1
 41 145 l 1,10,-1
EndSplineSet
Substitution2: "'pnum' Proportional Numbers in Latin lookup 21 subtable" one
Substitution2: "'aalt' Access All Alternates in Latin lookup 0 subtable" one
EndChar

StartChar: two.tf
Encoding: 65544 -1 401
Width: 600
GlyphClass: 1
Flags: W
LayerCount: 2
Fore
SplineSet
35 65 m 0,1,2
 35 156 35 156 71.5 223.5 c 128,-1,3
 108 291 108 291 207 343 c 2,4,-1
 309 397 l 2,5,6
 349 419 349 419 369 444.5 c 128,-1,7
 389 470 389 470 389 506 c 0,8,9
 389 544 389 544 369.5 564.5 c 128,-1,10
 350 585 350 585 313 585 c 256,11,12
 276 585 276 585 253 562.5 c 128,-1,13
 230 540 230 540 225 494 c 1,14,-1
 30 494 l 1,15,16
 49 606 49 606 120 663 c 128,-1,17
 191 720 191 720 319 720 c 0,18,19
 436 720 436 720 503.5 665.5 c 128,-1,20
 571 611 571 611 571 507 c 0,21,22
 571 436 571 436 534 380.5 c 128,-1,23
 497 325 497 325 422 282 c 2,24,-1
 296 211 l 2,25,26
 267 195 267 195 254 177.5 c 128,-1,27
 241 160 241 160 239 139 c 1,28,-1
 571 139 l 1,29,-1
 571 0 l 1,30,-1
 40 0 l 1,31,0
 35 28 35 28 35 65 c 0,1,2
EndSplineSet
Substitution2: "'pnum' Proportional Numbers in Latin lookup 21 subtable" two
Substitution2: "'aalt' Access All Alternates in Latin lookup 0 subtable" two
EndChar

StartChar: three.tf
Encoding: 65545 -1 402
Width: 600
GlyphClass: 1
Flags: W
LayerCount: 2
Fore
SplineSet
108 41.5 m 128,-1,1
 38 98 38 98 23 188 c 1,2,-1
 221 188 l 1,3,4
 227 156 227 156 247.5 137 c 128,-1,5
 268 118 268 118 304 118 c 0,6,7
 339 118 339 118 361 140 c 128,-1,8
 383 162 383 162 383 203 c 0,9,10
 383 246 383 246 361 271 c 128,-1,11
 339 296 339 296 289 296 c 2,12,-1
 225 296 l 1,13,-1
 225 429 l 1,14,-1
 284 429 l 2,15,16
 329 429 329 429 350.5 453 c 128,-1,17
 372 477 372 477 372 510 c 0,18,19
 372 547 372 547 352.5 567 c 128,-1,20
 333 587 333 587 301 587 c 0,21,22
 268 587 268 587 249.5 568.5 c 128,-1,23
 231 550 231 550 230 520 c 1,24,-1
 32 520 l 1,25,26
 38 582 38 582 72 627 c 128,-1,27
 106 672 106 672 165 696 c 128,-1,28
 224 720 224 720 304 720 c 0,29,30
 378 720 378 720 438 697 c 128,-1,31
 498 674 498 674 532.5 631 c 128,-1,32
 567 588 567 588 567 532 c 0,33,34
 567 471 567 471 529.5 429 c 128,-1,35
 492 387 492 387 422 373 c 1,36,-1
 422 363 l 1,37,38
 498 353 498 353 538 312.5 c 128,-1,39
 578 272 578 272 578 200 c 0,40,41
 578 132 578 132 541.5 83.5 c 128,-1,42
 505 35 505 35 442.5 10 c 128,-1,43
 380 -15 380 -15 302 -15 c 0,44,0
 178 -15 178 -15 108 41.5 c 128,-1,1
EndSplineSet
Substitution2: "'pnum' Proportional Numbers in Latin lookup 21 subtable" three
Substitution2: "'aalt' Access All Alternates in Latin lookup 0 subtable" three
EndChar

StartChar: four.tf
Encoding: 65546 -1 403
Width: 600
GlyphClass: 1
Flags: W
LayerCount: 2
Fore
SplineSet
313 117 m 1,0,-1
 27 117 l 1,1,-1
 27 270 l 1,2,-1
 264 705 l 1,3,-1
 503 705 l 1,4,-1
 503 260 l 1,5,-1
 574 260 l 1,6,-1
 574 117 l 1,7,-1
 503 117 l 1,8,-1
 503 0 l 1,9,-1
 313 0 l 1,10,-1
 313 117 l 1,0,-1
313 260 m 1,11,-1
 313 452 l 1,12,-1
 313 540 l 1,13,-1
 303 540 l 1,14,15
 293 517 293 517 288 506 c 128,-1,16
 283 495 283 495 273 473 c 0,17,18
 266 459 266 459 258.5 445 c 128,-1,19
 251 431 251 431 244 417 c 2,20,-1
 165 270 l 1,21,-1
 165 260 l 1,22,-1
 313 260 l 1,11,-1
EndSplineSet
Substitution2: "'pnum' Proportional Numbers in Latin lookup 21 subtable" four
Substitution2: "'aalt' Access All Alternates in Latin lookup 0 subtable" four
EndChar

StartChar: five.tf
Encoding: 65547 -1 404
Width: 600
GlyphClass: 1
Flags: W
LayerCount: 2
Fore
SplineSet
165.5 10 m 128,-1,1
 108 35 108 35 73 78 c 128,-1,2
 38 121 38 121 33 172 c 1,3,-1
 228 172 l 1,4,5
 234 143 234 143 251.5 130.5 c 128,-1,6
 269 118 269 118 295 118 c 0,7,8
 332 118 332 118 352.5 145.5 c 128,-1,9
 373 173 373 173 373 239 c 0,10,11
 373 295 373 295 355.5 324 c 128,-1,12
 338 353 338 353 301 353 c 0,13,14
 282 353 282 353 266 342 c 128,-1,15
 250 331 250 331 242 313 c 1,16,-1
 51 313 l 1,17,-1
 115 705 l 1,18,-1
 548 705 l 1,19,-1
 548 560 l 1,20,-1
 247 560 l 1,21,-1
 221 403 l 1,22,-1
 231 403 l 1,23,24
 252 441 252 441 287.5 456.5 c 128,-1,25
 323 472 323 472 372 472 c 0,26,27
 431 472 431 472 475.5 444.5 c 128,-1,28
 520 417 520 417 544 365 c 128,-1,29
 568 313 568 313 568 241 c 0,30,31
 568 157 568 157 532.5 99.5 c 128,-1,32
 497 42 497 42 435 13.5 c 128,-1,33
 373 -15 373 -15 293 -15 c 0,34,0
 223 -15 223 -15 165.5 10 c 128,-1,1
EndSplineSet
Substitution2: "'pnum' Proportional Numbers in Latin lookup 21 subtable" five
Substitution2: "'aalt' Access All Alternates in Latin lookup 0 subtable" five
EndChar

StartChar: six.tf
Encoding: 65548 -1 405
Width: 600
GlyphClass: 1
Flags: W
LayerCount: 2
Fore
SplineSet
156 32 m 128,-1,1
 91 79 91 79 57 162 c 128,-1,2
 23 245 23 245 23 353 c 0,3,4
 23 472 23 472 59 554.5 c 128,-1,5
 95 637 95 637 161.5 678.5 c 128,-1,6
 228 720 228 720 320 720 c 0,7,8
 390 720 390 720 442 694.5 c 128,-1,9
 494 669 494 669 525 630.5 c 128,-1,10
 556 592 556 592 567 552 c 1,11,-1
 370 552 l 1,12,13
 361 570 361 570 347.5 578.5 c 128,-1,14
 334 587 334 587 316 587 c 0,15,16
 269 587 269 587 244.5 541 c 128,-1,17
 220 495 220 495 220 393 c 1,18,-1
 230 393 l 1,19,20
 249 430 249 430 290.5 451 c 128,-1,21
 332 472 332 472 380 472 c 0,22,23
 437 472 437 472 482 443.5 c 128,-1,24
 527 415 527 415 552.5 363.5 c 128,-1,25
 578 312 578 312 578 246 c 0,26,27
 578 170 578 170 545.5 111 c 128,-1,28
 513 52 513 52 452.5 18.5 c 128,-1,29
 392 -15 392 -15 311 -15 c 0,30,0
 221 -15 221 -15 156 32 c 128,-1,1
361.5 142 m 128,-1,32
 383 171 383 171 383 229 c 256,33,34
 383 287 383 287 361.5 316 c 128,-1,35
 340 345 340 345 308 345 c 0,36,37
 275 345 275 345 254 316 c 128,-1,38
 233 287 233 287 233 229 c 256,39,40
 233 171 233 171 254 142 c 128,-1,41
 275 113 275 113 308 113 c 0,42,31
 340 113 340 113 361.5 142 c 128,-1,32
EndSplineSet
Substitution2: "'pnum' Proportional Numbers in Latin lookup 21 subtable" six
Substitution2: "'aalt' Access All Alternates in Latin lookup 0 subtable" six
EndChar

StartChar: eight.tf
Encoding: 65550 -1 407
Width: 600
GlyphClass: 1
Flags: W
LayerCount: 2
Fore
SplineSet
140.5 10.5 m 128,-1,1
 76 36 76 36 44 82 c 128,-1,2
 12 128 12 128 12 188 c 0,3,4
 12 254 12 254 56 300.5 c 128,-1,5
 100 347 100 347 165 356 c 1,6,-1
 165 366 l 1,7,8
 100 381 100 381 64 423 c 128,-1,9
 28 465 28 465 28 525 c 0,10,11
 28 583 28 583 60 627 c 128,-1,12
 92 671 92 671 153.5 695.5 c 128,-1,13
 215 720 215 720 300 720 c 256,14,15
 385 720 385 720 446.5 695.5 c 128,-1,16
 508 671 508 671 540 627 c 128,-1,17
 572 583 572 583 572 525 c 0,18,19
 572 465 572 465 532.5 419 c 128,-1,20
 493 373 493 373 435 366 c 1,21,-1
 435 356 l 1,22,23
 500 347 500 347 544 300.5 c 128,-1,24
 588 254 588 254 588 188 c 0,25,26
 588 128 588 128 556 82 c 128,-1,27
 524 36 524 36 459.5 10.5 c 128,-1,28
 395 -15 395 -15 300 -15 c 256,29,0
 205 -15 205 -15 140.5 10.5 c 128,-1,1
368.5 134 m 128,-1,31
 392 161 392 161 392 205 c 0,32,33
 392 247 392 247 368 275.5 c 128,-1,34
 344 304 344 304 300 304 c 256,35,36
 256 304 256 304 232 275.5 c 128,-1,37
 208 247 208 247 208 205 c 0,38,39
 208 161 208 161 231.5 134 c 128,-1,40
 255 107 255 107 300 107 c 256,41,30
 345 107 345 107 368.5 134 c 128,-1,31
358 444 m 128,-1,43
 379 468 379 468 379 510 c 0,44,45
 379 551 379 551 358 574.5 c 128,-1,46
 337 598 337 598 300 598 c 256,47,48
 263 598 263 598 242 574.5 c 128,-1,49
 221 551 221 551 221 510 c 0,50,51
 221 468 221 468 242 444 c 128,-1,52
 263 420 263 420 300 420 c 256,53,42
 337 420 337 420 358 444 c 128,-1,43
EndSplineSet
Substitution2: "'pnum' Proportional Numbers in Latin lookup 21 subtable" eight
Substitution2: "'aalt' Access All Alternates in Latin lookup 0 subtable" eight
EndChar

StartChar: zero.tf.zero
Encoding: 65552 -1 409
Width: 600
GlyphClass: 1
Flags: W
LayerCount: 2
Fore
SplineSet
158.5 22.5 m 128,-1,1
 96 60 96 60 59 142 c 128,-1,2
 22 224 22 224 22 352 c 256,3,4
 22 480 22 480 59 562.5 c 128,-1,5
 96 645 96 645 158.5 682.5 c 128,-1,6
 221 720 221 720 300 720 c 256,7,8
 379 720 379 720 441.5 682.5 c 128,-1,9
 504 645 504 645 541 562.5 c 128,-1,10
 578 480 578 480 578 352 c 256,11,12
 578 224 578 224 541 142 c 128,-1,13
 504 60 504 60 441.5 22.5 c 128,-1,14
 379 -15 379 -15 300 -15 c 256,15,0
 221 -15 221 -15 158.5 22.5 c 128,-1,1
364.5 180.5 m 128,-1,17
 383 236 383 236 383 352 c 256,18,19
 383 468 383 468 364.5 524 c 128,-1,20
 346 580 346 580 300 580 c 256,21,22
 254 580 254 580 235.5 524 c 128,-1,23
 217 468 217 468 217 352 c 256,24,25
 217 236 217 236 235.5 180.5 c 128,-1,26
 254 125 254 125 300 125 c 256,27,16
 346 125 346 125 364.5 180.5 c 128,-1,17
111 189 m 1,28,-1
 443 613 l 1,29,-1
 488 516 l 1,30,-1
 157 93 l 1,31,-1
 111 189 l 1,28,-1
EndSplineSet
EndChar

StartChar: dollar.tf
Encoding: 65553 -1 410
Width: 600
GlyphClass: 1
Flags: W
LayerCount: 2
Fore
SplineSet
159 12 m 128,-1,1
 100 39 100 39 66.5 86 c 128,-1,2
 33 133 33 133 29 190 c 1,3,-1
 214 190 l 1,4,5
 216 167 216 167 228 148.5 c 128,-1,6
 240 130 240 130 260.5 119 c 128,-1,7
 281 108 281 108 307 108 c 0,8,9
 352 108 352 108 379 129.5 c 128,-1,10
 406 151 406 151 406 188 c 256,11,12
 406 225 406 225 384 247 c 128,-1,13
 362 269 362 269 319 281 c 2,14,-1
 209 312 l 2,15,16
 128 335 128 335 84.5 383.5 c 128,-1,17
 41 432 41 432 41 505 c 0,18,19
 41 565 41 565 75 614.5 c 128,-1,20
 109 664 109 664 168.5 692 c 128,-1,21
 228 720 228 720 302 720 c 0,22,23
 379 720 379 720 439 694 c 128,-1,24
 499 668 499 668 533.5 622 c 128,-1,25
 568 576 568 576 572 517 c 1,26,-1
 397 517 l 1,27,28
 394 552 394 552 369.5 574.5 c 128,-1,29
 345 597 345 597 305 597 c 0,30,31
 262 597 262 597 234.5 578.5 c 128,-1,32
 207 560 207 560 207 526 c 0,33,34
 207 493 207 493 227 472.5 c 128,-1,35
 247 452 247 452 288 439 c 2,36,-1
 398 406 l 2,37,38
 481 379 481 379 526 333.5 c 128,-1,39
 571 288 571 288 571 207 c 0,40,41
 571 144 571 144 536 93 c 128,-1,42
 501 42 501 42 438 13.5 c 128,-1,43
 375 -15 375 -15 295 -15 c 0,44,0
 218 -15 218 -15 159 12 c 128,-1,1
253 61 m 1,45,-1
 363 61 l 1,46,-1
 363 -85 l 1,47,-1
 253 -85 l 1,48,-1
 253 61 l 1,45,-1
253 790 m 1,49,-1
 363 790 l 1,50,-1
 363 645 l 1,51,-1
 253 645 l 1,52,-1
 253 790 l 1,49,-1
EndSplineSet
Substitution2: "'pnum' Proportional Numbers in Latin lookup 21 subtable" dollar
Substitution2: "'aalt' Access All Alternates in Latin lookup 0 subtable" dollar
EndChar

StartChar: sterling.tf
Encoding: 65555 -1 412
Width: 600
GlyphClass: 1
Flags: W
LayerCount: 2
Fore
SplineSet
103.5 205 m 128,-1,1
 122 239 122 239 122 271 c 0,2,3
 122 289 122 289 116.5 307 c 128,-1,4
 111 325 111 325 100 352 c 0,5,6
 84 389 84 389 75.5 420.5 c 128,-1,7
 67 452 67 452 67 490 c 0,8,9
 67 559 67 559 96.5 611 c 128,-1,10
 126 663 126 663 182.5 691.5 c 128,-1,11
 239 720 239 720 318 720 c 0,12,13
 399 720 399 720 458.5 694 c 128,-1,14
 518 668 518 668 550.5 622 c 128,-1,15
 583 576 583 576 586 517 c 1,16,-1
 391 517 l 1,17,18
 388 544 388 544 369.5 562 c 128,-1,19
 351 580 351 580 318 580 c 0,20,21
 284 580 284 580 267 558.5 c 128,-1,22
 250 537 250 537 250 494 c 0,23,24
 250 465 250 465 257 441 c 128,-1,25
 264 417 264 417 277 387 c 256,26,27
 290 357 290 357 296.5 333.5 c 128,-1,28
 303 310 303 310 303 282 c 0,29,30
 303 238 303 238 284.5 204.5 c 128,-1,31
 266 171 266 171 233 149 c 1,32,-1
 233 140 l 1,33,-1
 576 140 l 1,34,-1
 576 0 l 1,35,-1
 52 0 l 1,36,-1
 52 140 l 1,37,0
 85 171 85 171 103.5 205 c 128,-1,1
15 407 m 1,38,-1
 422 407 l 1,39,-1
 422 298 l 1,40,-1
 15 298 l 1,41,-1
 15 407 l 1,38,-1
EndSplineSet
Substitution2: "'pnum' Proportional Numbers in Latin lookup 21 subtable" sterling
Substitution2: "'aalt' Access All Alternates in Latin lookup 0 subtable" sterling
EndChar

StartChar: yen.tf
Encoding: 65556 -1 413
Width: 600
GlyphClass: 1
Flags: W
LayerCount: 2
Fore
SplineSet
208 271 m 1,0,-1
 5 705 l 1,1,-1
 196 705 l 1,2,-1
 261 547 l 2,3,4
 265 537 265 537 269 528 c 128,-1,5
 273 519 273 519 276 509 c 0,6,7
 287 479 287 479 297 447 c 1,8,-1
 307 447 l 1,9,10
 317 483 317 483 342 547 c 2,11,-1
 405 705 l 1,12,-1
 596 705 l 1,13,-1
 393 271 l 1,14,-1
 393 0 l 1,15,-1
 208 0 l 1,16,-1
 208 271 l 1,0,-1
73 197 m 1,17,-1
 527 197 l 1,18,-1
 527 127 l 1,19,-1
 73 127 l 1,20,-1
 73 197 l 1,17,-1
73 317 m 1,21,-1
 527 317 l 1,22,-1
 527 247 l 1,23,-1
 73 247 l 1,24,-1
 73 317 l 1,21,-1
EndSplineSet
Substitution2: "'pnum' Proportional Numbers in Latin lookup 21 subtable" yen
Substitution2: "'aalt' Access All Alternates in Latin lookup 0 subtable" yen
EndChar

StartChar: Euro.tf
Encoding: 65557 -1 414
Width: 600
GlyphClass: 1
Flags: W
LayerCount: 2
Fore
SplineSet
181 29 m 128,-1,1
 119 73 119 73 86 155.5 c 128,-1,2
 53 238 53 238 53 352 c 256,3,4
 53 466 53 466 86 549 c 128,-1,5
 119 632 119 632 181 676 c 128,-1,6
 243 720 243 720 328 720 c 0,7,8
 436 720 436 720 504.5 665.5 c 128,-1,9
 573 611 573 611 584 517 c 1,10,-1
 389 517 l 1,11,12
 385 547 385 547 370.5 563.5 c 128,-1,13
 356 580 356 580 332 580 c 0,14,15
 284 580 284 580 260.5 523.5 c 128,-1,16
 237 467 237 467 237 352 c 0,17,18
 237 238 237 238 260.5 181.5 c 128,-1,19
 284 125 284 125 332 125 c 0,20,21
 356 125 356 125 370.5 141.5 c 128,-1,22
 385 158 385 158 389 188 c 1,23,-1
 584 188 l 1,24,25
 573 94 573 94 504.5 39.5 c 128,-1,26
 436 -15 436 -15 328 -15 c 0,27,0
 243 -15 243 -15 181 29 c 128,-1,1
16 328 m 1,28,-1
 346 328 l 1,29,-1
 346 258 l 1,30,-1
 16 258 l 1,31,-1
 16 328 l 1,28,-1
16 448 m 1,32,-1
 346 448 l 1,33,-1
 346 378 l 1,34,-1
 16 378 l 1,35,-1
 16 448 l 1,32,-1
EndSplineSet
Substitution2: "'pnum' Proportional Numbers in Latin lookup 21 subtable" Euro
Substitution2: "'aalt' Access All Alternates in Latin lookup 0 subtable" Euro
EndChar

StartChar: percent.tf
Encoding: 65558 -1 415
Width: 600
GlyphClass: 1
Flags: W
LayerCount: 2
Fore
SplineSet
67 430 m 128,-1,1
 20 477 20 477 20 552 c 0,2,3
 20 626 20 626 67 673 c 128,-1,4
 114 720 114 720 188 720 c 256,5,6
 262 720 262 720 309 673 c 128,-1,7
 356 626 356 626 356 552 c 0,8,9
 356 477 356 477 309 430 c 128,-1,10
 262 383 262 383 188 383 c 256,11,0
 114 383 114 383 67 430 c 128,-1,1
228.5 498 m 128,-1,13
 244 519 244 519 244 552 c 0,14,15
 244 584 244 584 228.5 605 c 128,-1,16
 213 626 213 626 188 626 c 0,17,18
 162 626 162 626 147 606 c 128,-1,19
 132 586 132 586 132 552 c 256,20,21
 132 518 132 518 147 497.5 c 128,-1,22
 162 477 162 477 188 477 c 0,23,12
 213 477 213 477 228.5 498 c 128,-1,13
291 32 m 128,-1,25
 244 79 244 79 244 154 c 0,26,27
 244 228 244 228 291 275 c 128,-1,28
 338 322 338 322 412 322 c 0,29,30
 461 322 461 322 499 300.5 c 128,-1,31
 537 279 537 279 558.5 241 c 128,-1,32
 580 203 580 203 580 154 c 0,33,34
 580 79 580 79 533 32 c 128,-1,35
 486 -15 486 -15 412 -15 c 256,36,24
 338 -15 338 -15 291 32 c 128,-1,25
452.5 100 m 128,-1,38
 468 121 468 121 468 154 c 0,39,40
 468 186 468 186 452.5 207 c 128,-1,41
 437 228 437 228 412 228 c 0,42,43
 386 228 386 228 371 208 c 128,-1,44
 356 188 356 188 356 154 c 256,45,46
 356 120 356 120 371 99.5 c 128,-1,47
 386 79 386 79 412 79 c 0,48,37
 437 79 437 79 452.5 100 c 128,-1,38
70 315 m 1,49,-1
 524 452 l 1,50,-1
 524 389 l 1,51,-1
 70 252 l 1,52,-1
 70 315 l 1,49,-1
EndSplineSet
Substitution2: "'pnum' Proportional Numbers in Latin lookup 21 subtable" percent
Substitution2: "'aalt' Access All Alternates in Latin lookup 0 subtable" percent
EndChar

StartChar: perthousand.tf
Encoding: 65559 -1 416
Width: 600
GlyphClass: 1
Flags: W
LayerCount: 2
Fore
SplineSet
67 32 m 128,-1,1
 20 79 20 79 20 154 c 0,2,3
 20 228 20 228 67 275 c 128,-1,4
 114 322 114 322 188 322 c 0,5,6
 237 322 237 322 274.5 301 c 128,-1,7
 312 280 312 280 330 242 c 1,8,-1
 270 242 l 1,9,10
 288 280 288 280 325.5 301 c 128,-1,11
 363 322 363 322 412 322 c 256,12,13
 461 322 461 322 499 300.5 c 128,-1,14
 537 279 537 279 558.5 241 c 128,-1,15
 580 203 580 203 580 154 c 0,16,17
 580 79 580 79 533 32 c 128,-1,18
 486 -15 486 -15 412 -15 c 0,19,20
 363 -15 363 -15 325.5 6 c 128,-1,21
 288 27 288 27 270 65 c 1,22,-1
 330 65 l 1,23,24
 312 27 312 27 274.5 6 c 128,-1,25
 237 -15 237 -15 188 -15 c 0,26,0
 114 -15 114 -15 67 32 c 128,-1,1
228.5 100 m 128,-1,28
 244 121 244 121 244 154 c 0,29,30
 244 186 244 186 228.5 207 c 128,-1,31
 213 228 213 228 188 228 c 0,32,33
 162 228 162 228 147 208 c 128,-1,34
 132 188 132 188 132 154 c 256,35,36
 132 120 132 120 147 99.5 c 128,-1,37
 162 79 162 79 188 79 c 0,38,27
 213 79 213 79 228.5 100 c 128,-1,28
452.5 100 m 128,-1,40
 468 121 468 121 468 154 c 0,41,42
 468 186 468 186 452.5 207 c 128,-1,43
 437 228 437 228 412 228 c 0,44,45
 386 228 386 228 371 208 c 128,-1,46
 356 188 356 188 356 154 c 256,47,48
 356 120 356 120 371 99.5 c 128,-1,49
 386 79 386 79 412 79 c 0,50,39
 437 79 437 79 452.5 100 c 128,-1,40
70 355 m 1,51,-1
 524 412 l 1,52,-1
 524 379 l 1,53,-1
 70 322 l 1,54,-1
 70 355 l 1,51,-1
67 430 m 128,-1,56
 20 477 20 477 20 552 c 0,57,58
 20 626 20 626 67 673 c 128,-1,59
 114 720 114 720 188 720 c 256,60,61
 262 720 262 720 309 673 c 128,-1,62
 356 626 356 626 356 552 c 0,63,64
 356 477 356 477 309 430 c 128,-1,65
 262 383 262 383 188 383 c 256,66,55
 114 383 114 383 67 430 c 128,-1,56
228.5 498 m 128,-1,68
 244 519 244 519 244 552 c 0,69,70
 244 584 244 584 228.5 605 c 128,-1,71
 213 626 213 626 188 626 c 0,72,73
 162 626 162 626 147 606 c 128,-1,74
 132 586 132 586 132 552 c 256,75,76
 132 518 132 518 147 497.5 c 128,-1,77
 162 477 162 477 188 477 c 0,78,67
 213 477 213 477 228.5 498 c 128,-1,68
EndSplineSet
Substitution2: "'pnum' Proportional Numbers in Latin lookup 21 subtable" perthousand
Substitution2: "'aalt' Access All Alternates in Latin lookup 0 subtable" perthousand
EndChar

StartChar: uni0308
Encoding: 776 776 417
Width: 0
GlyphClass: 4
Flags: W
AnchorPoint: "Anchor-8" 255 762 basemark 0
AnchorPoint: "Anchor-8" 255 515 mark 0
AnchorPoint: "Anchor-6" 255 515 mark 0
AnchorPoint: "Anchor-3" 255 515 mark 0
AnchorPoint: "Anchor-1" 255 515 mark 0
LayerCount: 2
Fore
SplineSet
318 616.5 m 128,-1,1
 294 642 294 642 294 678 c 0,2,3
 294 712 294 712 318 737 c 128,-1,4
 342 762 342 762 376 762 c 0,5,6
 411 762 411 762 435.5 737 c 128,-1,7
 460 712 460 712 460 678 c 0,8,9
 460 642 460 642 436 616.5 c 128,-1,10
 412 591 412 591 376 591 c 0,11,0
 342 591 342 591 318 616.5 c 128,-1,1
74.5 616.5 m 128,-1,13
 50 642 50 642 50 678 c 0,14,15
 50 712 50 712 74.5 737 c 128,-1,16
 99 762 99 762 132 762 c 0,17,18
 169 762 169 762 192.5 737.5 c 128,-1,19
 216 713 216 713 216 678 c 0,20,21
 216 641 216 641 192.5 616 c 128,-1,22
 169 591 169 591 132 591 c 0,23,12
 99 591 99 591 74.5 616.5 c 128,-1,13
EndSplineSet
Substitution2: "Single Substitution lookup 33 subtable" uni0308.case
Substitution2: "'ss06' Style Set 6 in Latin lookup 30 subtable" uni0308.ss06
Substitution2: "'case' Case-Sensitive Forms in Latin lookup 23 subtable" uni0308.case
AlternateSubs2: "'aalt' Access All Alternates in Latin lookup 1 subtable" uni0308.case uni0308.ss06
EndChar

StartChar: uni0307
Encoding: 775 775 418
Width: 0
GlyphClass: 4
Flags: W
AnchorPoint: "Anchor-8" 145 773 basemark 0
AnchorPoint: "Anchor-8" 145 515 mark 0
AnchorPoint: "Anchor-6" 145 515 mark 0
AnchorPoint: "Anchor-3" 145 515 mark 0
AnchorPoint: "Anchor-1" 145 515 mark 0
LayerCount: 2
Fore
SplineSet
77.5 611.5 m 128,-1,1
 50 639 50 639 50 678 c 256,2,3
 50 717 50 717 77.5 745 c 128,-1,4
 105 773 105 773 144 773 c 0,5,6
 182 773 182 773 210.5 744.5 c 128,-1,7
 239 716 239 716 239 678 c 0,8,9
 239 639 239 639 211 611.5 c 128,-1,10
 183 584 183 584 144 584 c 256,11,0
 105 584 105 584 77.5 611.5 c 128,-1,1
EndSplineSet
Substitution2: "Single Substitution lookup 33 subtable" uni0307.case
Substitution2: "'ss06' Style Set 6 in Latin lookup 30 subtable" uni0307.ss06
Substitution2: "'case' Case-Sensitive Forms in Latin lookup 23 subtable" uni0307.case
AlternateSubs2: "'aalt' Access All Alternates in Latin lookup 1 subtable" uni0307.case uni0307.ss06
EndChar

StartChar: gravecomb
Encoding: 768 768 419
Width: 0
GlyphClass: 4
Flags: W
AnchorPoint: "Anchor-8" 194 760 basemark 0
AnchorPoint: "Anchor-8" 256 515 mark 0
AnchorPoint: "Anchor-6" 256 515 mark 0
AnchorPoint: "Anchor-3" 256 515 mark 0
AnchorPoint: "Anchor-1" 256 515 mark 0
LayerCount: 2
Fore
SplineSet
50 760 m 1,0,-1
 248 760 l 1,1,-1
 337 595 l 1,2,-1
 175 595 l 1,3,-1
 50 760 l 1,0,-1
EndSplineSet
Substitution2: "Single Substitution lookup 33 subtable" gravecomb.case
Substitution2: "'case' Case-Sensitive Forms in Latin lookup 23 subtable" gravecomb.case
Substitution2: "'aalt' Access All Alternates in Latin lookup 0 subtable" gravecomb.case
EndChar

StartChar: acutecomb
Encoding: 769 769 420
Width: 0
GlyphClass: 4
Flags: W
AnchorPoint: "Anchor-8" 194 760 basemark 0
AnchorPoint: "Anchor-8" 131 515 mark 0
AnchorPoint: "Anchor-6" 131 515 mark 0
AnchorPoint: "Anchor-3" 131 515 mark 0
AnchorPoint: "Anchor-1" 131 515 mark 0
LayerCount: 2
Fore
SplineSet
139 760 m 1,0,-1
 337 760 l 1,1,-1
 212 595 l 1,2,-1
 50 595 l 1,3,-1
 139 760 l 1,0,-1
EndSplineSet
Substitution2: "Single Substitution lookup 33 subtable" acutecomb.case
Substitution2: "'case' Case-Sensitive Forms in Latin lookup 23 subtable" acutecomb.case
Substitution2: "'aalt' Access All Alternates in Latin lookup 0 subtable" acutecomb.case
EndChar

StartChar: uni030B
Encoding: 779 779 421
Width: 0
GlyphClass: 4
Flags: W
AnchorPoint: "Anchor-8" 276 760 basemark 0
AnchorPoint: "Anchor-8" 224 515 mark 0
AnchorPoint: "Anchor-6" 224 515 mark 0
AnchorPoint: "Anchor-3" 224 515 mark 0
AnchorPoint: "Anchor-1" 224 515 mark 0
LayerCount: 2
Fore
SplineSet
360 760 m 1,0,-1
 520 760 l 1,1,-1
 397 595 l 1,2,-1
 274 595 l 1,3,-1
 360 760 l 1,0,-1
136 760 m 1,4,-1
 296 760 l 1,5,-1
 173 595 l 1,6,-1
 50 595 l 1,7,-1
 136 760 l 1,4,-1
EndSplineSet
Substitution2: "Single Substitution lookup 33 subtable" uni030B.case
Substitution2: "'case' Case-Sensitive Forms in Latin lookup 23 subtable" uni030B.case
Substitution2: "'aalt' Access All Alternates in Latin lookup 0 subtable" uni030B.case
EndChar

StartChar: uni0302
Encoding: 770 770 422
Width: 0
GlyphClass: 4
Flags: W
AnchorPoint: "Anchor-8" 262 760 basemark 0
AnchorPoint: "Anchor-8" 262 515 mark 0
AnchorPoint: "Anchor-6" 262 515 mark 0
AnchorPoint: "Anchor-3" 262 515 mark 0
AnchorPoint: "Anchor-1" 262 515 mark 0
LayerCount: 2
Fore
SplineSet
170 760 m 1,0,-1
 354 760 l 1,1,-1
 474 595 l 1,2,-1
 315 595 l 1,3,-1
 266 673 l 1,4,-1
 258 673 l 1,5,-1
 209 595 l 1,6,-1
 50 595 l 1,7,-1
 170 760 l 1,0,-1
EndSplineSet
Substitution2: "Single Substitution lookup 33 subtable" uni0302.case
Substitution2: "'case' Case-Sensitive Forms in Latin lookup 23 subtable" uni0302.case
Substitution2: "'aalt' Access All Alternates in Latin lookup 0 subtable" uni0302.case
EndChar

StartChar: uni030C
Encoding: 780 780 423
Width: 0
GlyphClass: 4
Flags: W
AnchorPoint: "Anchor-8" 262 760 basemark 0
AnchorPoint: "Anchor-8" 262 515 mark 0
AnchorPoint: "Anchor-6" 262 515 mark 0
AnchorPoint: "Anchor-3" 262 515 mark 0
AnchorPoint: "Anchor-1" 262 515 mark 0
LayerCount: 2
Fore
SplineSet
50 760 m 1,0,-1
 209 760 l 1,1,-1
 258 682 l 1,2,-1
 266 682 l 1,3,-1
 315 760 l 1,4,-1
 474 760 l 1,5,-1
 354 595 l 1,6,-1
 170 595 l 1,7,-1
 50 760 l 1,0,-1
EndSplineSet
Substitution2: "Single Substitution lookup 33 subtable" uni030C.case
Substitution2: "'case' Case-Sensitive Forms in Latin lookup 23 subtable" uni030C.case
Substitution2: "'aalt' Access All Alternates in Latin lookup 0 subtable" uni030C.case
EndChar

StartChar: uni0306
Encoding: 774 774 424
Width: 0
GlyphClass: 4
Flags: W
AnchorPoint: "Anchor-8" 239 728 basemark 0
AnchorPoint: "Anchor-8" 239 515 mark 0
AnchorPoint: "Anchor-6" 239 515 mark 0
AnchorPoint: "Anchor-3" 239 515 mark 0
AnchorPoint: "Anchor-1" 239 515 mark 0
LayerCount: 2
Fore
SplineSet
98.5 634.5 m 128,-1,1
 50 679 50 679 50 760 c 1,2,-1
 178 760 l 1,3,4
 178 729 178 729 193 712.5 c 128,-1,5
 208 696 208 696 239 696 c 256,6,7
 270 696 270 696 285 712.5 c 128,-1,8
 300 729 300 729 300 760 c 1,9,-1
 428 760 l 1,10,11
 428 679 428 679 379.5 634.5 c 128,-1,12
 331 590 331 590 239 590 c 256,13,0
 147 590 147 590 98.5 634.5 c 128,-1,1
EndSplineSet
Substitution2: "Single Substitution lookup 33 subtable" uni0306.case
Substitution2: "'case' Case-Sensitive Forms in Latin lookup 23 subtable" uni0306.case
Substitution2: "'aalt' Access All Alternates in Latin lookup 0 subtable" uni0306.case
EndChar

StartChar: uni030A
Encoding: 778 778 425
Width: 0
GlyphClass: 4
Flags: W
AnchorPoint: "Anchor-8" 185 842 basemark 0
AnchorPoint: "Anchor-8" 185 515 mark 0
AnchorPoint: "Anchor-6" 185 515 mark 0
AnchorPoint: "Anchor-3" 185 515 mark 0
AnchorPoint: "Anchor-1" 185 515 mark 0
LayerCount: 2
Fore
SplineSet
88 625.5 m 128,-1,1
 50 661 50 661 50 716 c 256,2,3
 50 771 50 771 88 806.5 c 128,-1,4
 126 842 126 842 185 842 c 256,5,6
 244 842 244 842 282 806.5 c 128,-1,7
 320 771 320 771 320 716 c 256,8,9
 320 661 320 661 282 625.5 c 128,-1,10
 244 590 244 590 185 590 c 256,11,0
 126 590 126 590 88 625.5 c 128,-1,1
219.5 679.5 m 128,-1,13
 232 693 232 693 232 716 c 256,14,15
 232 739 232 739 219.5 752.5 c 128,-1,16
 207 766 207 766 185 766 c 0,17,18
 164 766 164 766 151 752 c 128,-1,19
 138 738 138 738 138 716 c 256,20,21
 138 694 138 694 151 680 c 128,-1,22
 164 666 164 666 185 666 c 0,23,12
 207 666 207 666 219.5 679.5 c 128,-1,13
EndSplineSet
Substitution2: "Single Substitution lookup 33 subtable" uni030A.case
Substitution2: "'case' Case-Sensitive Forms in Latin lookup 23 subtable" uni030A.case
Substitution2: "'aalt' Access All Alternates in Latin lookup 0 subtable" uni030A.case
EndChar

StartChar: tildecomb
Encoding: 771 771 426
Width: 0
GlyphClass: 4
Flags: W
AnchorPoint: "Anchor-8" 254 760 basemark 0
AnchorPoint: "Anchor-8" 254 515 mark 0
AnchorPoint: "Anchor-6" 254 515 mark 0
AnchorPoint: "Anchor-3" 254 515 mark 0
AnchorPoint: "Anchor-1" 254 515 mark 0
LayerCount: 2
Fore
SplineSet
80 711 m 128,-1,1
 110 750 110 750 166 750 c 0,2,3
 184 750 184 750 205.5 744 c 128,-1,4
 227 738 227 738 255 723 c 2,5,-1
 276 712 l 2,6,7
 291 704 291 704 302 700.5 c 128,-1,8
 313 697 313 697 319 697 c 0,9,10
 334 697 334 697 340 707.5 c 128,-1,11
 346 718 346 718 347 745 c 1,12,-1
 457 745 l 1,13,14
 457 667 457 667 427 628.5 c 128,-1,15
 397 590 397 590 336 590 c 0,16,17
 317 590 317 590 296 596.5 c 128,-1,18
 275 603 275 603 247 617 c 2,19,-1
 226 628 l 2,20,21
 197 643 197 643 183 643 c 0,22,23
 168 643 168 643 162 632.5 c 128,-1,24
 156 622 156 622 155 595 c 1,25,-1
 50 595 l 1,26,0
 50 672 50 672 80 711 c 128,-1,1
EndSplineSet
Substitution2: "Single Substitution lookup 33 subtable" tildecomb.case
Substitution2: "'case' Case-Sensitive Forms in Latin lookup 23 subtable" tildecomb.case
Substitution2: "'aalt' Access All Alternates in Latin lookup 0 subtable" tildecomb.case
EndChar

StartChar: uni0304
Encoding: 772 772 427
Width: 0
GlyphClass: 4
Flags: W
AnchorPoint: "Anchor-8" 210 733 basemark 0
AnchorPoint: "Anchor-8" 210 515 mark 0
AnchorPoint: "Anchor-6" 210 515 mark 0
AnchorPoint: "Anchor-3" 210 515 mark 0
AnchorPoint: "Anchor-1" 210 515 mark 0
LayerCount: 2
Fore
SplineSet
50 733 m 1,0,-1
 370 733 l 1,1,-1
 370 619 l 1,2,-1
 50 619 l 1,3,-1
 50 733 l 1,0,-1
EndSplineSet
Substitution2: "Single Substitution lookup 33 subtable" uni0304.case
Substitution2: "'case' Case-Sensitive Forms in Latin lookup 23 subtable" uni0304.case
Substitution2: "'aalt' Access All Alternates in Latin lookup 0 subtable" uni0304.case
EndChar

StartChar: uni0312
Encoding: 786 786 428
Width: 0
GlyphClass: 4
Flags: W
AnchorPoint: "Anchor-8" 194 760 basemark 0
AnchorPoint: "Anchor-8" 149 515 mark 0
AnchorPoint: "Anchor-6" 149 515 mark 0
AnchorPoint: "Anchor-3" 149 515 mark 0
AnchorPoint: "Anchor-1" 149 515 mark 0
LayerCount: 2
Fore
SplineSet
175 760 m 1,0,-1
 337 760 l 1,1,-1
 248 595 l 1,2,-1
 50 595 l 1,3,-1
 175 760 l 1,0,-1
EndSplineSet
EndChar

StartChar: uni0326
Encoding: 806 806 429
Width: 0
GlyphClass: 4
Flags: W
AnchorPoint: "Anchor-7" 174 -180 basemark 0
AnchorPoint: "Anchor-7" 205 0 mark 0
AnchorPoint: "Anchor-5" 205 0 mark 0
AnchorPoint: "Anchor-2" 205 0 mark 0
AnchorPoint: "Anchor-0" 205 0 mark 0
LayerCount: 2
Fore
SplineSet
106 -50 m 1,0,-1
 304 -50 l 1,1,-1
 222 -165 l 1,2,-1
 50 -165 l 1,3,-1
 106 -50 l 1,0,-1
EndSplineSet
EndChar

StartChar: uni0327
Encoding: 807 807 430
Width: 0
GlyphClass: 4
Flags: W
AnchorPoint: "Anchor-7" 174 -180 basemark 0
AnchorPoint: "Anchor-7" 223 0 mark 0
AnchorPoint: "Anchor-5" 223 0 mark 0
AnchorPoint: "Anchor-2" 223 0 mark 0
AnchorPoint: "Anchor-0" 223 0 mark 0
LayerCount: 2
Fore
SplineSet
132 -50 m 1,0,-1
 304 -50 l 1,1,-1
 248 -165 l 1,2,-1
 50 -165 l 1,3,-1
 132 -50 l 1,0,-1
EndSplineSet
EndChar

StartChar: uni0328
Encoding: 808 808 431
Width: 0
GlyphClass: 4
Flags: W
AnchorPoint: "Anchor-4" 124 0 mark 0
LayerCount: 2
Fore
SplineSet
50 -50 m 1,0,-1
 222 -50 l 1,1,-1
 304 -165 l 1,2,-1
 106 -165 l 1,3,-1
 50 -50 l 1,0,-1
EndSplineSet
EndChar

StartChar: Q.ss04
Encoding: 65560 -1 438
Width: 822
GlyphClass: 2
Flags: W
AnchorPoint: "Anchor-3" 411 705 basechar 0
AnchorPoint: "Anchor-2" 411 0 basechar 0
LayerCount: 2
Fore
SplineSet
227.5 45.5 m 128,-1,1
 148 91 148 91 104 172.5 c 128,-1,2
 60 254 60 254 60 359 c 0,3,4
 60 465 60 465 104 547 c 128,-1,5
 148 629 148 629 227.5 674.5 c 128,-1,6
 307 720 307 720 411 720 c 256,7,8
 515 720 515 720 594.5 674.5 c 128,-1,9
 674 629 674 629 718 547 c 128,-1,10
 762 465 762 465 762 359 c 0,11,12
 762 298 762 298 734 243 c 128,-1,13
 706 188 706 188 643 142 c 1,14,-1
 643 132 l 1,15,16
 680 156 680 156 708.5 163.5 c 128,-1,17
 737 171 737 171 770 171 c 2,18,-1
 792 171 l 1,19,-1
 792 0 l 1,20,-1
 411 0 l 2,21,0
 307 0 307 0 227.5 45.5 c 128,-1,1
495 166.5 m 128,-1,23
 530 193 530 193 548.5 242 c 128,-1,24
 567 291 567 291 567 359 c 0,25,26
 567 428 567 428 548.5 477.5 c 128,-1,27
 530 527 530 527 495 553.5 c 128,-1,28
 460 580 460 580 411 580 c 256,29,30
 362 580 362 580 327 553.5 c 128,-1,31
 292 527 292 527 273.5 477.5 c 128,-1,32
 255 428 255 428 255 359 c 0,33,34
 255 291 255 291 273.5 241.5 c 128,-1,35
 292 192 292 192 327 166 c 128,-1,36
 362 140 362 140 411 140 c 256,37,22
 460 140 460 140 495 166.5 c 128,-1,23
EndSplineSet
EndChar

StartChar: Ldot.ss06
Encoding: 65571 -1 449
Width: 585
GlyphClass: 2
Flags: W
AnchorPoint: "Anchor-3" 195 705 basechar 0
AnchorPoint: "Anchor-2" 333 0 basechar 0
LayerCount: 2
Fore
SplineSet
100 705 m 1,0,-1
 290 705 l 1,1,-1
 290 0 l 1,2,-1
 100 0 l 1,3,-1
 100 705 l 1,0,-1
190 150 m 1,4,-1
 555 150 l 1,5,-1
 555 0 l 1,6,-1
 290 0 l 1,7,-1
 190 150 l 1,4,-1
370 300 m 1,8,-1
 370 489 l 1,9,-1
 464 489 l 1,10,-1
 558 489 l 1,11,-1
 558 300 l 1,12,-1
 464 300 l 1,13,-1
 370 300 l 1,8,-1
EndSplineSet
EndChar

StartChar: I.ss07
Encoding: 65579 -1 457
Width: 534
GlyphClass: 2
Flags: W
AnchorPoint: "Anchor-4" 414 0 basechar 0
AnchorPoint: "Anchor-3" 267 705 basechar 0
AnchorPoint: "Anchor-2" 267 0 basechar 0
LayerCount: 2
Fore
SplineSet
172 605 m 1,0,-1
 362 605 l 1,1,-1
 362 100 l 1,2,-1
 172 100 l 1,3,-1
 172 605 l 1,0,-1
50 150 m 1,4,-1
 484 150 l 1,5,-1
 484 0 l 1,6,-1
 50 0 l 1,7,-1
 50 150 l 1,4,-1
50 705 m 1,8,-1
 484 705 l 1,9,-1
 484 555 l 1,10,-1
 50 555 l 1,11,-1
 50 705 l 1,8,-1
EndSplineSet
EndChar

StartChar: dotlessi.accents
Encoding: 65593 -1 471
Width: 344
GlyphClass: 2
Flags: W
AnchorPoint: "Anchor-4" 172 0 basechar 0
AnchorPoint: "Anchor-3" 172 515 basechar 0
AnchorPoint: "Anchor-2" 172 0 basechar 0
LayerCount: 2
Fore
SplineSet
82 515 m 1,0,-1
 262 515 l 1,1,-1
 262 0 l 1,2,-1
 82 0 l 1,3,-1
 82 515 l 1,0,-1
EndSplineSet
EndChar

StartChar: uni0237.accents
Encoding: 65594 -1 472
Width: 300
GlyphClass: 2
Flags: W
AnchorPoint: "Anchor-3" 128 515 basechar 0
AnchorPoint: "Anchor-2" 130 -165 basechar 0
LayerCount: 2
Fore
SplineSet
-27 -165 m 1,0,-1
 -27 -23 l 1,1,-1
 -2 -23 l 2,2,3
 16 -23 16 -23 27 -14 c 128,-1,4
 38 -5 38 -5 38 14 c 2,5,-1
 38 515 l 1,6,-1
 218 515 l 1,7,-1
 218 7 l 2,8,9
 218 -84 218 -84 170.5 -124.5 c 128,-1,10
 123 -165 123 -165 42 -165 c 2,11,-1
 -27 -165 l 1,0,-1
94 504 m 1,12,-1
 94 486 l 1,13,-1
 80 486 l 1,14,-1
 80 504 l 1,15,-1
 94 504 l 1,12,-1
EndSplineSet
EndChar

StartChar: a.ss01
Encoding: 65595 -1 473
Width: 662
GlyphClass: 2
Flags: W
AnchorPoint: "Anchor-4" 490 0 basechar 0
AnchorPoint: "Anchor-3" 331 515 basechar 0
AnchorPoint: "Anchor-2" 331 0 basechar 0
LayerCount: 2
Fore
SplineSet
143 15 m 128,-1,1
 100 45 100 45 75 106 c 128,-1,2
 50 167 50 167 50 257 c 0,3,4
 50 348 50 348 74.5 409 c 128,-1,5
 99 470 99 470 142 500 c 128,-1,6
 185 530 185 530 240 530 c 0,7,8
 298 530 298 530 338 505.5 c 128,-1,9
 378 481 378 481 400 437 c 1,10,-1
 410 437 l 1,11,-1
 410 515 l 1,12,-1
 580 515 l 1,13,-1
 580 0 l 1,14,-1
 400 0 l 1,15,-1
 400 77 l 1,16,-1
 390 77 l 1,17,18
 370 34 370 34 331.5 9.5 c 128,-1,19
 293 -15 293 -15 240 -15 c 0,20,0
 186 -15 186 -15 143 15 c 128,-1,1
364 125 m 128,-1,22
 383 140 383 140 394 173 c 128,-1,23
 405 206 405 206 405 257 c 256,24,25
 405 308 405 308 394 341 c 128,-1,26
 383 374 383 374 364 389.5 c 128,-1,27
 345 405 345 405 320 405 c 0,28,29
 281 405 281 405 258 369 c 128,-1,30
 235 333 235 333 235 257 c 0,31,32
 235 182 235 182 258 146 c 128,-1,33
 281 110 281 110 320 110 c 0,34,21
 345 110 345 110 364 125 c 128,-1,22
EndSplineSet
EndChar

StartChar: g.ss02
Encoding: 65606 -1 484
Width: 658
GlyphClass: 2
Flags: W
AnchorPoint: "Anchor-3" 313 515 basechar 0
AnchorPoint: "Anchor-2" 313 -165 basechar 0
LayerCount: 2
Fore
SplineSet
196 -162 m 128,-1,1
 144 -144 144 -144 113 -112 c 128,-1,2
 82 -80 82 -80 77 -38 c 1,3,-1
 264 -38 l 1,4,5
 271 -52 271 -52 285.5 -59.5 c 128,-1,6
 300 -67 300 -67 323 -67 c 0,7,8
 361 -67 361 -67 378.5 -44 c 128,-1,9
 396 -21 396 -21 396 30 c 2,10,-1
 396 118 l 1,11,-1
 386 118 l 1,12,13
 369 75 369 75 333 50.5 c 128,-1,14
 297 26 297 26 249 26 c 0,15,16
 188 26 188 26 142.5 59.5 c 128,-1,17
 97 93 97 93 72.5 150 c 128,-1,18
 48 207 48 207 48 276 c 0,19,20
 48 346 48 346 73 403.5 c 128,-1,21
 98 461 98 461 145.5 495.5 c 128,-1,22
 193 530 193 530 258 530 c 0,23,24
 306 530 306 530 342 505.5 c 128,-1,25
 378 481 378 481 396 438 c 1,26,-1
 406 438 l 1,27,-1
 406 515 l 1,28,-1
 576 515 l 1,29,-1
 576 58 l 2,30,31
 576 -29 576 -29 545.5 -81.5 c 128,-1,32
 515 -134 515 -134 457 -157 c 128,-1,33
 399 -180 399 -180 314 -180 c 0,34,0
 248 -180 248 -180 196 -162 c 128,-1,1
369.5 174.5 m 128,-1,36
 390 208 390 208 390 278 c 256,37,38
 390 348 390 348 369.5 381.5 c 128,-1,39
 349 415 349 415 312 415 c 256,40,41
 275 415 275 415 254.5 381.5 c 128,-1,42
 234 348 234 348 234 278 c 256,43,44
 234 208 234 208 254.5 174.5 c 128,-1,45
 275 141 275 141 312 141 c 256,46,35
 349 141 349 141 369.5 174.5 c 128,-1,36
EndSplineSet
EndChar

StartChar: y.ss03
Encoding: 65612 -1 490
Width: 648
GlyphClass: 2
Flags: W
AnchorPoint: "Anchor-3" 322 515 basechar 0
AnchorPoint: "Anchor-2" 317 0 basechar 0
LayerCount: 2
Fore
SplineSet
200.5 -162 m 128,-1,1
 149 -144 149 -144 118.5 -112 c 128,-1,2
 88 -80 88 -80 83 -38 c 1,3,-1
 270 -38 l 1,4,5
 277 -52 277 -52 291 -59.5 c 128,-1,6
 305 -67 305 -67 327 -67 c 0,7,8
 363 -67 363 -67 379.5 -44 c 128,-1,9
 396 -21 396 -21 396 30 c 2,10,-1
 396 120 l 1,11,-1
 386 120 l 1,12,13
 366 71 366 71 327 48.5 c 128,-1,14
 288 26 288 26 238 26 c 0,15,16
 165 26 165 26 121 74.5 c 128,-1,17
 77 123 77 123 77 219 c 2,18,-1
 77 515 l 1,19,-1
 257 515 l 1,20,-1
 257 231 l 2,21,22
 257 197 257 197 272 177 c 128,-1,23
 287 157 287 157 318 157 c 0,24,25
 350 157 350 157 368 178 c 128,-1,26
 386 199 386 199 386 238 c 2,27,-1
 386 515 l 1,28,-1
 566 515 l 1,29,-1
 566 48 l 2,30,31
 566 -37 566 -37 538 -87 c 128,-1,32
 510 -137 510 -137 456 -158.5 c 128,-1,33
 402 -180 402 -180 318 -180 c 0,34,0
 252 -180 252 -180 200.5 -162 c 128,-1,1
EndSplineSet
EndChar

StartChar: ldot.ss06
Encoding: 65632 -1 510
Width: 480
GlyphClass: 2
Flags: W
AnchorPoint: "Anchor-3" 172 705 basechar 0
AnchorPoint: "Anchor-2" 172 0 basechar 0
LayerCount: 2
Fore
SplineSet
82 735 m 1,0,-1
 262 735 l 1,1,-1
 262 0 l 1,2,-1
 82 0 l 1,3,-1
 82 735 l 1,0,-1
330 311 m 1,4,-1
 330 479 l 1,5,-1
 412 479 l 1,6,-1
 494 479 l 1,7,-1
 494 311 l 1,8,-1
 412 311 l 1,9,-1
 330 311 l 1,4,-1
EndSplineSet
EndChar

StartChar: l.ss07
Encoding: 65640 -1 518
Width: 358
GlyphClass: 2
Flags: W
AnchorPoint: "Anchor-3" 172 705 basechar 0
AnchorPoint: "Anchor-2" 188 0 basechar 0
LayerCount: 2
Fore
SplineSet
127.5 32.5 m 128,-1,1
 82 75 82 75 82 172 c 2,2,-1
 82 735 l 1,3,-1
 262 735 l 1,4,-1
 262 185 l 2,5,6
 262 165 262 165 273 155.5 c 128,-1,7
 284 146 284 146 304 146 c 0,8,9
 319 146 319 146 338 149 c 1,10,-1
 338 -1 l 1,11,12
 296 -10 296 -10 253 -10 c 0,13,0
 173 -10 173 -10 127.5 32.5 c 128,-1,1
EndSplineSet
EndChar

StartChar: lcaron.ss07
Encoding: 65642 -1 520
Width: 358
GlyphClass: 2
Flags: W
AnchorPoint: "Anchor-3" 172 705 basechar 0
AnchorPoint: "Anchor-2" 188 0 basechar 0
LayerCount: 2
Fore
SplineSet
127.5 32.5 m 128,-1,1
 82 75 82 75 82 172 c 2,2,-1
 82 735 l 1,3,-1
 262 735 l 1,4,-1
 262 185 l 2,5,6
 262 165 262 165 273 155.5 c 128,-1,7
 284 146 284 146 304 146 c 0,8,9
 319 146 319 146 338 149 c 1,10,-1
 338 -1 l 1,11,12
 296 -10 296 -10 253 -10 c 0,13,0
 173 -10 173 -10 127.5 32.5 c 128,-1,1
372 705 m 1,14,-1
 514 705 l 1,15,-1
 452 555 l 1,16,-1
 337 555 l 1,17,-1
 372 705 l 1,14,-1
EndSplineSet
EndChar

StartChar: ldot.ss07
Encoding: 65644 -1 522
Width: 494
GlyphClass: 2
Flags: W
AnchorPoint: "Anchor-3" 172 705 basechar 0
AnchorPoint: "Anchor-2" 188 0 basechar 0
LayerCount: 2
Fore
SplineSet
127.5 32.5 m 128,-1,1
 82 75 82 75 82 172 c 2,2,-1
 82 735 l 1,3,-1
 262 735 l 1,4,-1
 262 185 l 2,5,6
 262 165 262 165 273 155.5 c 128,-1,7
 284 146 284 146 304 146 c 0,8,9
 319 146 319 146 338 149 c 1,10,-1
 338 -1 l 1,11,12
 296 -10 296 -10 253 -10 c 0,13,0
 173 -10 173 -10 127.5 32.5 c 128,-1,1
359.5 327.5 m 128,-1,15
 332 355 332 355 332 394 c 256,16,17
 332 433 332 433 359.5 461 c 128,-1,18
 387 489 387 489 426 489 c 0,19,20
 464 489 464 489 492.5 460.5 c 128,-1,21
 521 432 521 432 521 394 c 0,22,23
 521 355 521 355 493 327.5 c 128,-1,24
 465 300 465 300 426 300 c 256,25,14
 387 300 387 300 359.5 327.5 c 128,-1,15
EndSplineSet
EndChar

StartChar: uni24FF
Encoding: 9471 9471 529
Width: 1115
GlyphClass: 1
Flags: W
LayerCount: 2
Fore
SplineSet
292.5 -98 m 128,-1,1
 174 -31 174 -31 107 87 c 128,-1,2
 40 205 40 205 40 352 c 256,3,4
 40 499 40 499 107 617.5 c 128,-1,5
 174 736 174 736 292.5 803 c 128,-1,6
 411 870 411 870 558 870 c 256,7,8
 705 870 705 870 823 803 c 128,-1,9
 941 736 941 736 1008 617.5 c 128,-1,10
 1075 499 1075 499 1075 352 c 256,11,12
 1075 205 1075 205 1008 87 c 128,-1,13
 941 -31 941 -31 823 -98 c 128,-1,14
 705 -165 705 -165 558 -165 c 256,15,0
 411 -165 411 -165 292.5 -98 c 128,-1,1
668 105 m 128,-1,17
 717 133 717 133 746 195 c 128,-1,18
 775 257 775 257 775 353 c 256,19,20
 775 449 775 449 746 510.5 c 128,-1,21
 717 572 717 572 668 600 c 128,-1,22
 619 628 619 628 558 628 c 0,23,24
 463 628 463 628 402 561 c 128,-1,25
 341 494 341 494 341 353 c 0,26,27
 341 211 341 211 402 144 c 128,-1,28
 463 77 463 77 558 77 c 0,29,16
 619 77 619 77 668 105 c 128,-1,17
499 222 m 128,-1,31
 482 265 482 265 482 353 c 0,32,33
 482 440 482 440 499 482.5 c 128,-1,34
 516 525 516 525 558 525 c 256,35,36
 600 525 600 525 617 482.5 c 128,-1,37
 634 440 634 440 634 353 c 0,38,39
 634 264 634 264 617 221.5 c 128,-1,40
 600 179 600 179 558 179 c 256,41,30
 516 179 516 179 499 222 c 128,-1,31
EndSplineSet
EndChar

StartChar: uni2776
Encoding: 10102 10102 530
Width: 1115
GlyphClass: 1
Flags: W
LayerCount: 2
Fore
SplineSet
292.5 -98 m 128,-1,1
 174 -31 174 -31 107 87 c 128,-1,2
 40 205 40 205 40 352 c 256,3,4
 40 499 40 499 107 617.5 c 128,-1,5
 174 736 174 736 292.5 803 c 128,-1,6
 411 870 411 870 558 870 c 256,7,8
 705 870 705 870 823 803 c 128,-1,9
 941 736 941 736 1008 617.5 c 128,-1,10
 1075 499 1075 499 1075 352 c 256,11,12
 1075 205 1075 205 1008 87 c 128,-1,13
 941 -31 941 -31 823 -98 c 128,-1,14
 705 -165 705 -165 558 -165 c 256,15,0
 411 -165 411 -165 292.5 -98 c 128,-1,1
651 89 m 1,16,-1
 651 618 l 1,17,-1
 544 618 l 1,18,19
 538 575 538 575 520.5 550.5 c 128,-1,20
 503 526 503 526 471.5 515 c 128,-1,21
 440 504 440 504 386 501 c 1,22,-1
 386 414 l 1,23,-1
 513 414 l 1,24,-1
 513 89 l 1,25,-1
 651 89 l 1,16,-1
EndSplineSet
EndChar

StartChar: uni2777
Encoding: 10103 10103 531
Width: 1115
GlyphClass: 1
Flags: W
LayerCount: 2
Fore
SplineSet
292.5 -98 m 128,-1,1
 174 -31 174 -31 107 87 c 128,-1,2
 40 205 40 205 40 352 c 256,3,4
 40 499 40 499 107 617.5 c 128,-1,5
 174 736 174 736 292.5 803 c 128,-1,6
 411 870 411 870 558 870 c 256,7,8
 705 870 705 870 823 803 c 128,-1,9
 941 736 941 736 1008 617.5 c 128,-1,10
 1075 499 1075 499 1075 352 c 256,11,12
 1075 205 1075 205 1008 87 c 128,-1,13
 941 -31 941 -31 823 -98 c 128,-1,14
 705 -165 705 -165 558 -165 c 256,15,0
 411 -165 411 -165 292.5 -98 c 128,-1,1
750 89 m 1,16,-1
 750 191 l 1,17,-1
 507 191 l 1,18,19
 508 209 508 209 518 222 c 128,-1,20
 528 235 528 235 547 246 c 2,21,-1
 644 303 l 2,22,23
 698 335 698 335 724 376.5 c 128,-1,24
 750 418 750 418 750 470 c 0,25,26
 750 548 750 548 700.5 588.5 c 128,-1,27
 651 629 651 629 566 629 c 0,28,29
 475 629 475 629 422.5 587 c 128,-1,30
 370 545 370 545 356 460 c 1,31,-1
 497 460 l 1,32,33
 501 494 501 494 517 512 c 128,-1,34
 533 530 533 530 562 530 c 0,35,36
 589 530 589 530 603.5 514 c 128,-1,37
 618 498 618 498 618 469 c 0,38,39
 618 441 618 441 603.5 421.5 c 128,-1,40
 589 402 589 402 560 386 c 2,41,-1
 481 342 l 2,42,43
 413 304 413 304 386.5 254 c 128,-1,44
 360 204 360 204 360 137 c 0,45,46
 360 110 360 110 363 89 c 1,47,-1
 750 89 l 1,16,-1
EndSplineSet
EndChar

StartChar: uni2778
Encoding: 10104 10104 532
Width: 1115
GlyphClass: 1
Flags: W
LayerCount: 2
Fore
SplineSet
292.5 -98 m 128,-1,1
 174 -31 174 -31 107 87 c 128,-1,2
 40 205 40 205 40 352 c 256,3,4
 40 499 40 499 107 617.5 c 128,-1,5
 174 736 174 736 292.5 803 c 128,-1,6
 411 870 411 870 558 870 c 256,7,8
 705 870 705 870 823 803 c 128,-1,9
 941 736 941 736 1008 617.5 c 128,-1,10
 1075 499 1075 499 1075 352 c 256,11,12
 1075 205 1075 205 1008 87 c 128,-1,13
 941 -31 941 -31 823 -98 c 128,-1,14
 705 -165 705 -165 558 -165 c 256,15,0
 411 -165 411 -165 292.5 -98 c 128,-1,1
699 121 m 128,-1,17
 757 164 757 164 757 239 c 0,18,19
 757 292 757 292 728 322.5 c 128,-1,20
 699 353 699 353 643 361 c 1,21,-1
 643 369 l 1,22,23
 694 380 694 380 721.5 411.5 c 128,-1,24
 749 443 749 443 749 488 c 0,25,26
 749 530 749 530 723.5 562 c 128,-1,27
 698 594 698 594 653 611.5 c 128,-1,28
 608 629 608 629 553 629 c 0,29,30
 466 629 466 629 412.5 589.5 c 128,-1,31
 359 550 359 550 352 480 c 1,32,-1
 495 480 l 1,33,34
 496 504 496 504 511.5 517.5 c 128,-1,35
 527 531 527 531 551 531 c 0,36,37
 577 531 577 531 592 515.5 c 128,-1,38
 607 500 607 500 607 472 c 0,39,40
 607 447 607 447 590 428.5 c 128,-1,41
 573 410 573 410 535 410 c 2,42,-1
 492 410 l 1,43,-1
 492 312 l 1,44,-1
 539 312 l 2,45,46
 580 312 580 312 597.5 293 c 128,-1,47
 615 274 615 274 615 241 c 0,48,49
 615 209 615 209 597.5 192 c 128,-1,50
 580 175 580 175 553 175 c 0,51,52
 525 175 525 175 509 189.5 c 128,-1,53
 493 204 493 204 488 229 c 1,54,-1
 345 229 l 1,55,56
 357 160 357 160 409 119 c 128,-1,57
 461 78 461 78 552 78 c 0,58,16
 641 78 641 78 699 121 c 128,-1,17
EndSplineSet
EndChar

StartChar: uni2779
Encoding: 10105 10105 533
Width: 1115
GlyphClass: 1
Flags: W
LayerCount: 2
Fore
SplineSet
292.5 -98 m 128,-1,1
 174 -31 174 -31 107 87 c 128,-1,2
 40 205 40 205 40 352 c 256,3,4
 40 499 40 499 107 617.5 c 128,-1,5
 174 736 174 736 292.5 803 c 128,-1,6
 411 870 411 870 558 870 c 256,7,8
 705 870 705 870 823 803 c 128,-1,9
 941 736 941 736 1008 617.5 c 128,-1,10
 1075 499 1075 499 1075 352 c 256,11,12
 1075 205 1075 205 1008 87 c 128,-1,13
 941 -31 941 -31 823 -98 c 128,-1,14
 705 -165 705 -165 558 -165 c 256,15,0
 411 -165 411 -165 292.5 -98 c 128,-1,1
704 89 m 1,16,-1
 704 179 l 1,17,-1
 777 179 l 1,18,-1
 777 283 l 1,19,-1
 704 283 l 1,20,-1
 704 618 l 1,21,-1
 545 618 l 1,22,-1
 335 291 l 1,23,-1
 335 179 l 1,24,-1
 566 179 l 1,25,-1
 566 89 l 1,26,-1
 704 89 l 1,16,-1
531 439 m 0,28,29
 539 453 539 453 546.5 467.5 c 128,-1,30
 554 482 554 482 559 497 c 1,31,-1
 566 497 l 1,32,-1
 566 431 l 1,33,-1
 566 283 l 1,34,-1
 435 283 l 1,35,-1
 510 404 l 2,36,27
 521 422 521 422 531 439 c 0,28,29
EndSplineSet
EndChar

StartChar: uni277A
Encoding: 10106 10106 534
Width: 1115
GlyphClass: 1
Flags: W
LayerCount: 2
Fore
SplineSet
292.5 -98 m 128,-1,1
 174 -31 174 -31 107 87 c 128,-1,2
 40 205 40 205 40 352 c 256,3,4
 40 499 40 499 107 617.5 c 128,-1,5
 174 736 174 736 292.5 803 c 128,-1,6
 411 870 411 870 558 870 c 256,7,8
 705 870 705 870 823 803 c 128,-1,9
 941 736 941 736 1008 617.5 c 128,-1,10
 1075 499 1075 499 1075 352 c 256,11,12
 1075 205 1075 205 1008 87 c 128,-1,13
 941 -31 941 -31 823 -98 c 128,-1,14
 705 -165 705 -165 558 -165 c 256,15,0
 411 -165 411 -165 292.5 -98 c 128,-1,1
651 99.5 m 128,-1,17
 696 121 696 121 722 163.5 c 128,-1,18
 748 206 748 206 748 269 c 0,19,20
 748 323 748 323 730.5 362 c 128,-1,21
 713 401 713 401 680.5 422 c 128,-1,22
 648 443 648 443 605 443 c 0,23,24
 570 443 570 443 544 431 c 128,-1,25
 518 419 518 419 502 391 c 1,26,-1
 494 391 l 1,27,-1
 513 512 l 1,28,-1
 733 512 l 1,29,-1
 733 618 l 1,30,-1
 418 618 l 1,31,-1
 371 325 l 1,32,-1
 510 325 l 1,33,34
 515 338 515 338 526.5 346.5 c 128,-1,35
 538 355 538 355 553 355 c 0,36,37
 581 355 581 355 594 333 c 128,-1,38
 607 311 607 311 607 268 c 0,39,40
 607 218 607 218 592 196.5 c 128,-1,41
 577 175 577 175 549 175 c 0,42,43
 530 175 530 175 517 184.5 c 128,-1,44
 504 194 504 194 499 217 c 1,45,-1
 358 217 l 1,46,47
 362 179 362 179 387 147.5 c 128,-1,48
 412 116 412 116 454 97 c 128,-1,49
 496 78 496 78 547 78 c 0,50,16
 606 78 606 78 651 99.5 c 128,-1,17
EndSplineSet
EndChar

StartChar: uni277B
Encoding: 10107 10107 535
Width: 1115
GlyphClass: 1
Flags: W
LayerCount: 2
Fore
SplineSet
292.5 -98 m 128,-1,1
 174 -31 174 -31 107 87 c 128,-1,2
 40 205 40 205 40 352 c 256,3,4
 40 499 40 499 107 617.5 c 128,-1,5
 174 736 174 736 292.5 803 c 128,-1,6
 411 870 411 870 558 870 c 256,7,8
 705 870 705 870 823 803 c 128,-1,9
 941 736 941 736 1008 617.5 c 128,-1,10
 1075 499 1075 499 1075 352 c 256,11,12
 1075 205 1075 205 1008 87 c 128,-1,13
 941 -31 941 -31 823 -98 c 128,-1,14
 705 -165 705 -165 558 -165 c 256,15,0
 411 -165 411 -165 292.5 -98 c 128,-1,1
673 103 m 128,-1,17
 718 128 718 128 742 172 c 128,-1,18
 766 216 766 216 766 273 c 0,19,20
 766 322 766 322 747 361 c 128,-1,21
 728 400 728 400 694 421.5 c 128,-1,22
 660 443 660 443 617 443 c 0,23,24
 581 443 581 443 550 427 c 128,-1,25
 519 411 519 411 504 383 c 1,26,-1
 497 383 l 1,27,28
 497 460 497 460 516 495.5 c 128,-1,29
 535 531 535 531 571 531 c 0,30,31
 586 531 586 531 597 524.5 c 128,-1,32
 608 518 608 518 615 504 c 1,33,-1
 758 504 l 1,34,35
 745 553 745 553 697.5 591 c 128,-1,36
 650 629 650 629 574 629 c 0,37,38
 471 629 471 629 412.5 558.5 c 128,-1,39
 354 488 354 488 354 354 c 0,40,41
 354 273 354 273 379 210.5 c 128,-1,42
 404 148 404 148 452.5 113 c 128,-1,43
 501 78 501 78 568 78 c 0,44,16
 628 78 628 78 673 103 c 128,-1,17
523 194.5 m 128,-1,46
 506 217 506 217 506 261 c 0,47,48
 506 304 506 304 523 326.5 c 128,-1,49
 540 349 540 349 565 349 c 0,50,51
 591 349 591 349 608 326.5 c 128,-1,52
 625 304 625 304 625 261 c 0,53,54
 625 217 625 217 608 194.5 c 128,-1,55
 591 172 591 172 565 172 c 0,56,45
 540 172 540 172 523 194.5 c 128,-1,46
EndSplineSet
EndChar

StartChar: uni277C
Encoding: 10108 10108 536
Width: 1115
GlyphClass: 1
Flags: W
LayerCount: 2
Fore
SplineSet
292.5 -98 m 128,-1,1
 174 -31 174 -31 107 87 c 128,-1,2
 40 205 40 205 40 352 c 256,3,4
 40 499 40 499 107 617.5 c 128,-1,5
 174 736 174 736 292.5 803 c 128,-1,6
 411 870 411 870 558 870 c 256,7,8
 705 870 705 870 823 803 c 128,-1,9
 941 736 941 736 1008 617.5 c 128,-1,10
 1075 499 1075 499 1075 352 c 256,11,12
 1075 205 1075 205 1008 87 c 128,-1,13
 941 -31 941 -31 823 -98 c 128,-1,14
 705 -165 705 -165 558 -165 c 256,15,0
 411 -165 411 -165 292.5 -98 c 128,-1,1
632 305 m 128,-1,17
 669 416 669 416 749 495 c 1,18,-1
 749 618 l 1,19,-1
 359 618 l 1,20,-1
 359 511 l 1,21,-1
 623 511 l 1,22,-1
 623 504 l 1,23,24
 531 432 531 432 484 320.5 c 128,-1,25
 437 209 437 209 437 89 c 1,26,-1
 595 89 l 1,27,16
 595 194 595 194 632 305 c 128,-1,17
EndSplineSet
EndChar

